<svg width="29" height="29" viewBox="0 0 29 29" fill="none" xmlns="http://www.w3.org/2000/svg">
<path d="M23.98 25.2254C21.4974 25.2254 19.0445 24.6842 16.6215 23.6017C14.1984 22.5193 11.9938 20.985 10.0077 18.9989C8.0216 17.0128 6.48733 14.8082 5.4049 12.3852C4.32247 9.96213 3.78125 7.50928 3.78125 5.02664C3.78125 4.66914 3.90042 4.37122 4.13875 4.13289C4.37708 3.89456 4.675 3.77539 5.0325 3.77539H9.85875C10.1368 3.77539 10.3851 3.86973 10.6035 4.05841C10.822 4.24709 10.9511 4.47053 10.9908 4.72872L11.7654 8.89956C11.8051 9.21734 11.7952 9.48546 11.7356 9.70393C11.676 9.9224 11.5668 10.1111 11.4079 10.27L8.51813 13.1896C8.91535 13.9244 9.38705 14.6345 9.93323 15.3197C10.4794 16.0049 11.0802 16.6653 11.7356 17.3008C12.3513 17.9165 12.9968 18.4875 13.6721 19.0138C14.3474 19.5401 15.0624 20.0218 15.8171 20.4587L18.6175 17.6583C18.7963 17.4796 19.0296 17.3455 19.3176 17.2561C19.6056 17.1667 19.8886 17.1419 20.1667 17.1816L24.2779 18.0158C24.556 18.0953 24.7844 18.2392 24.9631 18.4478C25.1419 18.6563 25.2313 18.8897 25.2313 19.1479V23.9741C25.2313 24.3316 25.1121 24.6296 24.8738 24.8679C24.6354 25.1062 24.3375 25.2254 23.98 25.2254ZM7.38604 10.9254L9.35229 8.95914L8.84583 6.15872H6.19438C6.29368 6.97303 6.43271 7.7774 6.61146 8.57185C6.79021 9.36629 7.0484 10.1508 7.38604 10.9254ZM18.0515 21.5908C18.826 21.9284 19.6155 22.1966 20.4199 22.3952C21.2243 22.5938 22.0336 22.7229 22.8479 22.7825V20.1608L20.0475 19.5948L18.0515 21.5908Z" fill="white"/>
</svg>
