<svg width="29" height="29" viewBox="0 0 29 29" fill="none" xmlns="http://www.w3.org/2000/svg">
<path d="M14.5021 14.5007C15.1575 14.5007 15.7186 14.2673 16.1853 13.8005C16.652 13.3338 16.8854 12.7727 16.8854 12.1173C16.8854 11.4619 16.652 10.9008 16.1853 10.4341C15.7186 9.96735 15.1575 9.73398 14.5021 9.73398C13.8467 9.73398 13.2856 9.96735 12.8189 10.4341C12.3521 10.9008 12.1187 11.4619 12.1187 12.1173C12.1187 12.7727 12.3521 13.3338 12.8189 13.8005C13.2856 14.2673 13.8467 14.5007 14.5021 14.5007ZM14.5021 23.2594C16.9251 21.035 18.7226 19.0141 19.8944 17.1968C21.0662 15.3795 21.6521 13.7658 21.6521 12.3557C21.6521 10.1908 20.9619 8.41819 19.5816 7.03784C18.2012 5.65749 16.5081 4.96732 14.5021 4.96732C12.4961 4.96732 10.803 5.65749 9.4226 7.03784C8.04226 8.41819 7.35208 10.1908 7.35208 12.3557C7.35208 13.7658 7.93799 15.3795 9.10979 17.1968C10.2816 19.0141 12.079 21.035 14.5021 23.2594ZM14.5021 26.4173C11.3044 23.6963 8.91615 21.169 7.33719 18.8353C5.75823 16.5017 4.96875 14.3418 4.96875 12.3557C4.96875 9.37648 5.92705 7.00308 7.84365 5.23544C9.76024 3.4678 11.9797 2.58398 14.5021 2.58398C17.0244 2.58398 19.2439 3.4678 21.1605 5.23544C23.0771 7.00308 24.0354 9.37648 24.0354 12.3557C24.0354 14.3418 23.2459 16.5017 21.667 18.8353C20.088 21.169 17.6997 23.6963 14.5021 26.4173Z" fill="white"/>
</svg>
