<svg width="35" height="35" viewBox="0 0 35 35" fill="none" xmlns="http://www.w3.org/2000/svg">
<g clip-path="url(#clip0_3037_1676)">
<path d="M30.8984 2.73438H29.2578V0H26.5234V2.73438H8.47656V0H5.74219V2.73438H4.10156C1.83996 2.73438 0 4.57434 0 6.83594V30.8984C0 33.16 1.83996 35 4.10156 35H30.8984C33.16 35 35 33.16 35 30.8984V6.83594C35 4.57434 33.16 2.73438 30.8984 2.73438ZM32.2656 30.8984C32.2656 31.6523 31.6523 32.2656 30.8984 32.2656H4.10156C3.3477 32.2656 2.73438 31.6523 2.73438 30.8984V12.8516H32.2656V30.8984ZM32.2656 10.1172H2.73438V6.83594C2.73438 6.08207 3.3477 5.46875 4.10156 5.46875H5.74219V8.20312H8.47656V5.46875H26.5234V8.20312H29.2578V5.46875H30.8984C31.6523 5.46875 32.2656 6.08207 32.2656 6.83594V10.1172Z" fill="#45B34A"/>
<path d="M5.19531 15.7227H7.92969V18.457H5.19531V15.7227ZM10.6641 15.7227H13.3984V18.457H10.6641V15.7227ZM16.1328 15.7227H18.8672V18.457H16.1328V15.7227ZM21.6016 15.7227H24.3359V18.457H21.6016V15.7227ZM27.0703 15.7227H29.8047V18.457H27.0703V15.7227ZM5.19531 21.1914H7.92969V23.9258H5.19531V21.1914ZM10.6641 21.1914H13.3984V23.9258H10.6641V21.1914ZM16.1328 21.1914H18.8672V23.9258H16.1328V21.1914ZM21.6016 21.1914H24.3359V23.9258H21.6016V21.1914ZM5.19531 26.6602H7.92969V29.3945H5.19531V26.6602ZM10.6641 26.6602H13.3984V29.3945H10.6641V26.6602ZM16.1328 26.6602H18.8672V29.3945H16.1328V26.6602ZM21.6016 26.6602H24.3359V29.3945H21.6016V26.6602ZM27.0703 21.1914H29.8047V23.9258H27.0703V21.1914Z" fill="#45B34A"/>
</g>
<defs>
<clipPath id="clip0_3037_1676">
<rect width="35" height="35" fill="white"/>
</clipPath>
</defs>
</svg>
