<svg clip-rule="evenodd" fill-rule="evenodd" height="512" image-rendering="optimizeQuality" shape-rendering="geometricPrecision" text-rendering="geometricPrecision" viewBox="0 0 173.397 173.397" width="512" xmlns="http://www.w3.org/2000/svg"><g id="Layer_x0020_1"><g id="_528568920"><path id="_528570000" d="m89.5097 151.958c-.7177 0-1.3957-.4361-1.668-1.1477l-5.6145-14.7232c-.353-.9189.1077-1.949 1.0264-2.2987.9227-.3528 1.9491.1083 2.3019 1.0272l5.6185 14.7231c.3495.922-.1117 1.9491-1.0305 2.3018-.2099.0802-.4238.1176-.6338.1175z"/><path id="_528570192" d="m77.2585 151.958c-.3592 0-.7183-.1082-1.0307-.331l-10.361-7.3602c-.4733-.3341-.7517-.8754-.7517-1.4538 0-.5757.2783-1.1169.7516-1.4511l10.3615-7.3632c.8012-.5694 1.9115-.3804 2.4838.4209.57.8011.3806 1.915-.4206 2.4843l-8.3154 5.9088 8.3154 5.9091c.8012.5722.99 1.6832.4206 2.4845-.3489.4885-.8971.7518-1.4535.7517z"/><path id="_528570288" d="m96.1427 151.958c-.5568 0-1.108-.2629-1.4544-.7517-.5719-.8013-.3838-1.912.4207-2.4843l8.3163-5.9093-8.3162-5.9088c-.804-.5694-.9933-1.683-.4208-2.4843.5698-.8013 1.683-.99 2.4842-.4208l10.3611 7.3629c.4706.3341.7485.8758.7485 1.4513.0005.5782-.2784 1.1199-.7488 1.454l-10.3603 7.3599c-.3125.2228-.675.3312-1.0303.3311z"/><path id="_528569712" d="m132.271 113.15h-38.6777c-.9843 0-1.7826-.7981-1.7826-1.7819.0006-.984.798-1.782 1.782-1.782h38.6783c5.575 0 10.1131-4.5355 10.1131-10.1135.0004-5.139-3.8455-9.4576-8.944-10.0454-.544-.0619-1.0271-.3682-1.315-.8353-.2871-.4643-.3433-1.0364-.1546-1.55.4084-1.114.6157-2.2863.6157-3.4866.0001-5.5782-4.5355-10.1135-10.1135-10.1135-1.0419-.0001-2.0728.1578-3.0597.4702-.5007.1608-1.0519.0898-1.4974-.1948-.4421-.2849-.7393-.7518-.8073-1.2747-.6498-5.015-4.9625-8.7986-10.0301-8.7986-3.551 0-6.7783 1.8129-8.6346 4.848-.4238.6898-1.2592 1.0085-2.0357.7764-.773-.2353-1.2963-.9621-1.2653-1.7727.0037-.1269.0093-.2537.0093-.3836.0006-5.5784-4.5386-10.1134-10.1167-10.1134-4.3245-.0003-8.1736 2.7472-9.5719 6.8401-.2414.7115-.9066 1.1943-1.6583 1.2067-.0087-.0003-.0186 0-.0279 0-.7387-.0003-1.4045-.4579-1.6675-1.154-1.4756-3.9139-5.281-6.5433-9.4637-6.5433-5.5781-.0001-10.1135 4.5354-10.1135 10.1135.0004.6988.0711 1.4015.2165 2.0852.1117.5321-.0278 1.0858-.3743 1.5035-.3465.4208-.86.6621-1.4108.6435-.071-.0003-.1423-.0031-.2134-.0031-5.5774 0-10.1135 4.5386-10.1135 10.1135.0004 1.7291.4425 3.431 1.2808 4.9283.2976.5351.3001 1.185.0093 1.7233-.2937.5381-.8415.8879-1.4541.925-5.302.337-9.4575 4.7705-9.4575 10.0918.0005 5.5777 4.5354 10.1135 10.1134 10.1135h38.6755c.9837 0 1.7814.7982 1.7814 1.782.0006.9836-.7981 1.7819-1.782 1.7819h-38.6743c-7.5429 0-13.678-6.1349-13.678-13.6774.0005-6.3516 4.3807-11.7717 10.3485-13.266-.4795-1.4109-.727-2.8988-.727-4.4024.0004-6.9456 5.2037-12.6967 11.9172-13.563-.015-.2599-.0217-.5198-.0217-.7796.0004-7.5429 6.1348-13.6775 13.6775-13.6775 4.4214-.0001 8.5294 2.1718 11.0694 5.6492 2.5-3.6912 6.7103-5.9988 11.3199-5.9988 6.2408-.0002 11.5149 4.1983 13.1547 9.9155 2.4353-2.0916 5.5563-3.2701 8.8883-3.2701 6.1881 0 11.5429 4.1735 13.1702 9.9773.7334-.1206 1.4756-.1794 2.2243-.1794 7.543-.0001 13.6775 6.1348 13.6775 13.6775.0001.9216-.0897 1.8314-.2723 2.7224 5.8628 1.5934 10.0702 6.9455 10.0702 13.1949.0004 7.5424-6.138 13.6774-13.6771 13.6774z"/><path id="_528570312" d="m152.872 142.819h-34.2444c-.9835 0-1.7823-.7949-1.7823-1.7818.0003-.9841.7983-1.782 1.782-1.782l34.2447-.0002c4.4556 0 8.0809-3.6225 8.0809-8.0775v-104.841c0-4.455-3.6259-8.0775-8.0809-8.0775h-132.347c-4.455 0-8.0816 3.6228-8.0816 8.0777l.0006 104.841c0 4.455 3.6254 8.078 8.0804 8.078l34.2449-.0002c.9836 0 1.7818.7983 1.7818 1.7822.0002.9869-.7982 1.782-1.782 1.782l-34.2441-.0002c-6.4201 0-11.6455-5.222-11.6455-11.6415l.0005-104.841c0-6.4194 5.2248-11.6415 11.6444-11.6415h132.347c6.4228 0 11.6449 5.2223 11.6449 11.6417v104.841c0 6.4198-5.2222 11.642-11.6449 11.6418z"/><path id="_528569400" d="m162.735 42.0588h-152.073c-.9843 0-1.7825-.7981-1.7825-1.7819.0005-.984.7982-1.782 1.782-1.782l152.073-.0001c.9843 0 1.782.7983 1.782 1.7821 0 .9835-.7982 1.782-1.782 1.7819z"/><path id="_528569304" d="m25.4782 30.6397h8.5605l-1.8996-4.5259h-4.7641zm11.2425 3.561h-13.9246c-.5973 0-1.1544-.2969-1.4823-.795-.3311-.4953-.3898-1.1261-.1609-1.6737l3.3938-8.0904c.2785-.662.925-1.0918 1.6428-1.0918h7.1343c.7177 0 1.3673.43 1.6427 1.0921l3.397 8.09c.229.5475.1702 1.1788-.161 1.6738-.3304.498-.8879.7951-1.4818.795z"/><path id="_528569256" d="m48.2856 30.6397h8.5599l-1.8996-4.5259h-4.7641zm11.2392 3.561h-13.9219c-.5966 0-1.1541-.2969-1.4851-.795-.3275-.4953-.3899-1.1261-.1579-1.6737l3.3944-8.0904c.2784-.662.9247-1.0918 1.6423-1.0918h7.1347c.7177 0 1.3669.43 1.6423 1.0921l3.3974 8.09c.2291.5475.1697 1.1788-.1613 1.6738-.3308.498-.8881.7951-1.4849.795z"/><path id="_528568992" d="m71.0897 30.6397h8.5633l-1.8997-4.5259h-4.7647zm11.2426 3.561h-13.9219c-.5972 0-1.1545-.2969-1.4856-.795-.3277-.4953-.3897-1.1261-.1576-1.6737l3.3939-8.0904c.2784-.662.9249-1.0918 1.6425-1.0918h7.1345c.7176 0 1.3641.43 1.6426 1.0921l3.3944 8.09c.2318.5475.1727 1.1788-.1583 1.6738-.3311.498-.8879.7951-1.4845.795z"/><path id="_528569184" d="m93.8965 30.6397h8.5633l-1.8997-4.5259h-4.764zm11.2425 3.561h-13.9218c-.5972 0-1.1542-.2969-1.4852-.795-.3309-.4953-.3898-1.1261-.1577-1.6737l3.3943-8.0904c.2784-.662.9245-1.0918 1.6423-1.0918h7.1347c.7177 0 1.3639.43 1.6422 1.0921l3.3941 8.09c.2317.5475.1699 1.1788-.1581 1.6738-.3306.498-.8878.7951-1.4848.795z"/><path id="_528569016" d="m59.1906 130.487c-1.4541 0-2.639 1.185-2.639 2.639l.0002 19.376c0 1.4541 1.1846 2.6361 2.6387 2.6361h55.0166c1.4569 0 2.6385-1.1818 2.6385-2.6359l.0003-19.3763c0-1.4541-1.1822-2.6388-2.6393-2.6388zm55.0165 28.2151h-55.0165c-3.4185 0-6.203-2.7813-6.203-6.1999l.0002-19.3763c0-3.4216 2.7842-6.2028 6.2027-6.2028l55.0166-.0001c3.4213 0 6.2025 2.7815 6.2025 6.203l.0003 19.376c0 3.4185-2.7815 6.2001-6.2028 6.2001z"/><path id="_528568968" d="m81.5867 126.923h10.225v-27.9179c0-.987.7974-1.782 1.7814-1.782h2.6826l-9.5754-13.6775-9.5748 13.6775h2.6792c.9837 0 1.7814.7952 1.7814 1.782zm12.007 3.564h-13.789c-.9843 0-1.7826-.7981-1.7826-1.7819l.0006-27.918h-4.322c-.6654 0-1.2751-.3712-1.5814-.9621-.3057-.5881-.2599-1.2994.1206-1.8439l13.0006-18.5626c.3335-.4766.878-.761 1.4597-.761.582-.0002 1.1261.2847 1.4602.7612l12.997 18.5621c.3808.5447.4268 1.2564.1204 1.8442-.3062.5907-.9157.9621-1.5808.9621h-4.3213v27.9179c0 .9839-.7989 1.7821-1.782 1.782z"/></g></g></svg>