<?xml version="1.0" encoding="UTF-8"?>
<svg id="Layer_1" data-name="Layer 1" xmlns="http://www.w3.org/2000/svg" viewBox="0 0 500 500">
  <defs>
    <style>
      .cls-1 {
        fill: #ebebeb;
      }

      .cls-2 {
        fill: #eb996e;
      }

      .cls-3 {
        fill: #f5f5f5;
      }

      .cls-4 {
        fill: #fff;
      }

      .cls-5 {
        fill: #fafafa;
      }

      .cls-6 {
        fill: #ffbe9d;
      }

      .cls-7 {
        fill: #e8505b;
      }

      .cls-8 {
        fill: #b78876;
      }

      .cls-9 {
        fill: #aa6550;
      }

      .cls-10 {
        fill: #e0e0e0;
      }

      .cls-11 {
        fill: #455a64;
      }

      .cls-12 {
        fill: #263238;
      }

      .cls-13 {
        fill: #5cbb61;
      }

      .cls-14 {
        opacity: .3;
      }

      .cls-15 {
        opacity: .4;
      }

      .cls-16 {
        opacity: .5;
      }
    </style>
  </defs>
  <g id="Background_Complete" data-name="Background Complete">
    <g>
      <circle class="cls-10" cx="434.02" cy="110.41" r="30.09" transform="translate(-6.44 191.38) rotate(-24.69)"/>
      <path class="cls-5" d="M447.67,111.32s-.38,.07-1.06,.09c-.79,.02-1.77,.05-2.92,.08-2.48,.05-5.94,.08-9.84,.08h-.26v-.26c0-.62,0-1.28,0-1.95,0-4.36,.03-8.31,.08-11.16,.03-1.34,.06-2.48,.08-3.38,.03-.8,.07-1.24,.1-1.24s.07,.44,.1,1.24c.02,.91,.05,2.04,.08,3.38,.05,2.86,.08,6.8,.08,11.16,0,.67,0,1.33,0,1.95l-.26-.26c3.9,0,7.36,.04,9.84,.08,1.16,.03,2.14,.06,2.92,.08,.69,.03,1.06,.06,1.06,.1Z"/>
      <path class="cls-5" d="M433.93,85.24c.14,0,.26,1.13,.26,2.53s-.12,2.53-.26,2.53-.26-1.13-.26-2.53,.12-2.53,.26-2.53Z"/>
      <path class="cls-5" d="M447.65,89.3c.1,.1-.61,.97-1.58,1.95s-1.84,1.68-1.95,1.58c-.1-.1,.61-.97,1.58-1.95,.97-.97,1.84-1.68,1.95-1.58Z"/>
      <path class="cls-5" d="M455.66,98.06c.07,.13-.87,.73-2.04,1.44-1.17,.71-2.13,1.27-2.22,1.15-.08-.11,.76-.87,1.95-1.59,1.19-.72,2.25-1.12,2.31-1Z"/>
      <path class="cls-5" d="M460.36,111.06c0,.14-1.54,.26-3.45,.26s-3.45-.12-3.45-.26,1.54-.26,3.45-.26c1.9,0,3.45,.12,3.45,.26Z"/>
      <path class="cls-5" d="M412.56,110.6c0,.14-1.46,.26-3.26,.26s-3.26-.12-3.26-.26,1.46-.26,3.26-.26,3.26,.12,3.26,.26Z"/>
      <path class="cls-5" d="M415.94,120.27c.09,.11-.99,1.13-2.42,2.28-1.43,1.15-2.66,1.99-2.75,1.88s1-1.14,2.42-2.28c1.42-1.15,2.65-1.99,2.75-1.88Z"/>
      <path class="cls-5" d="M424.28,127.76c.12,.09-.67,1.36-1.62,2.94-.95,1.58-1.7,2.87-1.83,2.81-.13-.06,.42-1.48,1.39-3.07,.96-1.6,1.95-2.75,2.06-2.67Z"/>
      <path class="cls-5" d="M433.93,137.41c-.14,0-.26-1.54-.26-3.45s.12-3.45,.26-3.45,.26,1.54,.26,3.45c0,1.9-.12,3.45-.26,3.45Z"/>
      <path class="cls-5" d="M448.79,132.81c-.07,.12-1.44-.64-2.89-1.9-1.45-1.26-2.38-2.51-2.27-2.6,.11-.1,1.2,.98,2.62,2.21,1.41,1.23,2.63,2.17,2.54,2.29Z"/>
      <path class="cls-5" d="M455.77,125.3c-.1,.1-1.14-.78-2.33-1.96s-2.06-2.23-1.96-2.33,1.14,.78,2.33,1.96,2.06,2.23,1.96,2.33Z"/>
      <path class="cls-5" d="M415.63,101.33c-.1,.1-1.02-.66-2.06-1.69-1.04-1.04-1.79-1.96-1.69-2.06,.1-.1,1.02,.66,2.06,1.69,1.04,1.04,1.79,1.96,1.69,2.06Z"/>
      <path class="cls-5" d="M424.23,92.26c-.1,.1-1.01-.64-2.03-1.65-1.02-1.01-1.76-1.92-1.66-2.02s1.01,.64,2.03,1.65c1.02,1.01,1.76,1.92,1.66,2.02Z"/>
    </g>
    <g>
      <rect class="cls-1" x="43.51" y="16.77" width="119.58" height="214.82"/>
      <rect class="cls-5" x="48.28" y="23" width="108.79" height="202.19"/>
      <polygon class="cls-3" points="157.08 25.39 48.28 163.77 48.28 23 157.08 23 157.08 25.39"/>
      <rect class="cls-1" x="48.28" y="81.17" width="111.15" height="2.15"/>
      <rect class="cls-1" x="48.28" y="129.32" width="111.15" height="2.15"/>
      <rect class="cls-1" x="48.28" y="177.47" width="111.15" height="2.15"/>
      <rect class="cls-1" x="99.93" y="82.24" width="5.5" height="148.68"/>
      <rect class="cls-1" x="69.23" y="23" width="2.49" height="59.24"/>
      <rect class="cls-1" x="90.71" y="23" width="2.49" height="59.24"/>
      <rect class="cls-1" x="112.18" y="23" width="2.49" height="59.24"/>
      <rect class="cls-1" x="133.66" y="23" width="2.49" height="59.24"/>
      <rect class="cls-3" x="38.45" y="13.13" width="5.06" height="219.79"/>
      <polygon class="cls-10" points="168.14 233.53 163.09 231.59 163.09 13.13 168.14 13.13 168.14 233.53"/>
      <rect class="cls-10" x="38.45" y="10.91" width="129.7" height="5.86"/>
      <rect class="cls-10" x="34.86" y="234.25" width="136.71" height="5.46"/>
      <polygon class="cls-1" points="163.09 231.59 171.57 234.25 34.86 234.25 43.51 231.59 163.09 231.59"/>
    </g>
  </g>
  <g id="Floor">
    <path class="cls-12" d="M469.7,449.5c0,.14-96.54,.26-215.61,.26s-215.63-.12-215.63-.26,96.52-.26,215.63-.26c119.06,0,215.61,.12,215.61,.26Z"/>
  </g>
  <g id="Graphics">
    <g>
      <g>
        <rect class="cls-5" x="187.27" y="70.47" width="188.9" height="173.02"/>
        <path class="cls-12" d="M376.67,243.99H186.77V69.97h189.9V243.99Zm-188.9-1h187.9V70.97H187.77V242.99Z"/>
      </g>
      <rect class="cls-12" x="182.9" y="60.06" width="196.68" height="11.03"/>
      <polygon class="cls-10" points="187.7 71.09 375.75 89.55 375.65 71.09 187.7 71.09"/>
    </g>
    <g>
      <rect class="cls-7" x="216.65" y="128.81" width="6.34" height="70.79"/>
      <rect class="cls-7" x="228.89" y="152.85" width="6.34" height="46.75"/>
      <rect class="cls-7" x="241.13" y="137.6" width="6.34" height="62.35"/>
      <rect class="cls-7" x="253.36" y="131.54" width="6.34" height="68.05"/>
      <rect class="cls-7" x="265.6" y="154.29" width="6.34" height="45.31"/>
      <rect class="cls-7" x="277.84" y="163.17" width="6.34" height="36.42"/>
      <rect class="cls-7" x="290.07" y="136.07" width="6.34" height="63.52"/>
      <rect class="cls-7" x="302.31" y="147.52" width="6.34" height="52.07"/>
      <rect class="cls-7" x="314.55" y="138.37" width="6.34" height="61.22"/>
      <rect class="cls-7" x="326.79" y="157.88" width="6.34" height="41.71"/>
      <rect class="cls-7" x="339.02" y="149.95" width="6.34" height="49.65"/>
      <path class="cls-12" d="M341.44,144.85s-.14-.01-.41-.07c-.29-.06-.68-.14-1.18-.24-.52-.13-1.17-.21-1.94-.31-.77-.13-1.66-.17-2.67-.22-2.01-.05-4.49,.03-7.29,.63-2.79,.6-5.9,1.66-9.04,3.42-3.13,1.75-6.3,4.17-9.15,7.29-2.85,3.13-5.26,6.99-7.71,11.07-2.48,4.06-5.01,8.48-8.67,12.25-1.81,1.88-3.93,3.59-6.39,4.78-1.23,.59-2.56,1.01-3.94,1.2-1.38,.19-2.79,.13-4.17-.14-2.76-.61-5.21-2.06-7.27-3.81-2.09-1.74-3.82-3.79-5.39-5.88-3.12-4.21-5.35-8.74-7.72-12.87-2.35-4.14-4.76-8.02-7.71-11.04-1.47-1.51-3.06-2.81-4.77-3.75-.82-.53-1.73-.85-2.58-1.25-.89-.28-1.74-.63-2.63-.78-3.5-.82-6.83-.51-9.56,.27-2.75,.77-4.92,2.01-6.56,3.15-1.61,1.21-2.74,2.3-3.45,3.09-.34,.38-.6,.68-.8,.9-.18,.2-.28,.3-.29,.3,0,0,.08-.12,.25-.33,.19-.23,.44-.54,.76-.94,.68-.82,1.8-1.94,3.4-3.18,1.64-1.18,3.82-2.46,6.6-3.27,2.76-.82,6.15-1.16,9.72-.35,3.58,.71,7.23,2.77,10.2,5.84,3.01,3.06,5.46,6.96,7.82,11.11,2.39,4.14,4.62,8.65,7.71,12.8,1.55,2.07,3.26,4.08,5.31,5.78,2.02,1.72,4.4,3.12,7.04,3.7,1.32,.26,2.68,.32,3.99,.13,1.32-.18,2.6-.59,3.79-1.16,2.38-1.15,4.46-2.81,6.24-4.66,3.61-3.71,6.13-8.09,8.62-12.15,2.47-4.08,4.9-7.96,7.81-11.12,2.9-3.14,6.12-5.57,9.29-7.32,3.18-1.76,6.33-2.81,9.16-3.38,2.83-.57,5.33-.63,7.35-.54,1.01,.07,1.91,.12,2.68,.27,.77,.12,1.42,.21,1.94,.36,.5,.12,.89,.22,1.18,.29,.27,.07,.4,.11,.4,.12Z"/>
      <path class="cls-12" d="M209.68,204.52c-.14,0-.26-20.19-.26-45.08s.12-45.08,.26-45.08,.26,20.18,.26,45.08c0,24.89-.12,45.08-.26,45.08Z"/>
      <path class="cls-12" d="M347.95,204.52c0,.14-30.07,.26-67.14,.26s-67.15-.12-67.15-.26,30.06-.26,67.15-.26c37.08,0,67.14,.12,67.14,.26Z"/>
      <path class="cls-12" d="M225.69,210.1c0,.14-2.11,.26-4.7,.26s-4.7-.12-4.7-.26,2.11-.26,4.7-.26c2.6,0,4.7,.12,4.7,.26Z"/>
      <path class="cls-12" d="M241.3,210.38c0,.14-2.52,.26-5.62,.26s-5.62-.12-5.62-.26,2.52-.26,5.62-.26,5.62,.12,5.62,.26Z"/>
      <path class="cls-12" d="M254.61,210.38c0,.14-2.52,.26-5.62,.26s-5.62-.12-5.62-.26,2.52-.26,5.62-.26,5.62,.12,5.62,.26Z"/>
      <path class="cls-12" d="M267.91,210.38c0,.14-2.52,.26-5.62,.26s-5.62-.12-5.62-.26,2.52-.26,5.62-.26,5.62,.12,5.62,.26Z"/>
      <path class="cls-12" d="M281.22,210.38c0,.14-2.52,.26-5.62,.26s-5.62-.12-5.62-.26,2.52-.26,5.62-.26,5.62,.12,5.62,.26Z"/>
      <path class="cls-12" d="M294.53,210.38c0,.14-2.52,.26-5.62,.26s-5.62-.12-5.62-.26,2.52-.26,5.62-.26,5.62,.12,5.62,.26Z"/>
      <path class="cls-12" d="M307.84,210.38c0,.14-2.52,.26-5.62,.26s-5.62-.12-5.62-.26,2.52-.26,5.62-.26,5.62,.12,5.62,.26Z"/>
      <path class="cls-12" d="M321.15,210.38c0,.14-2.52,.26-5.62,.26s-5.62-.12-5.62-.26,2.52-.26,5.62-.26,5.62,.12,5.62,.26Z"/>
      <path class="cls-12" d="M334.46,210.38c0,.14-2.52,.26-5.62,.26s-5.62-.12-5.62-.26,2.52-.26,5.62-.26,5.62,.12,5.62,.26Z"/>
      <path class="cls-12" d="M347.76,210.38c0,.14-2.52,.26-5.62,.26s-5.62-.12-5.62-.26,2.52-.26,5.62-.26,5.62,.12,5.62,.26Z"/>
      <path class="cls-12" d="M259.97,162.43c0-.08,.57,.12,.75,.9,.08,.37,.11,.85-.14,1.34-.13,.24-.36,.48-.68,.57-.32,.1-.66,.04-.95-.11-.57-.31-.86-.95-.81-1.48,.04-.54,.33-.96,.65-1.2,.32-.24,.68-.28,.89-.22,.22,.07,.29,.17,.27,.19-.02,.07-.47-.14-.93,.31-.21,.21-.4,.55-.4,.94-.01,.38,.2,.8,.58,1.01,.38,.21,.77,.09,.96-.24,.2-.32,.23-.73,.2-1.04-.06-.65-.43-.9-.39-.96Z"/>
      <path class="cls-12" d="M321.23,145.34s.15-.08,.4,0c.26,.07,.59,.31,.83,.72,.24,.4,.4,1,.2,1.63-.18,.6-.74,1.27-1.59,1.27-.42,0-.79-.25-1.01-.53-.23-.28-.36-.6-.43-.9-.14-.62-.01-1.23,.26-1.62,.57-.81,1.28-.77,1.26-.71,.03,.08-.56,.19-.94,.9-.19,.34-.25,.82-.11,1.32,.12,.48,.49,1.02,.99,1.03,.51,.01,.97-.45,1.12-.9,.17-.47,.09-.96-.08-1.31-.34-.75-.93-.82-.91-.89Z"/>
      <g>
        <path class="cls-12" d="M322.23,111.89c-.14,0-.26-.34-.26-.75s.12-.75,.26-.75,.26,.34,.26,.75c0,.41-.12,.75-.26,.75Z"/>
        <path class="cls-12" d="M322.23,118.48c-.14,0-.26-.74-.26-1.65s.12-1.65,.26-1.65,.26,.74,.26,1.65c0,.91-.12,1.65-.26,1.65Z"/>
        <path class="cls-12" d="M322.23,125.06c-.14,0-.26-.74-.26-1.65s.12-1.65,.26-1.65,.26,.74,.26,1.65c0,.91-.12,1.65-.26,1.65Z"/>
        <path class="cls-12" d="M322.23,131.64c-.14,0-.26-.74-.26-1.65s.12-1.65,.26-1.65,.26,.74,.26,1.65c0,.91-.12,1.65-.26,1.65Z"/>
        <path class="cls-12" d="M322.23,138.23c-.14,0-.26-.74-.26-1.65s.12-1.65,.26-1.65,.26,.74,.26,1.65c0,.91-.12,1.65-.26,1.65Z"/>
        <path class="cls-12" d="M322.23,143.02c-.14,0-.26-.34-.26-.75s.12-.75,.26-.75,.26,.34,.26,.75c0,.41-.12,.75-.26,.75Z"/>
      </g>
      <path class="cls-12" d="M367.32,99.23c0,.14-10.4,.26-23.22,.26s-23.22-.12-23.22-.26,10.39-.26,23.22-.26,23.22,.12,23.22,.26Z"/>
      <path class="cls-12" d="M351.46,92.72c0,.14-6.69,.26-14.94,.26s-14.94-.12-14.94-.26,6.69-.26,14.94-.26,14.94,.12,14.94,.26Z"/>
      <rect class="cls-12" x="216.65" y="128.81" width="6.34" height="70.79"/>
      <rect class="cls-12" x="228.89" y="152.85" width="6.34" height="46.75"/>
      <g class="cls-14">
        <rect class="cls-12" x="241.13" y="137.6" width="6.34" height="62.35"/>
      </g>
      <g class="cls-14">
        <rect class="cls-4" x="253.36" y="131.54" width="6.34" height="68.05"/>
      </g>
      <rect class="cls-12" x="265.6" y="154.29" width="6.34" height="45.31"/>
      <rect class="cls-12" x="277.84" y="163.17" width="6.34" height="36.42"/>
      <rect class="cls-12" x="290.07" y="136.07" width="6.34" height="63.52"/>
      <rect class="cls-12" x="302.31" y="147.52" width="6.34" height="52.07"/>
      <rect class="cls-12" x="314.55" y="138.37" width="6.34" height="61.22"/>
      <rect class="cls-12" x="326.79" y="157.88" width="6.34" height="41.71"/>
      <rect class="cls-12" x="339.02" y="149.95" width="6.34" height="49.65"/>
    </g>
  </g>
  <g id="Character_3" data-name="Character 3">
    <g>
      <g>
        <g>
          <rect class="cls-11" x="416.1" y="353.79" width="6.92" height="82.91"/>
          <path class="cls-11" d="M370.6,357.55h98.97c0-5.93-4.81-10.74-10.74-10.74h-77.49c-5.93,0-10.74,4.81-10.74,10.74h0Z"/>
          <path class="cls-12" d="M412.84,357.76c0,.14,2.72,.26,6.07,.26s6.07-.11,6.07-.26-2.72-.26-6.07-.26-6.07,.11-6.07,.26Z"/>
        </g>
        <path class="cls-11" d="M389.29,444.22h.98c0-16.24,13.21-29.45,29.45-29.45s29.45,13.21,29.45,29.45h.98c0-16.78-13.65-30.42-30.42-30.42-16.78,0-30.42,13.65-30.42,30.42Z"/>
        <path class="cls-12" d="M445.09,445.73c0,2.52,2.04,4.56,4.56,4.56s4.56-2.04,4.56-4.56-2.04-4.56-4.56-4.56-4.56,2.04-4.56,4.56Z"/>
        <path class="cls-11" d="M384.99,445.1c0,2.52,2.04,4.56,4.56,4.56s4.56-2.04,4.56-4.56-2.04-4.56-4.56-4.56c-2.52,0-4.56,2.04-4.56,4.56Z"/>
        <path class="cls-11" d="M389.58,436.71c0,.14,13.24,.26,29.57,.26s29.57-.11,29.57-.26-13.24-.26-29.57-.26-29.57,.11-29.57,.26Z"/>
      </g>
      <path class="cls-11" d="M472.48,271.72v61.03c0,8.01-6.49,14.49-14.49,14.49h-47.03l6.39-75.53c0-3.57,2.89-6.46,6.46-6.46h42.22c3.57,0,6.46,2.89,6.46,6.46Z"/>
      <path class="cls-12" d="M455.85,346.8s.03-.07,.11-.18c.1-.14,.21-.3,.35-.5,.31-.43,.76-1.08,1.29-1.94,1.06-1.72,2.47-4.31,3.5-7.77,.52-1.73,.94-3.66,1.17-5.77,.25-2.11,.19-4.38,.18-6.78,0-4.8-.01-10.07-.02-15.6,.03-11.05,.05-21.05,.07-28.35,.03-3.59,.06-6.51,.08-8.59,.02-.98,.04-1.76,.05-2.33,.02-.53,.03-.81,.05-.81s.03,.28,.05,.81c.01,.58,.03,1.36,.05,2.33,.02,2.08,.05,5,.08,8.59,.02,7.3,.04,17.3,.07,28.35,0,5.53-.01,10.8-.02,15.6-.01,2.39,.04,4.69-.23,6.82-.24,2.13-.69,4.09-1.24,5.83-1.09,3.49-2.56,6.08-3.68,7.77-.56,.85-1.04,1.48-1.38,1.89-.33,.42-.52,.63-.53,.62Z"/>
      <path class="cls-12" d="M430.24,346.84s.53-.06,1.49-.08c1.05-.01,2.42-.03,4.08-.05,3.44-.02,8.2-.01,13.45,.02,2.62,.02,5.13,.03,7.4,.09,2.27,.04,4.36,.17,6.04,.66,1.69,.47,2.9,1.27,3.63,1.9,.37,.32,.63,.59,.79,.79,.17,.19,.25,.3,.23,.31-.04,.04-.38-.38-1.14-.95-.75-.58-1.95-1.3-3.6-1.71-1.64-.44-3.68-.52-5.96-.54-2.28-.02-4.78-.03-7.4-.05-5.25-.04-10-.1-13.44-.17-1.65-.04-3.02-.08-4.07-.11-.96-.04-1.5-.08-1.5-.11Z"/>
    </g>
    <g>
      <path class="cls-12" d="M386.94,207.1c-1.39,4.27-2.79,8.63-2.69,13.12,.05,2.07,.38,4.3-.64,6.11-.71,1.26-1.96,2.09-2.95,3.14-2.45,2.6-3.12,6.72-1.64,9.96,.52,1.13,1.3,2.18,2.37,2.82,1.23,.74,2.71,.88,4.14,.97,4.77,.28,9.56,.06,14.28-.65,2.26-.34,4.7-.91,6.09-2.71,1.25-1.62,1.34-3.82,1.26-5.86-.29-7.74-2.21-15.41-5.61-22.37"/>
      <path class="cls-12" d="M418.93,202.48c2.19-.69,4.75,1.33,4.59,3.62s-2.99,3.93-5.06,2.93c2.3-.4,4.5,1.34,5.56,3.41s1.31,4.45,1.86,6.71c.55,2.26,1.53,4.61,3.52,5.82,1.9,1.15,4.58,1.2,5.8,3.05,1.28,1.92,.15,4.54,.69,6.79,.53,2.23,2.57,3.71,4.38,5.12,1.81,1.41,3.67,3.27,3.58,5.56-.08,1.84-1.47,3.42-3.13,4.22-1.65,.8-3.54,.96-5.38,1.04-9.06,.4-18.19-.77-26.85-3.46-1.37-.43-2.81-.94-3.71-2.06-1.38-1.71-1.05-4.17-.65-6.33,1.26-6.83,2.53-13.69,4.76-20.26s5.5-12.91,10.3-17.92"/>
      <g>
        <path class="cls-13" d="M432.49,268.32h10.69l-3.8-19.04c-2.8-15.59-24.65-16.66-24.65-16.66l-17.15-.28s-12.71-1.71-20.56,7.14c-1.61,1.82-3.3,3.7-4.96,5.55l-18.6,19.45-1.98-24.41-15.93,2.5,2.23,30.66c.49,4.94,3.69,9.36,8.42,10.87,3.45,1.1,6.95,.14,10.44-1.61,9.28-4.63,26.67-19.34,28.01-20.47-.8,1.65-2.4,5.38-2.4,8.91,0,5.08,5.21,8.88,5.21,8.88l1.62,15.45-5.38,24.95,55.99-2.24c-1.09-9.05-3.98-16.79-8.26-23.53l1.04-26.11Zm-47.79-6.38s-.11-.17-.18-.38l.6-.42s-.17,.3-.42,.8Z"/>
        <g>
          <path class="cls-6" d="M407.43,311.55c-3.13,2.07-6.93,4.48-9.06,5.5-3.97,1.89-4.16,1.54-4.31,1.04-.41-1.33,6.85-3.59,4.99-4-1.86-.41-8.54,3.78-8.92,2.37-.49-1.84,7.17-4.06,7.8-4.29,.61-.23,.29-1.15-.27-.91-.8,.35-9.34,3.81-9.84,2.01-.28-1,1.58-1.28,1.58-1.28,0,0,8.24-2.65,7.98-3.49-.27-.86-5.16,.54-6.78,1.13-1.6,.58-2.54,.06-2.23-.85,.21-.62,5.11-2.53,6.72-3.08s6.06-1.95,3.26-3.02c-2.8-1.07-4.57-2.92-4.7-3.74-.13-.82,.98-1.27,1.64-.62,.53,.53,1.69,1.15,2.58,1.58,.73,.36,1.52,.59,2.33,.69,.7,.08,1.32,.14,1.88,.17l5.95,.45,3,7.88-3.61,2.47Z"/>
          <path class="cls-13" d="M433.51,239.71s4.86,3.39,7.05,10.54c1.32,4.32,5.11,18.97,7.9,29.86,1.82,7.11-2.17,14.42-9.14,16.73l-31.51,17.03-5.15-13.32,27.65-18.17-6.68-24.75c-1.1-3.77-1.57-7.6-.19-11.27,1.41-3.77,4.28-7.35,10.08-6.65Z"/>
          <path class="cls-6" d="M336.62,243.46l-1.91-6.12c-.89-4.38,2.57-5.09,3.15-5.74,1.8-2.01,3.09-2.5,3.09-2.5l-.28-1.76s-1.05-4.51-1-5.74c.04-1.05,1.93-1.12,2.2-.11,.62,2.32,1.71,6.24,2.29,7.68,.77,1.9,2.47,6.88,4.26,3.79,1.79-3.09,1.6-4.9,1.91-5.85,.32-1.01,2.57-1.2,2.13,.9-.18,.88-.29,2.43-.84,4.54-.24,.94-.76,2.09-1.03,3.03-.3,1.09-.44,5.15-.61,5.95l-13.38,1.95Z"/>
          <path class="cls-2" d="M337.62,232.78c.08,0,.17,.71,.48,1.8,.16,.55,.38,1.19,.7,1.87,.15,.34,.36,.73,.4,1.22,.04,.46-.14,1.09-.72,1.32-.57,.21-1.09-.04-1.46-.29-.38-.27-.65-.6-.88-.94-.44-.68-.64-1.38-.76-1.96-.21-1.16-.18-1.88-.12-1.89,.08-.01,.19,.71,.48,1.81,.15,.54,.38,1.18,.8,1.77,.21,.29,.47,.58,.77,.79,.3,.21,.69,.34,.97,.22,.28-.1,.43-.47,.41-.81-.02-.35-.18-.7-.33-1.06-.3-.72-.49-1.4-.61-1.98-.23-1.16-.19-1.89-.12-1.89Z"/>
          <path class="cls-2" d="M340.37,230.75c.07-.02,.41,.87,.91,2.32,.26,.79,.55,1.64,.85,2.56,.15,.49,.34,.97,.46,1.55,.06,.29,.07,.63-.05,.96-.12,.34-.38,.61-.68,.77-.61,.35-1.38,.24-1.89-.1-.52-.33-.88-.82-1.1-1.3-.43-.98-.59-1.87-.82-2.61-.4-1.48-.61-2.41-.54-2.43s.4,.87,.89,2.33c.26,.71,.48,1.64,.89,2.5,.21,.43,.52,.83,.94,1.08,.41,.26,.93,.32,1.37,.07,.44-.23,.58-.69,.48-1.19-.1-.49-.29-1.02-.42-1.5-.27-.93-.51-1.8-.74-2.59-.41-1.48-.63-2.41-.56-2.43Z"/>
          <path class="cls-12" d="M351.05,270.18c-.13-.06,.31-1.41,.99-3.01,.68-1.61,1.34-2.87,1.47-2.81,.13,.06-.31,1.4-.99,3.01-.68,1.61-1.34,2.87-1.47,2.81Z"/>
          <path class="cls-10" d="M376.12,266.49c-.02,.07-1.09-.18-2.81-.65-.91-.26-1.92-.54-3.01-.85-1.13-.34-2.38-.76-3.59-1.45-1.21-.68-2.22-1.62-2.86-2.66-.66-1.04-.85-2.19-.84-3.08,0-.9,0-1.6-.07-2.09-.06-.48-.15-.74-.11-.76,.03-.01,.18,.23,.31,.72,.14,.49,.18,1.23,.24,2.11,.04,.88,.25,1.89,.88,2.84,.62,.95,1.56,1.82,2.71,2.47,1.15,.66,2.37,1.08,3.48,1.44,1.08,.35,2.07,.67,2.97,.95,1.69,.56,2.72,.94,2.7,1.01Z"/>
          <path class="cls-10" d="M422.94,305.25c-.09,0,.02-.9-.25-2.29-.26-1.39-.99-3.22-2.21-5.02-.6-.9-1.23-1.73-1.8-2.48-.59-.75-1.07-1.46-1.58-1.9-.51-.46-1.06-.62-1.44-.64-.38-.02-.59,.07-.61,.02-.01-.02,.18-.18,.61-.23,.42-.05,1.07,.09,1.67,.56,.61,.46,1.12,1.17,1.73,1.89,.6,.74,1.25,1.57,1.86,2.49,1.25,1.84,1.97,3.79,2.14,5.24,.19,1.46-.06,2.36-.11,2.35Z"/>
          <path class="cls-10" d="M440.07,250.93s-.27-.06-.78-.22c-.55-.17-1.28-.41-2.2-.7-1.91-.56-4.72-1.48-8.28-1.45-1.77,.03-3.71,.41-5.58,1.31-1.88,.89-3.69,2.24-5.5,3.75-1.83,1.5-3.65,3.22-5.85,4.64-2.17,1.4-4.73,2.59-7.56,2.73-1.4,.06-2.81-.23-4.06-.81-1.25-.57-2.31-1.45-3.21-2.4-1.8-1.92-3.07-4.09-4.5-5.95-2.79-3.83-6.81-5.83-10.25-6.57-3.49-.76-6.43-.37-8.35,.12-1.93,.52-2.91,1.07-2.94,1,0,0,.95-.61,2.88-1.2,1.92-.56,4.91-1.02,8.48-.29,1.77,.36,3.67,1.03,5.51,2.11,1.84,1.07,3.62,2.6,5.04,4.52,1.46,1.89,2.74,4.04,4.49,5.89,1.69,1.88,4.18,3.18,6.88,3.04,2.68-.13,5.17-1.26,7.3-2.63,2.15-1.38,3.97-3.09,5.82-4.58,1.83-1.51,3.68-2.87,5.63-3.77,1.94-.92,3.95-1.29,5.76-1.29,3.65,.02,6.45,1.01,8.35,1.63,.95,.33,1.68,.6,2.17,.8,.49,.19,.75,.3,.74,.32Z"/>
          <path class="cls-10" d="M427.63,277.1c-.02,.06-.62-.29-1.8-.41-1.18-.11-2.91,.23-4.86,1.12-1.95,.86-4.19,2.21-6.95,3.05-2.74,.88-5.9,1.41-9.22,1.34-3.32-.06-6.46-.73-9.15-1.73-2.7-.99-4.95-2.32-6.71-3.58-1.76-1.28-3.02-2.5-3.85-3.39-.42-.44-.72-.8-.91-1.05-.2-.25-.3-.38-.28-.4,.04-.03,.48,.47,1.34,1.31,.86,.83,2.16,2,3.92,3.23,1.77,1.21,4,2.48,6.67,3.43,2.66,.96,5.74,1.6,9,1.66,3.26,.07,6.37-.44,9.07-1.28,2.72-.8,4.94-2.1,6.95-2.93,1.99-.86,3.8-1.17,5.02-.98,1.22,.19,1.78,.62,1.78,.62Z"/>
          <path class="cls-10" d="M446.55,272.89s-.04,.29-.25,.75c-.2,.47-.55,1.12-1.11,1.86-1.08,1.45-3.14,3.23-5.94,3.81-2.77,.61-5.33,.16-7.09-.17-1.77-.37-2.84-.69-2.83-.76,.02-.08,1.12,.12,2.89,.4,1.76,.24,4.27,.61,6.91,.03,2.66-.56,4.64-2.18,5.76-3.54,1.14-1.36,1.56-2.42,1.64-2.38Z"/>
          <path class="cls-12" d="M423.12,255.51s.06,.16,.14,.48c.09,.35,.2,.82,.34,1.42,.31,1.28,.76,3.09,1.32,5.37,1.15,4.63,2.84,11.23,4.96,19.13l.04,.15-.13,.09c-6.76,4.66-14.76,10.18-23.3,16.08-1.24,.86-2.47,1.7-3.69,2.54l.09-.31c1.83,4.61,3.6,9.03,5.24,13.16l-.34-.13c9.67-4.77,17.8-9.13,23.53-12.28,2.83-1.57,5.09-2.82,6.68-3.7,.75-.42,1.35-.74,1.78-.98,.41-.22,.62-.33,.63-.32s-.19,.14-.59,.39c-.43,.26-1.01,.61-1.74,1.05-1.53,.91-3.77,2.22-6.61,3.83-5.69,3.22-13.8,7.64-23.46,12.45l-.24,.12-.1-.25c-1.65-4.12-3.42-8.54-5.27-13.14l-.08-.19,.17-.12c1.21-.84,2.45-1.68,3.69-2.54,8.56-5.87,16.57-11.37,23.34-16.02l-.09,.24c-2.08-7.92-3.7-14.54-4.78-19.18-.54-2.32-.93-4.15-1.2-5.4-.12-.6-.21-1.07-.28-1.43-.06-.32-.08-.49-.07-.49Z"/>
          <path class="cls-12" d="M437.27,284.28c-.09,.11-1.51-1.06-3.64-1.7-1.05-.33-2.05-.49-2.77-.53-.72-.04-1.18,0-1.19-.07-.02-.06,.43-.24,1.19-.29,.76-.06,1.82,.05,2.92,.4,2.25,.68,3.61,2.11,3.49,2.2Z"/>
        </g>
      </g>
      <g>
        <g>
          <path class="cls-13" d="M320.51,392.09l4.14-8.59,16.14,7.65-5.92,12.63-1.03-.41c-4.57-1.86-23.11-9.8-25.66-12.11-2.84-2.58,12.33,.83,12.33,.83Z"/>
          <g class="cls-16">
            <path class="cls-4" d="M329.07,400.88c.87-1.24,2.21-2.14,3.69-2.46,1.48-.33,3.02-.14,4.33,.61l-2.14,4.51-5.88-2.66Z"/>
          </g>
        </g>
        <g class="cls-15">
          <path class="cls-4" d="M312.98,390.66s-5.46-.89-5.24,.18,18.66,9.8,27.12,12.93l.14-.37-21.59-9.99s.48-2.27-.44-2.75Z"/>
        </g>
        <path class="cls-12" d="M335.27,403.52s-.1-.03-.29-.1c-.25-.1-.52-.21-.82-.33-.81-.34-1.81-.77-2.99-1.26-2.52-1.08-5.98-2.63-9.77-4.42-3.79-1.79-7.18-3.48-9.62-4.74-1.13-.6-2.1-1.1-2.88-1.51-.29-.16-.54-.3-.77-.42-.18-.1-.27-.15-.26-.16,0,0,.1,.04,.28,.12,.24,.12,.5,.24,.79,.39,.79,.39,1.76,.88,2.91,1.45,2.45,1.22,5.86,2.89,9.64,4.68,3.78,1.79,7.23,3.35,9.74,4.47,1.17,.52,2.16,.96,2.96,1.33,.3,.14,.56,.26,.8,.37,.18,.09,.28,.13,.27,.14Z"/>
        <path class="cls-12" d="M313.31,393.67c-.06-.02,.22-.74,.11-1.66-.09-.92-.53-1.56-.47-1.6,.04-.04,.58,.59,.68,1.57,.11,.98-.29,1.72-.33,1.68Z"/>
        <path class="cls-12" d="M319.22,393.51c-.06,0-.16-.38-.22-.86s-.06-.88,0-.89c.06,0,.16,.38,.22,.86,.06,.48,.06,.88,0,.89Z"/>
        <path class="cls-12" d="M320.85,393.43c-.05,.02-.23-.27-.39-.65-.16-.38-.24-.71-.19-.73s.23,.27,.39,.65c.16,.38,.24,.71,.19,.73Z"/>
        <path class="cls-12" d="M322.4,392.3c-.02,.05-.42-.08-.89-.29-.47-.21-.83-.43-.8-.49,.02-.05,.42,.08,.89,.29,.47,.21,.83,.43,.8,.49Z"/>
        <path class="cls-12" d="M323.19,391.36c0,.06-.5,.05-1.07-.17-.57-.22-.94-.54-.91-.59,.04-.05,.45,.18,.99,.39,.54,.21,1,.31,.99,.37Z"/>
        <path class="cls-12" d="M319.34,391.84s-.43-.12-1.03-.5c-.3-.19-.64-.44-.99-.77-.17-.17-.35-.32-.51-.56-.07-.12-.14-.27-.1-.44,.03-.18,.2-.31,.35-.34,1.23-.04,1.96,.98,2.09,1.67,.08,.36,.05,.66,.01,.85-.04,.2-.09,.3-.11,.29-.04,0,.12-.44-.05-1.11-.09-.33-.28-.7-.61-.99-.32-.28-.82-.56-1.28-.5-.22,.04-.25,.27-.12,.46,.12,.19,.31,.36,.46,.52,.33,.32,.65,.58,.94,.78,.57,.4,.97,.59,.95,.62Z"/>
        <path class="cls-12" d="M319.04,391.76s-.05-.33,.22-.78c.13-.22,.35-.45,.64-.62,.29-.14,.68-.35,1.11-.12,.23,.14,.21,.47,.09,.63-.11,.17-.26,.29-.4,.38-.28,.19-.55,.31-.79,.4-.48,.16-.79,.16-.79,.14,0-.03,.3-.09,.74-.28,.22-.1,.47-.23,.73-.42,.25-.15,.53-.5,.29-.67-.25-.15-.64-.02-.89,.12-.27,.15-.47,.35-.61,.54-.28,.38-.31,.7-.35,.69Z"/>
        <path class="cls-12" d="M337.03,398.94s-.44-.26-1.21-.52c-.76-.26-1.91-.44-3.11-.16-1.2,.28-2.15,.95-2.71,1.53-.57,.58-.82,1.03-.85,1.01-.01,0,.04-.12,.15-.33,.11-.2,.31-.48,.59-.79,.55-.62,1.52-1.34,2.77-1.63,1.26-.29,2.44-.08,3.21,.23,.39,.15,.68,.32,.88,.44,.19,.13,.29,.21,.28,.22Z"/>
        <path class="cls-12" d="M338.54,391.43c.05,.02-.59,1.54-1.43,3.38-.84,1.84-1.57,3.32-1.63,3.29-.05-.02,.59-1.54,1.43-3.38,.84-1.84,1.57-3.32,1.62-3.29Z"/>
        <path class="cls-12" d="M327.79,398.34c-.02,.05-1.15-.27-2.47-.88-1.32-.61-2.3-1.26-2.27-1.31,.03-.05,1.06,.51,2.36,1.11,1.3,.6,2.4,1.02,2.38,1.08Z"/>
        <path class="cls-12" d="M330.95,399.84c.02,.06-.19,.18-.41,.37-.23,.19-.38,.38-.44,.35-.05-.02,.04-.29,.3-.51,.26-.22,.54-.26,.56-.21Z"/>
        <path class="cls-12" d="M332.85,398.92c.02,.06-.16,.17-.41,.27-.25,.09-.46,.12-.48,.06-.02-.06,.16-.17,.41-.27,.25-.09,.46-.12,.48-.06Z"/>
        <path class="cls-12" d="M334.88,399.05s-.25-.05-.53-.08c-.28-.04-.51,.02-.53-.04-.03-.05,.21-.22,.56-.17,.34,.04,.54,.26,.5,.3Z"/>
        <path class="cls-12" d="M336.24,399.3c0,.06-.14,.1-.3,.09-.16-.01-.28-.07-.28-.13,0-.06,.14-.1,.3-.09,.16,.01,.28,.07,.28,.13Z"/>
      </g>
      <g>
        <g>
          <path class="cls-13" d="M368.55,444.1l-.2-9.53,17.85-.48,.43,13.94-1.11,.1c-4.92,.41-25.04,1.72-28.36,.81-3.7-1.02,11.37-4.84,11.37-4.84Z"/>
          <g class="cls-16">
            <path class="cls-4" d="M380.17,448.06c.21-1.5,1.01-2.91,2.18-3.87s2.63-1.49,4.14-1.41l.14,4.99-6.45,.29Z"/>
          </g>
        </g>
        <g class="cls-15">
          <path class="cls-4" d="M361.19,446.23s-5.28,1.68-4.59,2.54,21.07,.3,30.04-.74l-.04-.4-23.77,.86s-.6-2.24-1.64-2.26Z"/>
        </g>
        <path class="cls-12" d="M386.88,447.61s-.11,.02-.31,.04c-.26,.02-.55,.05-.88,.08-.88,.06-1.96,.14-3.24,.23-2.74,.17-6.52,.36-10.71,.48-4.19,.12-7.98,.14-10.72,.12-1.28-.02-2.37-.03-3.25-.05-.33-.01-.62-.02-.88-.03-.2,0-.31-.02-.31-.02,0,0,.11-.01,.31-.02,.27,0,.56,0,.88-.01,.88,0,1.97-.01,3.25-.02,2.74-.02,6.53-.07,10.71-.19,4.18-.12,7.97-.29,10.71-.42,1.28-.06,2.36-.12,3.24-.16,.33-.01,.62-.03,.88-.04,.2,0,.31,0,.31,0Z"/>
        <path class="cls-12" d="M362.85,448.76c-.07,.01-.14-.76-.65-1.53-.5-.78-1.18-1.16-1.14-1.21,.01-.05,.79,.26,1.32,1.09,.54,.83,.52,1.66,.47,1.65Z"/>
        <path class="cls-12" d="M368.04,445.95s-.31-.27-.58-.67-.45-.76-.4-.79c.05-.03,.31,.27,.58,.67,.27,.4,.45,.76,.4,.79Z"/>
        <path class="cls-12" d="M369.46,445.14s-.33-.14-.64-.4-.54-.52-.5-.57c.04-.05,.33,.14,.64,.4,.32,.27,.54,.52,.5,.57Z"/>
        <path class="cls-12" d="M370.33,443.43c0,.06-.41,.12-.93,.14s-.93-.01-.94-.07,.41-.12,.93-.14c.51-.02,.93,.01,.94,.07Z"/>
        <path class="cls-12" d="M370.61,442.23c.02,.05-.43,.27-1.03,.33-.6,.06-1.09-.06-1.08-.11,0-.06,.48-.04,1.05-.1,.57-.06,1.03-.17,1.05-.11Z"/>
        <path class="cls-12" d="M367.39,444.4s-.44,.09-1.15,.02c-.35-.03-.77-.11-1.23-.24-.23-.07-.46-.13-.71-.27-.12-.07-.24-.18-.29-.35-.05-.17,.03-.37,.16-.46,1.08-.6,2.2-.01,2.62,.54,.23,.28,.34,.56,.4,.76,.05,.2,.05,.31,.04,.31-.04,.02-.09-.45-.55-.96-.23-.25-.57-.49-1-.61-.41-.11-.99-.12-1.36,.13-.18,.14-.1,.35,.1,.47,.19,.12,.44,.18,.65,.26,.44,.14,.85,.22,1.19,.27,.69,.1,1.13,.09,1.13,.13Z"/>
        <path class="cls-12" d="M367.1,444.47s-.19-.27-.15-.79c.02-.25,.11-.56,.29-.85,.2-.26,.45-.62,.94-.61,.27,.03,.4,.33,.37,.52-.02,.2-.1,.38-.18,.52-.16,.29-.35,.53-.52,.71-.35,.36-.63,.5-.64,.48-.02-.03,.22-.21,.53-.58,.15-.19,.32-.42,.46-.7,.15-.25,.25-.68-.04-.73-.29-.02-.57,.27-.74,.51-.17,.25-.27,.52-.3,.76-.07,.47,.04,.76,0,.77Z"/>
        <path class="cls-12" d="M386.39,442.74s-.51-.04-1.32,.08c-.8,.11-1.9,.47-2.85,1.27-.95,.8-1.48,1.82-1.73,2.59-.25,.77-.26,1.29-.3,1.28-.01,0-.02-.13-.01-.36,.01-.23,.06-.57,.17-.97,.21-.8,.75-1.88,1.73-2.71,.99-.83,2.14-1.18,2.97-1.25,.42-.04,.75-.03,.98,0,.23,.03,.36,.06,.35,.07Z"/>
        <path class="cls-12" d="M384.33,435.36c.06,0,.17,1.64,.26,3.66,.08,2.03,.1,3.67,.04,3.67-.06,0-.17-1.64-.26-3.66-.08-2.03-.1-3.67-.04-3.67Z"/>
        <path class="cls-12" d="M377.87,446.38c0,.06-1.15,.28-2.6,.33-1.45,.06-2.62-.08-2.62-.14,0-.06,1.17-.02,2.61-.08,1.44-.05,2.6-.18,2.61-.11Z"/>
        <path class="cls-12" d="M381.37,446.28s-.09,.25-.2,.52c-.12,.27-.17,.51-.23,.51-.06,0-.1-.28,.03-.59,.13-.31,.36-.48,.4-.44Z"/>
        <path class="cls-12" d="M382.64,444.6s-.07,.23-.25,.42c-.18,.19-.36,.32-.4,.27-.04-.04,.07-.23,.25-.42,.18-.19,.36-.32,.4-.27Z"/>
        <path class="cls-12" d="M384.51,443.8c-.01,.06-.25,.07-.51,.17-.26,.09-.45,.24-.49,.2-.05-.03,.09-.29,.42-.41,.32-.12,.6-.02,.58,.04Z"/>
        <path class="cls-12" d="M385.84,443.41c.02,.05-.08,.15-.22,.21-.15,.06-.28,.07-.31,.01s.08-.15,.22-.21c.14-.06,.28-.07,.31-.01Z"/>
      </g>
      <g>
        <path class="cls-12" d="M382.59,268.86c-.07-.03,.21-1,.67-2.57,.24-.79,.52-1.72,.88-2.75,.18-.51,.38-1.05,.61-1.6,.12-.3,.28-.55,.36-.8,.08-.25,.11-.53,.1-.82-.02-.58-.16-1.18-.27-1.76-.11-.57-.21-1.13-.31-1.67-.18-1.02-.34-1.97-.49-2.84-.27-1.62-.39-2.63-.32-2.64,.08-.01,.34,.97,.7,2.57,.19,.86,.39,1.81,.61,2.82,.11,.54,.23,1.09,.34,1.67,.11,.58,.27,1.17,.29,1.85,0,.33-.02,.68-.13,1.01-.11,.33-.28,.59-.38,.84-.23,.54-.44,1.06-.63,1.57-.36,.97-.69,1.87-.99,2.7-.56,1.54-.97,2.48-1.04,2.45Z"/>
        <g class="cls-14">
          <path d="M422.17,252.72c.7,10.62,1.77,22.55,1.97,33.19,1.63-.74,5.52-3.55,5.52-3.94,0,0-5.07-17.81-7.49-29.25Z"/>
        </g>
      </g>
      <g>
        <g>
          <path class="cls-12" d="M439.87,315.45s-73.22-15.34-80.31-11.98c-7.09,3.36-39.78,84.16-39.78,84.16l22.05,8.1,29.93-67.05s53.92,20.34,62.88,18.48c8.96-1.86,5.23-31.71,5.23-31.71Z"/>
          <path class="cls-12" d="M407.15,319.76c-1.12,.37-43.47,17.78-46.46,23.38-2.98,5.6,4.35,98.53,4.35,98.53h24.09l-1.49-82.59,47.01-11.91-27.5-27.4Z"/>
          <path class="cls-11" d="M434.89,347.35s-.24-.01-.69-.08c-.51-.09-1.16-.21-1.97-.35-1.71-.32-4.18-.8-7.22-1.45-6.08-1.28-14.45-3.22-23.57-5.84-4.56-1.32-8.86-2.7-12.75-4.03-3.87-1.38-7.35-2.67-10.21-3.89-1.44-.58-2.72-1.16-3.85-1.67-1.13-.5-2.09-.95-2.87-1.35-.73-.37-1.33-.67-1.79-.9-.41-.21-.61-.33-.61-.35,0-.02,.23,.07,.65,.25,.47,.21,1.08,.48,1.83,.81,.79,.36,1.76,.79,2.9,1.26,1.13,.48,2.42,1.04,3.87,1.59,2.87,1.17,6.35,2.42,10.22,3.77,3.89,1.31,8.19,2.67,12.74,3.98,9.1,2.61,17.45,4.61,23.5,5.99,2.98,.67,5.41,1.22,7.17,1.62,.8,.18,1.45,.33,1.95,.45,.44,.11,.67,.18,.67,.19Z"/>
          <path class="cls-11" d="M360.7,364.49s-.11-.49-.22-1.39c-.11-1.01-.24-2.29-.4-3.81-.15-1.65-.33-3.56-.53-5.66-.17-2.12-.47-4.51-.01-7.01,.45-2.52,1.92-4.61,3.52-6.06,1.61-1.48,3.35-2.42,4.82-3.1,1.48-.68,2.72-1.11,3.58-1.41,.86-.29,1.34-.43,1.35-.39,.04,.1-1.86,.76-4.76,2.16-1.43,.72-3.11,1.67-4.64,3.12-1.53,1.43-2.9,3.4-3.32,5.79-.44,2.38-.17,4.73-.02,6.86,.15,2.1,.29,4.02,.41,5.67,.09,1.53,.17,2.81,.23,3.83,.04,.9,.05,1.41,.01,1.41Z"/>
          <path class="cls-12" d="M381.83,356.51c.06-.14,1.39,.31,2.96,1,1.58,.69,2.8,1.37,2.74,1.51-.06,.14-1.39-.31-2.96-1-1.57-.69-2.8-1.37-2.74-1.51Z"/>
          <path class="cls-12" d="M383.95,353.96c.15-.06,.82,1.27,1.92,2.72,1.09,1.46,2.19,2.46,2.09,2.59-.08,.12-1.39-.73-2.53-2.26-1.15-1.51-1.61-3.01-1.48-3.05Z"/>
        </g>
        <path class="cls-12" d="M393.2,357.78s-.07,.2-.37,.38c-.29,.19-.8,.32-1.4,.33-.59,.03-1.3-.06-2,.05-.72,.09-1.2,.67-1.2,1.53-.03,3.53-.14,6.44-.3,6.43-.15,0-.28-2.87-.25-6.46,.02-.46,.12-.98,.45-1.37,.32-.4,.8-.58,1.21-.64,.83-.1,1.52,.04,2.09,.06,1.16,.12,1.71-.38,1.77-.32Z"/>
      </g>
      <g>
        <path class="cls-12" d="M388.71,187.72c-3.66,1.18-7.91,3.62-5.8,15.07,.93,5.04,2.1,10.18,5.48,14.03,.51,.59,1.19,1.19,1.96,1.08,.55-.08,.98-.51,1.35-.92,3.84-4.18,7.11-9.13,8.15-14.71,1.04-5.59-.52-11.88-4.92-15.48"/>
        <g>
          <g>
            <path class="cls-6" d="M395.73,237.47c-.12-5.27-.35-10.93-.35-10.93,0,0-8.02-1.01-8.36-9.2-.35-8.18-.43-22.52-.43-22.52l15.65-11.6,11,15.13,.27,38.84c.03,4.94-3.96,8.96-8.89,8.96h0c-4.83,0-8.78-3.86-8.89-8.69Z"/>
            <path class="cls-2" d="M395.39,226.54s5.36,.15,10.62-3.48c0,0-2.5,5.96-10.48,5.48l-.14-2.01Z"/>
            <path class="cls-2" d="M396.11,217.01c-.14-.31-.1-.69,.09-.96,.2-.27,.55-.43,.88-.4,.05-.75,.78-1.37,1.53-1.34,.75,.03,1.42,.65,1.55,1.39s-.25,1.53-.87,1.94c-.63,.41-1.47,.45-2.16,.16-.54-.23-1.02-.7-1.09-1.29"/>
            <g>
              <g>
                <g>
                  <path class="cls-12" d="M388.24,204.75c-.02,.59,.46,1.1,1.08,1.13,.62,.03,1.14-.42,1.16-1.01s-.46-1.1-1.08-1.13c-.62-.03-1.14,.42-1.16,1.01Z"/>
                  <path class="cls-12" d="M388.3,203.83c.14,.15,.99-.48,2.2-.48,1.21-.01,2.09,.61,2.23,.46,.06-.07-.08-.33-.46-.61-.38-.28-1.03-.55-1.78-.55-.75,0-1.39,.28-1.75,.57-.37,.28-.5,.55-.43,.61Z"/>
                </g>
                <g>
                  <path class="cls-12" d="M400.38,204.87c-.02,.59,.46,1.1,1.08,1.13,.62,.03,1.14-.42,1.16-1.01s-.46-1.1-1.08-1.13c-.62-.03-1.14,.42-1.16,1.01Z"/>
                  <path class="cls-12" d="M400.18,204.06c.14,.15,.99-.48,2.2-.48,1.21-.01,2.09,.61,2.23,.46,.06-.07-.08-.33-.46-.61-.38-.28-1.03-.55-1.78-.55-.75,0-1.39,.28-1.75,.57-.37,.29-.5,.55-.43,.62Z"/>
                </g>
                <path class="cls-12" d="M395.79,213.02c0-.07-.75-.2-1.96-.35-.31-.03-.6-.09-.65-.3-.07-.22,.06-.56,.21-.91,.29-.75,.59-1.53,.91-2.35,1.27-3.35,2.18-6.1,2.05-6.15-.14-.05-1.27,2.62-2.54,5.97-.3,.82-.6,1.61-.87,2.36-.12,.35-.32,.75-.16,1.21,.08,.23,.31,.4,.51,.45,.2,.06,.37,.06,.52,.07,1.22,.07,1.98,.07,1.99,0Z"/>
                <path class="cls-12" d="M399.35,213.86c-.2-.01-.2,1.3-1.32,2.23-1.12,.93-2.52,.79-2.53,.97-.02,.08,.31,.26,.9,.27,.58,.02,1.42-.17,2.11-.74,.68-.57,.98-1.33,1.02-1.87,.05-.55-.1-.87-.19-.87Z"/>
              </g>
              <path class="cls-12" d="M399.63,201.36c.12,.33,1.33,.17,2.74,.34,1.42,.14,2.57,.56,2.75,.26,.08-.14-.11-.45-.58-.77-.46-.32-1.19-.62-2.04-.71-.85-.09-1.63,.04-2.15,.25-.52,.21-.78,.47-.73,.62Z"/>
              <path class="cls-12" d="M388.74,200.33c.21,.27,1.05,0,2.05-.02,1-.05,1.85,.18,2.04-.1,.09-.14-.05-.41-.42-.67-.36-.26-.98-.47-1.66-.45-.69,.02-1.28,.27-1.63,.55-.35,.28-.47,.56-.38,.7Z"/>
            </g>
          </g>
          <path class="cls-12" d="M405.98,200.7c1.46-.04,2.87-.47,3.98-1.42,.72,1.93,.71,4.07,1.37,6.02,.66,1.95,1.32,20.77,3.36,20.46,1.87-.28,4.11-19.16,4.59-21,1.32-5.06-.33-10.64-3.7-14.65-3.99-4.75-10.65-8.81-16.85-8.37-2.75,.19-5.52,1-7.68,2.7,0,0-3.34,2.58-3.06,5.87,.39,4.58,7.07,7.53,11.67,7.39l.65,.64c1.52,1.48,3.55,2.41,5.67,2.35Z"/>
          <path class="cls-12" d="M386.55,199.2c1.17-.89,1.9-2.25,2.28-3.67,.39-1.41,.46-2.89,.53-4.36,.02-.42-.04-.97-.45-1.08-.4-.11-.73,.3-.92,.66-1.43,2.69-1.95,5.86-1.45,8.86,.09-.08-.27,.23-.19,.15"/>
        </g>
      </g>
    </g>
  </g>
  <g id="Character_2" data-name="Character 2">
    <g>
      <g>
        <g>
          <path class="cls-13" d="M273.07,445.54l.06-9.8-18.36-.22-.23,14.34,1.14,.09c5.06,.34,25.77,1.39,29.17,.4,3.79-1.1-11.77-4.8-11.77-4.8Z"/>
          <g class="cls-15">
            <path d="M261.19,449.79c-.24-1.54-1.08-2.97-2.3-3.94-1.22-.97-2.72-1.49-4.28-1.39l-.07,5.13,6.64,.2Z"/>
          </g>
        </g>
        <g class="cls-15">
          <path d="M280.67,447.62s5.45,1.64,4.76,2.54-21.66,.62-30.9-.3l.04-.41,24.45,.52s.58-2.31,1.65-2.35Z"/>
        </g>
        <path class="cls-12" d="M254.28,449.43s.11,.02,.32,.04c.27,.02,.57,.04,.91,.07,.91,.05,2.02,.11,3.34,.19,2.82,.14,6.71,.27,11.02,.33,4.3,.06,8.2,.02,11.02-.04,1.32-.04,2.43-.07,3.34-.1,.34-.02,.64-.03,.91-.04,.21-.01,.32-.02,.32-.03s-.11-.01-.32-.02h-.91c-.91,0-2.02,.02-3.34,.02-2.82,.02-6.72,.03-11.02-.03-4.3-.06-8.2-.17-11.01-.27-1.32-.05-2.43-.08-3.34-.12-.34,0-.63-.02-.91-.02-.21,0-.32,0-.32,0Z"/>
        <path class="cls-12" d="M279.01,450.25c.07,0,.13-.79,.64-1.58,.5-.81,1.19-1.21,1.15-1.26-.01-.06-.8,.28-1.34,1.14-.55,.86-.51,1.72-.46,1.7Z"/>
        <path class="cls-12" d="M273.63,447.43c.05,.03,.32-.28,.59-.7,.27-.42,.45-.79,.4-.82-.05-.03-.32,.28-.59,.7-.27,.42-.45,.79-.4,.82Z"/>
        <path class="cls-12" d="M272.15,446.63s.33-.14,.65-.42,.55-.55,.51-.59c-.04-.05-.33,.14-.65,.42-.32,.28-.55,.54-.51,.59Z"/>
        <path class="cls-12" d="M271.23,444.88c0,.06,.43,.12,.96,.13,.53,.01,.96-.03,.96-.09,0-.06-.43-.12-.96-.13-.53-.01-.96,.03-.96,.09Z"/>
        <path class="cls-12" d="M270.93,443.65c-.02,.05,.44,.27,1.07,.33,.62,.06,1.12-.08,1.11-.13,0-.06-.5-.03-1.09-.09-.59-.05-1.06-.16-1.08-.1Z"/>
        <path class="cls-12" d="M274.27,445.84s.45,.09,1.18,0c.36-.04,.8-.12,1.26-.26,.23-.08,.47-.14,.72-.29,.12-.08,.25-.18,.3-.36,.05-.18-.04-.38-.17-.47-1.12-.6-2.26,.02-2.68,.6-.23,.3-.34,.58-.39,.78-.05,.2-.05,.32-.03,.32,.04,.02,.09-.46,.55-1,.23-.26,.57-.52,1.02-.64,.42-.12,1.01-.14,1.4,.11,.19,.14,.11,.36-.1,.48-.2,.12-.45,.2-.67,.27-.45,.15-.87,.24-1.22,.3-.71,.12-1.16,.11-1.16,.15Z"/>
        <path class="cls-12" d="M274.58,445.9s.2-.29,.15-.82c-.02-.26-.12-.57-.31-.87-.2-.26-.47-.63-.98-.61-.27,.03-.41,.34-.37,.54,.02,.21,.11,.39,.19,.53,.17,.3,.37,.54,.55,.72,.36,.37,.66,.51,.67,.49,.02-.03-.23-.21-.55-.59-.16-.19-.33-.43-.48-.71-.16-.25-.26-.7,.03-.75,.3-.02,.59,.27,.77,.51,.18,.26,.28,.53,.32,.77,.09,.48-.03,.79,.01,.8Z"/>
        <path class="cls-12" d="M254.72,444.41s.53-.04,1.35,.07c.82,.1,1.96,.45,2.94,1.26,.98,.81,1.55,1.85,1.82,2.64,.27,.79,.29,1.32,.33,1.32,.01,0,.02-.13,0-.37-.02-.24-.07-.58-.19-.99-.23-.82-.8-1.92-1.83-2.76-1.03-.84-2.22-1.18-3.07-1.24-.43-.04-.77-.02-1.01,.01-.24,.03-.36,.07-.36,.08Z"/>
        <path class="cls-12" d="M256.72,436.79c-.06,0-.15,1.69-.21,3.77-.05,2.08-.05,3.77,.02,3.78,.06,0,.15-1.69,.21-3.77,.05-2.08,.04-3.77-.02-3.78Z"/>
        <path class="cls-12" d="M263.53,448.03c0,.06,1.18,.27,2.68,.3,1.49,.04,2.69-.12,2.69-.18,0-.07-1.2,0-2.68-.04-1.48-.03-2.67-.14-2.68-.08Z"/>
        <path class="cls-12" d="M259.93,447.98s.1,.26,.21,.53c.12,.27,.18,.52,.25,.52,.06,0,.1-.29-.04-.61-.14-.32-.38-.49-.42-.44Z"/>
        <path class="cls-12" d="M258.59,446.27s.07,.23,.26,.43,.38,.32,.42,.28c.04-.04-.07-.23-.26-.43-.19-.19-.37-.32-.42-.28Z"/>
        <path class="cls-12" d="M256.66,445.48c.01,.06,.26,.06,.52,.16,.27,.09,.46,.24,.51,.2,.05-.03-.1-.3-.44-.41-.33-.12-.62,0-.6,.05Z"/>
        <path class="cls-12" d="M255.28,445.1c-.02,.06,.08,.15,.23,.21,.15,.06,.29,.06,.32,0s-.08-.15-.23-.21c-.15-.06-.29-.06-.32,0Z"/>
      </g>
      <g>
        <g>
          <path class="cls-13" d="M201.76,445.54l-.06-9.8,18.36-.22,.23,14.34-1.14,.09c-5.06,.34-25.77,1.39-29.17,.4-3.79-1.1,11.77-4.8,11.77-4.8Z"/>
          <g class="cls-15">
            <path d="M213.64,449.79c.24-1.54,1.08-2.97,2.3-3.94,1.22-.97,2.72-1.49,4.28-1.39l.07,5.13-6.64,.2Z"/>
          </g>
        </g>
        <g class="cls-15">
          <path d="M194.16,447.62s-5.45,1.64-4.76,2.54c.69,.89,21.66,.62,30.9-.3l-.04-.41-24.45,.52s-.58-2.31-1.65-2.35Z"/>
        </g>
        <path class="cls-12" d="M220.55,449.43s-.11,.02-.32,.04c-.27,.02-.57,.04-.91,.07-.91,.05-2.02,.11-3.34,.19-2.82,.14-6.71,.27-11.02,.33-4.3,.06-8.2,.02-11.02-.04-1.32-.04-2.43-.07-3.34-.1-.34-.02-.63-.03-.91-.04-.21-.01-.32-.02-.32-.03s.11-.01,.32-.02h.91c.91,0,2.02,.02,3.34,.02,2.82,.02,6.72,.03,11.02-.03,4.3-.06,8.2-.17,11.01-.27,1.32-.05,2.43-.08,3.34-.12,.34,0,.63-.02,.91-.02,.21,0,.32,0,.32,0Z"/>
        <path class="cls-12" d="M195.82,450.25c-.07,0-.13-.79-.64-1.58-.5-.81-1.19-1.21-1.15-1.26,.01-.06,.8,.28,1.34,1.14,.55,.86,.51,1.72,.46,1.7Z"/>
        <path class="cls-12" d="M201.2,447.43c-.05,.03-.31-.28-.59-.7-.27-.42-.45-.79-.4-.82,.05-.03,.32,.28,.59,.7,.27,.42,.45,.79,.4,.82Z"/>
        <path class="cls-12" d="M202.68,446.63s-.33-.14-.65-.42-.55-.55-.51-.59,.33,.14,.65,.42c.32,.28,.55,.54,.51,.59Z"/>
        <path class="cls-12" d="M203.6,444.88c0,.06-.43,.12-.96,.13-.53,.01-.96-.03-.96-.09,0-.06,.43-.12,.96-.13,.53-.01,.96,.03,.96,.09Z"/>
        <path class="cls-12" d="M203.9,443.65c.02,.05-.44,.27-1.07,.33-.62,.06-1.12-.08-1.11-.13,0-.06,.5-.03,1.09-.09,.59-.05,1.07-.16,1.09-.1Z"/>
        <path class="cls-12" d="M200.56,445.84s-.45,.09-1.18,0c-.36-.04-.79-.12-1.26-.26-.23-.08-.47-.14-.72-.29-.12-.08-.25-.18-.3-.36-.05-.18,.04-.38,.17-.47,1.12-.6,2.26,.02,2.68,.6,.23,.3,.34,.58,.4,.78,.05,.2,.05,.32,.04,.32-.04,.02-.09-.46-.55-1-.23-.26-.57-.52-1.02-.64-.42-.12-1.01-.14-1.4,.11-.19,.14-.11,.36,.1,.48,.2,.12,.45,.2,.67,.27,.45,.15,.87,.24,1.22,.3,.71,.12,1.16,.11,1.16,.15Z"/>
        <path class="cls-12" d="M200.25,445.9s-.2-.29-.15-.82c.02-.26,.12-.57,.31-.87,.21-.26,.47-.63,.98-.61,.27,.03,.41,.34,.37,.54-.02,.21-.11,.39-.19,.53-.17,.3-.37,.54-.55,.72-.37,.37-.66,.51-.67,.49-.02-.03,.23-.21,.55-.59,.16-.19,.33-.43,.49-.71,.16-.25,.26-.7-.03-.75-.3-.02-.59,.27-.77,.51-.18,.26-.28,.53-.32,.77-.08,.48,.03,.79,0,.8Z"/>
        <path class="cls-12" d="M220.11,444.41s-.53-.04-1.35,.07c-.82,.1-1.96,.45-2.94,1.26-.98,.81-1.55,1.85-1.82,2.64-.27,.79-.29,1.32-.33,1.32-.01,0-.02-.13,0-.37,.02-.24,.07-.58,.19-.99,.23-.82,.8-1.92,1.83-2.76,1.03-.84,2.22-1.18,3.07-1.24,.43-.04,.77-.02,1.01,.01,.23,.03,.36,.07,.36,.08Z"/>
        <path class="cls-12" d="M218.11,436.79c.06,0,.15,1.69,.21,3.77,.05,2.08,.05,3.77-.01,3.78s-.15-1.69-.21-3.77c-.05-2.08-.05-3.77,.01-3.78Z"/>
        <path class="cls-12" d="M211.3,448.03c0,.06-1.19,.27-2.68,.3-1.49,.04-2.69-.12-2.69-.18,0-.07,1.21,0,2.68-.04,1.48-.03,2.67-.14,2.68-.08Z"/>
        <path class="cls-12" d="M214.9,447.98s-.1,.26-.21,.53c-.12,.27-.18,.52-.25,.52-.06,0-.1-.29,.04-.61,.14-.32,.38-.49,.42-.44Z"/>
        <path class="cls-12" d="M216.24,446.27s-.07,.23-.26,.43-.38,.32-.42,.28c-.04-.04,.07-.23,.26-.43,.19-.19,.38-.32,.42-.28Z"/>
        <path class="cls-12" d="M218.17,445.48c-.01,.06-.26,.06-.52,.16-.27,.09-.46,.24-.51,.2-.05-.03,.1-.3,.44-.41,.33-.12,.62,0,.6,.05Z"/>
        <path class="cls-12" d="M219.55,445.1c.02,.06-.08,.15-.23,.21-.15,.06-.29,.06-.32,0s.08-.15,.23-.21c.15-.06,.29-.06,.32,0Z"/>
      </g>
      <g>
        <polygon class="cls-12" points="285.46 257.78 278.42 441.82 249.82 442.42 254.57 282.96 222.41 443.64 195.22 443.64 230.25 258.15 285.46 257.78"/>
        <path class="cls-12" d="M261.16,264.48c.07,.01-.06,1.17-.33,3.03-.27,1.86-.67,4.43-1.15,7.26-.25,1.41-.42,2.78-.82,4-.38,1.22-1.09,2.22-1.87,2.81-.77,.61-1.55,.85-2.08,.93-.54,.07-.83,.01-.83-.01-.04-.1,1.27,.02,2.68-1.19,.7-.58,1.31-1.51,1.65-2.67,.36-1.16,.51-2.52,.76-3.94,.48-2.83,.93-5.39,1.29-7.24,.36-1.85,.61-2.99,.68-2.97Z"/>
        <path class="cls-12" d="M255.21,265.36c.06,.05-.17,.34-.04,.83,.06,.23,.23,.5,.48,.61,.24,.13,.59,.06,.85-.17,.26-.23,.37-.57,.28-.82-.09-.27-.33-.46-.55-.55-.46-.2-.79,0-.82-.07-.06-.03,.26-.42,.93-.27,.31,.08,.69,.29,.88,.73,.2,.45,.01,1.03-.38,1.36-.38,.35-.98,.45-1.4,.2-.42-.24-.58-.65-.61-.96-.06-.68,.37-.95,.39-.89Z"/>
        <path class="cls-12" d="M239.85,267.98c-.12,.04-.54-1.13-.38-2.62,.15-1.49,.81-2.55,.92-2.48,.13,.06-.28,1.14-.42,2.54-.16,1.39,.02,2.54-.13,2.57Z"/>
        <path class="cls-12" d="M243.29,267.76c-.13,.04-.52-1.17-.41-2.7,.1-1.54,.66-2.67,.78-2.62,.14,.05-.18,1.2-.28,2.66-.11,1.45,.05,2.64-.09,2.67Z"/>
        <path class="cls-12" d="M272.85,268.52c-.14-.04,.09-1.26,.16-2.76,.08-1.51-.02-2.74,.12-2.77,.13-.03,.46,1.22,.38,2.79-.08,1.57-.54,2.78-.67,2.74Z"/>
        <path class="cls-12" d="M276.58,268.31c-.14-.06,.31-1.26,.41-2.81,.12-1.55-.16-2.8-.01-2.84,.12-.05,.64,1.22,.52,2.87-.11,1.65-.8,2.84-.91,2.77Z"/>
      </g>
      <g>
        <g>
          <g>
            <path class="cls-6" d="M245.62,181.21l17.66-1.41c.11-2.06-.04-10.04-.04-10.04,0,0,7.35-1.14,7.44-8.49,.09-7.34-1.18-24.21-1.18-24.21h0c-8.5-3.65-18.32-2.42-25.65,3.22l-1.09,.84,2.87,40.08Z"/>
            <path class="cls-2" d="M263.25,169.66s-4.64,.38-9.57-2.72c0,0,2.26,5.29,9.59,4.62l-.02-1.9Z"/>
          </g>
          <g>
            <path class="cls-6" d="M243.66,148.74c-.12-.05-5.05-1.49-4.89,3.53,.16,5.02,5.17,3.82,5.17,3.68,0-.14-.29-7.21-.29-7.21Z"/>
            <path class="cls-2" d="M242.35,154.1s-.09,.06-.23,.14c-.14,.07-.39,.12-.65,.03-.54-.18-1.01-1.01-1.06-1.91-.03-.46,.05-.9,.21-1.26,.14-.37,.37-.64,.64-.69,.26-.07,.46,.08,.52,.22,.07,.14,.04,.24,.07,.25,.01,.01,.1-.09,.06-.29-.02-.1-.09-.22-.21-.31-.12-.09-.3-.14-.49-.11-.39,.04-.72,.41-.89,.81-.19,.4-.29,.9-.26,1.41,.06,1.01,.61,1.94,1.35,2.13,.36,.08,.65-.04,.8-.16,.15-.13,.17-.24,.15-.25Z"/>
          </g>
          <g>
            <g>
              <g>
                <path class="cls-12" d="M267.87,148.58c.02,.55-.43,1.03-1.01,1.06-.58,.03-1.06-.39-1.08-.95s.43-1.03,1.01-1.06c.58-.03,1.06,.39,1.08,.95Z"/>
                <path class="cls-12" d="M268.1,147.4c-.13,.14-.92-.45-2.05-.45-1.13-.01-1.96,.57-2.08,.43-.06-.06,.07-.31,.43-.57,.36-.26,.96-.52,1.66-.51,.7,0,1.29,.26,1.63,.53,.35,.27,.46,.52,.4,.58Z"/>
              </g>
              <g>
                <path class="cls-12" d="M256.82,148.85c.02,.55-.43,1.03-1.01,1.06-.58,.03-1.06-.39-1.08-.95-.02-.55,.43-1.03,1.01-1.06,.58-.03,1.06,.39,1.08,.95Z"/>
                <path class="cls-12" d="M257.01,147.61c-.13,.14-.93-.45-2.05-.45-1.13-.01-1.96,.57-2.08,.43-.06-.06,.07-.31,.43-.57,.35-.26,.96-.52,1.66-.51,.7,0,1.29,.26,1.63,.53,.35,.27,.47,.52,.4,.58Z"/>
              </g>
              <path class="cls-12" d="M261.11,155.98c0-.06,.7-.18,1.83-.33,.29-.03,.56-.09,.61-.28,.07-.21-.05-.52-.19-.85-.27-.7-.55-1.43-.85-2.2-1.18-3.12-2.04-5.69-1.91-5.74,.13-.05,1.19,2.45,2.37,5.57,.29,.77,.56,1.51,.82,2.21,.11,.33,.3,.7,.15,1.13-.08,.21-.29,.37-.47,.42-.18,.06-.35,.06-.49,.07-1.15,.06-1.86,.07-1.86,0Z"/>
              <path class="cls-12" d="M257.78,156.76c.18-.01,.19,1.21,1.23,2.08,1.05,.87,2.35,.74,2.36,.91,.02,.08-.29,.24-.84,.25-.54,.02-1.33-.15-1.97-.69-.64-.53-.91-1.24-.96-1.75-.05-.51,.09-.82,.17-.81Z"/>
            </g>
            <path class="cls-12" d="M257.3,143.19c-.11,.31-1.24,.16-2.56,.32-1.33,.13-2.4,.52-2.57,.24-.08-.13,.11-.42,.54-.72,.43-.3,1.11-.58,1.91-.67,.79-.09,1.52,.04,2.01,.24,.48,.2,.73,.44,.68,.58Z"/>
            <path class="cls-12" d="M267.69,144.14c-.2,.26-.98,0-1.91-.02-.93-.04-1.73,.17-1.91-.1-.08-.13,.05-.39,.39-.63,.34-.24,.91-.44,1.55-.42,.64,.02,1.2,.25,1.52,.51,.33,.26,.44,.53,.35,.65Z"/>
          </g>
        </g>
        <path class="cls-12" d="M273.07,132.43c.08-.91-.26-1.89-1-2.42s-1.89-.5-2.49,.19c.35-1.23-.66-2.64-1.93-2.72-1.2-.08-2.22,.83-3.38,1.15-1.13,.31-2.34,.04-3.43-.4-1.09-.44-2.1-1.04-3.2-1.44-2.29-.84-4.92-.73-7.14,.29-2.22,1.02-4.01,2.94-4.87,5.23-1.61-.5-3.43,.31-4.42,1.67-.99,1.36-1.24,3.15-1.05,4.82,.13,1.13,.46,2.22,.84,3.3,0,.09,0,.19,0,.28,.08,4.04,.53,8.78,2.26,8.81,3,.05,2.29-5.61,2.29-5.61,3.69-1.42,2.31-6.95,3.23-7.78,.92-.84,2.85-2.78,10.57,1.16,3,1.53,6.98,1.48,9.16,.99,.06-.01,.13-.02,.19-.04,.01,0,.03,0,.05,0,.02,0,.04-.02,.06-.03,.69-.18,1.36-.45,1.98-.84,.7-.44,1.33-1.04,1.63-1.81,.3-.77,.18-1.74-.42-2.3,.57-.72,1.01-1.56,1.09-2.47Z"/>
      </g>
      <g>
        <g>
          <path class="cls-13" d="M237.13,178.45c2.48-.47,4.88-1.37,7.79-1.49h0c6.27,1.94,12.55,1.94,18.83,.01,.76,.1,1.83,.2,3.16,.35,8.18,.97,11.32,2.69,17.19,8.46l-.64,33.1s1.97,37.66,1.83,43.74h-55.88l-.04-25.54v-6.95s-18.38,6.68-18.38,6.68l1.68-9.65s8.24-31.99,9.52-36.3c1.56-5.24,7.17-10.92,14.96-12.41Z"/>
          <path class="cls-13" d="M219.39,227.71l27.54-3.91,5.24,9.38-25.6,11.54c-1.43,.64-2.98,.98-4.54,.98h0c-4.48,0-8.52-2.71-10.23-6.86l-.83-2.02,8.42-9.11Z"/>
          <path class="cls-6" d="M271.75,219.29l-.6-.45c-3.1-2.32-7.03-3.23-10.84-2.51h0c-3.1,.59-6,1.96-8.44,3.96l-4.72,3.88,5.02,8.99,3.41-4.78s3.19,4.32,3.76,3.87,1.25-1.82,1.25-1.82l-2.28-3.19,5.46,1.14,7.97-3.64-3.41-4.32,3.41,1.14v-2.28h0Z"/>
          <path class="cls-13" d="M275.67,179.43s7.78,2.65,11.05,10.14c2.13,4.88,5.27,28.39,5.27,28.39l3.95,7.62c.95,1.83,1.44,3.86,1.44,5.92v1.16c0,2.96-1.02,5.82-2.88,8.11h0c-2.19,2.69-5.38,4.38-8.83,4.69-3.95,.35-8.72,.51-9.74-.66-1.8-2.05-4.5-7.58-4.5-7.58l11.51-6.11-4.95-9.18-2.32-42.51Z"/>
          <path class="cls-12" d="M228.49,243.85s.15-.1,.45-.25c.34-.17,.78-.38,1.32-.64,1.21-.57,2.88-1.35,4.94-2.31,4.27-1.95,10.16-4.64,16.88-7.7l-.11,.35c-1.04-1.87-2.12-3.8-3.23-5.78-.69-1.23-1.36-2.45-2.01-3.6l.24,.13c-7.97,.78-15.04,1.48-20.18,1.98-2.5,.22-4.53,.4-6,.54-.66,.05-1.2,.09-1.62,.12-.37,.02-.56,.03-.57,.01s.19-.05,.56-.1c.42-.05,.95-.12,1.61-.21,1.46-.17,3.49-.4,5.98-.69,5.14-.55,12.19-1.3,20.16-2.15l.16-.02,.08,.14c.64,1.15,1.32,2.37,2.01,3.6,1.1,1.98,2.18,3.91,3.22,5.78l.13,.24-.25,.11c-6.74,3-12.66,5.63-16.95,7.54-2.09,.91-3.78,1.64-5,2.18-.55,.23-1,.42-1.35,.56-.31,.12-.47,.18-.48,.17Z"/>
          <path class="cls-12" d="M233.38,224.99c-.14,0-.25-4.92-.25-11s.11-11,.25-11,.25,4.92,.25,11-.11,11-.25,11Z"/>
          <path class="cls-12" d="M280.78,232.34s.29-.09,.84-.13c.54-.03,1.34-.09,2.32,.14,.48,.12,1.04,.34,1.46,.82,.39,.49,.65,1.08,.76,1.75,.11,.66,.08,1.4-.19,2.1-.26,.7-.76,1.33-1.39,1.79-1.29,.9-2.74,1.16-3.99,1.42-1.27,.24-2.44,.33-3.42,.33-1.97,.02-3.14-.48-3.1-.54,.02-.07,1.17,.29,3.09,.18,.95-.04,2.09-.17,3.33-.43,1.23-.28,2.63-.57,3.79-1.38,1.17-.8,1.62-2.21,1.42-3.4-.08-.59-.32-1.15-.62-1.56-.32-.39-.79-.62-1.23-.75-.9-.25-1.69-.26-2.22-.29-.54-.02-.84-.03-.84-.06Z"/>
          <path class="cls-12" d="M285.35,245.66c0,.06-.74,.21-1.98,.23-1.23,.02-2.97-.09-4.76-.79-.88-.35-1.7-.75-2.37-1.26-.67-.51-1.15-1.11-1.46-1.65-.62-1.09-.75-1.86-.7-1.87,.08-.03,.34,.69,1.01,1.68,.34,.49,.8,1.02,1.44,1.47,.63,.45,1.43,.83,2.28,1.16,1.7,.66,3.38,.83,4.58,.9,1.21,.07,1.96,.05,1.97,.12Z"/>
          <path class="cls-12" d="M290.85,221.8c.05,.03-.48,.66-1.36,1.63-.89,.97-2.13,2.29-3.53,3.72-1.4,1.43-2.68,2.71-3.63,3.62s-1.56,1.45-1.61,1.4c-.05-.05,.47-.67,1.35-1.65,.88-.97,2.13-2.29,3.53-3.73,2.79-2.87,5.15-5.12,5.25-5Z"/>
          <path class="cls-12" d="M278.31,216.66c-.14,0-.25-2.82-.25-6.29s.11-6.29,.25-6.29,.25,2.81,.25,6.29-.11,6.29-.25,6.29Z"/>
          <path class="cls-10" d="M285.89,189.68c0,.14-14.1,.25-31.5,.25s-31.5-.11-31.5-.25,14.1-.25,31.5-.25,31.5,.11,31.5,.25Z"/>
          <path class="cls-10" d="M287.51,194.7c0,.14-14.86,.25-33.19,.25s-33.2-.11-33.2-.25,14.86-.25,33.2-.25,33.19,.11,33.19,.25Z"/>
          <path class="cls-10" d="M283.38,185.11c0,.14-12.95,.25-28.92,.25s-28.92-.11-28.92-.25,12.95-.25,28.92-.25,28.92,.11,28.92,.25Z"/>
          <path class="cls-10" d="M286.03,260.83c0,.14-12.67,.25-28.3,.25s-28.31-.11-28.31-.25,12.67-.25,28.31-.25,28.3,.11,28.3,.25Z"/>
          <path class="cls-10" d="M285.65,257.61c0,.14-12.51,.25-27.93,.25s-27.93-.11-27.93-.25,12.5-.25,27.93-.25,27.93,.11,27.93,.25Z"/>
          <path class="cls-10" d="M285.08,253.45c0,.14-12.46,.25-27.83,.25s-27.83-.11-27.83-.25,12.46-.25,27.83-.25,27.83,.11,27.83,.25Z"/>
          <path class="cls-10" d="M244.46,236.21s-.64-.4-1.41-1.32c-.77-.91-1.68-2.33-2.3-4.06-.61-1.73-.79-3.41-.76-4.6,.03-1.2,.21-1.92,.27-1.91,.17,0-.26,2.97,.96,6.34,1.17,3.39,3.36,5.44,3.23,5.54Z"/>
          <path class="cls-10" d="M241.87,237.75s-.68-.45-1.52-1.45c-.84-1-1.82-2.55-2.49-4.44-.66-1.9-.85-3.72-.81-5.03,.04-1.31,.24-2.1,.29-2.09,.17,0-.33,3.25,.99,6.95,1.26,3.72,3.67,5.96,3.54,6.06Z"/>
          <path class="cls-10" d="M239.39,239.01s-.77-.42-1.71-1.45c-.95-1.02-2.04-2.66-2.71-4.7-.66-2.04-.75-4.01-.59-5.39,.16-1.39,.48-2.2,.52-2.18,.09,.02-.11,.85-.17,2.21-.07,1.35,.08,3.24,.71,5.21,.65,1.96,1.65,3.57,2.5,4.63,.85,1.06,1.5,1.62,1.44,1.68Z"/>
          <path class="cls-10" d="M274.89,241.03s.29,.23,.85,.53c.55,.31,1.45,.59,2.59,.65,1.14,.07,2.52-.06,4.02-.26,1.48-.21,3.15-.7,4.22-2.06,1.08-1.32,1.45-3.04,1.25-4.49-.21-1.47-.96-2.66-1.74-3.47-1.61-1.64-3.14-1.9-3.08-2.01,0-.03,.37,.02,.99,.25,.61,.24,1.48,.68,2.35,1.51,.85,.82,1.7,2.06,1.95,3.66,.24,1.57-.15,3.43-1.32,4.88-.59,.72-1.35,1.27-2.15,1.6-.8,.34-1.62,.5-2.39,.6-1.54,.18-2.93,.27-4.12,.16-1.18-.11-2.11-.45-2.66-.84-.55-.37-.77-.68-.75-.7Z"/>
          <path class="cls-10" d="M284.93,228.32s.11-.03,.31-.03c.2,0,.5,.04,.88,.15,.74,.22,1.73,.86,2.58,1.95,.85,1.09,1.62,2.55,2.15,4.29,.25,.88,.4,1.85,.32,2.86-.09,1.01-.43,2.04-1.03,2.93-1.19,1.79-3.02,2.9-4.75,3.45-1.75,.54-3.41,.6-4.77,.55-1.36-.06-2.45-.22-3.2-.34-.75-.12-1.16-.22-1.15-.25,.01-.1,1.67,.18,4.36,.24,1.34,0,2.95-.09,4.62-.63,1.64-.55,3.37-1.62,4.47-3.29,.55-.83,.87-1.76,.96-2.69,.09-.93-.05-1.85-.27-2.69-.48-1.68-1.21-3.14-1.99-4.2-.78-1.08-1.68-1.71-2.37-1.98-.69-.26-1.12-.26-1.12-.31Z"/>
          <polygon class="cls-12" points="263.34 218.46 245.81 239.69 247.15 241.15 275.6 236.81 289.7 215.58 288.4 214.41 263.34 218.46"/>
          <path class="cls-6" d="M281.93,224.07h0c-1.12,0-2.13,.68-2.53,1.73-.42,1.1-1.04,2.38-1.72,2.76-1.26,.69-3.45,1.24-4.6,.68-1.15-.56-5.75-4.7-6.55-4.24-.8,.46-1.49,1.49-.69,2.41,.8,.92,5.06,3.68,4.25,4.6-.8,.92-9.77-3.13-11.15-2.77s-2.18,1.21-1.38,1.76,6.89,2.85,7.24,3.66c0,0-9.19-2.41-9.54-1.84-.35,.57-.92,1.49,0,1.84s8.85,2.41,9.54,2.76,3.07,1.03,3.54,1.03c.25,0,2.05,.6,3.7,1.17,1.86,.65,3.89,.59,5.72-.15l.93-.38c1.45-.59,2.36-2.04,2.27-3.6l-.19-3.13,1-2.59,.15-5.69Z"/>
        </g>
        <path class="cls-11" d="M289.74,215.69s-.18,.06-.52,.13c-.4,.07-.91,.16-1.52,.27-1.39,.22-3.29,.53-5.61,.9-2.39,.37-5.21,.79-8.32,1.27-1.57,.24-3.21,.49-4.91,.74-1.68,.28-3.42,.75-4.76,1.93-1.35,1.16-2.37,2.66-3.47,3.98-1.08,1.34-2.12,2.64-3.11,3.88-1.98,2.45-3.77,4.67-5.29,6.55-1.49,1.81-2.71,3.3-3.6,4.39-.4,.48-.73,.87-1,1.18-.23,.27-.36,.4-.38,.39-.01-.01,.09-.17,.3-.45,.24-.33,.55-.74,.93-1.24,.86-1.12,2.04-2.64,3.48-4.49,1.5-1.9,3.26-4.14,5.21-6.62,.99-1.24,2.02-2.55,3.09-3.9,1.1-1.33,2.1-2.82,3.53-4.06,1.44-1.26,3.31-1.75,5-2.03,1.71-.25,3.35-.49,4.93-.72,3.12-.44,5.94-.83,8.34-1.16,2.32-.31,4.23-.56,5.63-.74,.62-.07,1.13-.13,1.53-.18,.35-.04,.54-.04,.54-.03Z"/>
        <path class="cls-5" d="M276.44,220.34c-.29,.18-.6,.36-.79,.64s-.25,.69-.03,.95c.27,.34,.83,.28,1.17,.02,.22-.17,.4-.41,.45-.68,.05-.27-.03-.58-.24-.76-.21-.18-.55-.21-.77-.03"/>
      </g>
    </g>
  </g>
  <g id="Character_1" data-name="Character 1">
    <g>
      <g>
        <rect class="cls-11" x="42.73" y="244.5" width="45.92" height="92.61"/>
        <path class="cls-11" d="M44.87,336.89h0c-3.96,0-7.17-3.21-7.17-7.17v-78.07c0-3.96,3.21-7.17,7.17-7.17h0c3.96,0,7.17,3.21,7.17,7.17v78.07c0,3.96-3.21,7.17-7.17,7.17Z"/>
        <path class="cls-12" d="M48.61,248.22s.02,.08,.04,.23c.02,.18,.04,.41,.07,.68,.05,.64,.12,1.51,.21,2.61,.17,2.32,.4,5.59,.69,9.61,.53,8.15,1.27,19.34,2.08,31.7,.77,12.39,1.5,23.59,1.89,31.73,.15,4.08-.34,7.41-1.19,9.55-.39,1.08-.85,1.85-1.16,2.36-.16,.22-.29,.41-.39,.56-.09,.12-.14,.18-.15,.18-.07-.04,.78-1.02,1.51-3.17,.78-2.13,1.21-5.42,1.01-9.47-.53-8.15-1.25-19.34-2.04-31.71-.75-12.36-1.43-23.56-1.93-31.71-.22-4.02-.4-7.3-.52-9.62-.05-1.1-.09-1.97-.12-2.62,0-.27-.01-.5-.02-.68,0-.15,0-.23,.01-.23Z"/>
        <g>
          <g>
            <g>
              <rect class="cls-11" x="84.54" y="348.61" width="7.4" height="88.69"/>
              <path class="cls-11" d="M139.91,348.61H34.05c0-6.35,5.15-11.49,11.49-11.49h82.89c6.35,0,11.49,5.15,11.49,11.49h0Z"/>
              <path class="cls-12" d="M94.73,348.83c0,.15-2.91,.27-6.49,.27s-6.5-.12-6.5-.27,2.91-.27,6.5-.27,6.49,.12,6.49,.27Z"/>
            </g>
            <path class="cls-11" d="M120.61,445.33h-1.05c0-17.37-14.13-31.5-31.5-31.5s-31.5,14.13-31.5,31.5h-1.05c0-17.95,14.6-32.54,32.54-32.54,17.95,0,32.54,14.6,32.54,32.54Z"/>
            <circle class="cls-12" cx="56.05" cy="444.74" r="4.88"/>
            <path class="cls-11" d="M125.18,444.96c0,2.7-2.18,4.88-4.88,4.88s-4.88-2.18-4.88-4.88,2.18-4.88,4.88-4.88c2.69,0,4.88,2.18,4.88,4.88Z"/>
            <path class="cls-11" d="M120.3,437.29c0,.15-14.16,.27-31.63,.27s-31.63-.12-31.63-.27,14.16-.27,31.63-.27c17.46,0,31.63,.12,31.63,.27Z"/>
          </g>
          <path class="cls-12" d="M76.81,336.92s-.57,.08-1.6,.11c-1.12,.03-2.59,.07-4.36,.11-3.68,.07-8.76,.14-14.37,.18-2.8,.02-5.47,.04-7.92,.05-2.43,.02-4.61,.11-6.37,.58-1.77,.44-3.05,1.22-3.85,1.83-.81,.61-1.18,1.06-1.22,1.02-.01-.01,.07-.13,.25-.33,.17-.21,.45-.51,.84-.85,.78-.68,2.08-1.53,3.88-2.03,1.8-.53,4.03-.66,6.46-.7,2.43-.06,5.11-.07,7.92-.09,5.62-.04,10.7-.05,14.39-.02,1.77,.02,3.24,.04,4.36,.05,1.03,.02,1.6,.05,1.6,.09Z"/>
        </g>
      </g>
      <g>
        <g>
          <g>
            <g>
              <path class="cls-8" d="M73.69,240.06h0c5.51,0,10.09-3.6,10.16-20.34,.01-3.37-.1-6.28-.1-6.28,0,0,7.95-.72,8.53-8.43,.58-7.71,.14-25.6,.14-25.6h0c-8.87-4.39-19.28-3.64-27.52,1.82l-1.22,.81,.38,37.9c.05,5.32,4.2,20.14,9.62,20.14Z"/>
              <path class="cls-9" d="M83.77,213.33s-5,.1-10.09-3.48c0,0,2.08,5.7,9.98,5.48l.11-2Z"/>
            </g>
            <g>
              <g>
                <g>
                  <path class="cls-12" d="M90.54,191.84c.02,.57-.46,1.06-1.06,1.09-.61,.03-1.12-.4-1.14-.98s.46-1.06,1.06-1.09c.61-.03,1.12,.4,1.14,.98Z"/>
                  <path class="cls-12" d="M90.78,190.62c-.14,.14-.97-.46-2.16-.46-1.19-.01-2.06,.59-2.19,.44-.06-.06,.08-.32,.46-.59,.37-.27,1.01-.53,1.75-.53,.74,0,1.36,.27,1.72,.54,.36,.27,.49,.53,.42,.59Z"/>
                </g>
                <g>
                  <path class="cls-12" d="M78.91,192.11c.02,.57-.46,1.06-1.06,1.09-.61,.03-1.12-.4-1.14-.98s.46-1.06,1.06-1.09c.61-.03,1.12,.4,1.14,.98Z"/>
                  <path class="cls-12" d="M79.11,190.84c-.14,.14-.97-.46-2.16-.46-1.19-.01-2.06,.59-2.19,.44-.06-.06,.07-.32,.46-.59,.37-.27,1.01-.53,1.75-.53,.74,0,1.36,.27,1.72,.54,.36,.28,.49,.53,.42,.59Z"/>
                </g>
                <path class="cls-12" d="M83.42,199.47c0-.07,.73-.19,1.93-.34,.3-.03,.59-.09,.64-.29,.07-.21-.06-.54-.2-.88-.29-.72-.58-1.47-.9-2.26-1.25-3.22-2.15-5.87-2.01-5.92s1.25,2.52,2.5,5.75c.3,.79,.59,1.55,.86,2.28,.11,.34,.31,.72,.16,1.17-.08,.22-.3,.38-.5,.43-.19,.06-.36,.06-.51,.07-1.2,.06-1.95,.07-1.95,0Z"/>
                <path class="cls-12" d="M79.92,200.28c.19-.01,.2,1.25,1.3,2.15,1.1,.9,2.48,.76,2.49,.93,.02,.08-.31,.24-.89,.26-.57,.02-1.4-.16-2.07-.71-.67-.55-.96-1.28-1.01-1.8-.05-.53,.09-.84,.18-.83Z"/>
              </g>
              <path class="cls-12" d="M79.42,186.28c-.12,.32-1.3,.17-2.7,.33-1.4,.14-2.52,.54-2.71,.25-.08-.14,.11-.43,.57-.74,.45-.31,1.17-.6,2.01-.69,.84-.09,1.6,.04,2.11,.24,.51,.2,.77,.45,.72,.6Z"/>
              <path class="cls-12" d="M90.35,187.26c-.21,.26-1.03,0-2.01-.02-.98-.05-1.82,.18-2.01-.1-.08-.13,.05-.4,.41-.65,.36-.25,.96-.45,1.64-.43,.68,.02,1.26,.26,1.6,.53,.35,.27,.46,.54,.37,.67Z"/>
            </g>
          </g>
          <path class="cls-12" d="M92.67,177.91c-.12-1.2-.57-2.35-1.2-3.37,.48-1.12,.39-2.52-.41-3.46-1.13-1.32-3.37-1.39-4.66-.25-.02,0-.04-.02-.06-.02,.39-.68,.09-1.68-.56-2.19-.75-.59-1.78-.66-2.73-.65-1.77,.03-5.95,1.43-9.16,2.63-.2,.04-.42,.07-.62,.11-2.5,.5-5.39,1.51-7.33,3.16-2.41,2.06-3.76,5.04-4.58,8.1-.82,3.07-.83,6.28-.21,11.49,.96-.85,4.34-2.99,4.85-1.81,.29,.67,.19,1.44,.26,2.17,.07,.73,.4,1.54,1.1,1.74,.57,.16,1.19-.18,1.52-.67,.33-.49,.44-1.1,.48-1.68,.19-2.4-.41-4.83-.03-7.21,.38-2.35,1.74-4.51,3.69-5.87,1.95-1.35,4.46-1.88,6.79-1.41,1.44,.29,2.83,.94,4.3,.88,2.11-.08,4.27-1.6,6.17-.69,.38,.18,.75,.36,1.12,.57,.72,.42,1.07,.84,1.25,.46,.13-.27,.06-1.38,0-2.05Z"/>
          <g>
            <path class="cls-8" d="M65.72,190.56c-.15-.05-4.98-.67-4.53,4.93,.46,5.6,6.07,3.29,6.07,3.13,0-.16-1.54-8.06-1.54-8.06Z"/>
            <path class="cls-9" d="M65.35,196.79s-.09,.08-.26,.16c-.16,.09-.44,.16-.74,.07-.62-.17-1.21-1.07-1.31-2.07-.06-.51,.01-1,.16-1.42,.14-.42,.39-.73,.69-.81,.3-.09,.53,.07,.61,.22,.09,.15,.06,.26,.09,.27,.02,.01,.12-.1,.05-.33-.03-.11-.11-.24-.25-.33-.15-.1-.35-.14-.56-.1-.44,.06-.8,.49-.97,.95-.19,.46-.28,1.02-.22,1.59,.13,1.12,.8,2.13,1.65,2.3,.41,.07,.74-.07,.9-.22,.16-.15,.18-.28,.16-.29Z"/>
          </g>
        </g>
        <g>
          <g>
            <g>
              <path class="cls-13" d="M118.9,426.34l4.36-6.11-16.78-11.75-6.95,9.43,.96,.83c4.31,3.64,22.16,18.19,25.83,19.57,4.1,1.53-7.43-11.96-7.43-11.96Z"/>
              <g class="cls-16">
                <path class="cls-4" d="M105.53,422.24c.77-1.51,1.14-3.34,.67-4.99-.46-1.65-1.11-2.88-3.18-4.08l-3.31,4.53,5.81,4.55Z"/>
              </g>
            </g>
            <g class="cls-16">
              <path class="cls-4" d="M124.36,433.17s3.81,5.03,2.62,5.36c-1.19,.33-19.78-13.72-27.44-20.61l.29-.34,21.54,16.56s2.01-1.64,2.99-.97Z"/>
            </g>
            <path class="cls-12" d="M99.58,417.37s.08,.09,.26,.24c.23,.2,.48,.41,.77,.65,.78,.64,1.74,1.43,2.86,2.36,2.43,1.98,5.83,4.66,9.64,7.55,3.81,2.89,7.32,5.42,9.88,7.23,1.2,.83,2.22,1.54,3.05,2.11,.31,.21,.59,.39,.84,.56,.19,.13,.3,.19,.3,.18,0,0-.09-.08-.27-.22-.24-.18-.51-.38-.81-.6-.82-.59-1.82-1.32-3-2.18-2.54-1.84-6.03-4.4-9.84-7.28-3.81-2.89-7.22-5.55-9.68-7.49-1.15-.91-2.12-1.67-2.91-2.3-.3-.23-.56-.43-.8-.62-.18-.14-.28-.21-.29-.2Z"/>
            <path class="cls-12" d="M121.18,434.38c.05,.05,.62-.6,1.6-.97,.97-.38,1.84-.27,1.85-.35,.03-.06-.9-.28-1.94,.12-1.04,.39-1.56,1.17-1.51,1.19Z"/>
            <path class="cls-12" d="M118.18,428.37c.02,.06,.46-.04,.98-.22,.51-.19,.91-.39,.89-.45-.02-.06-.46,.04-.97,.22-.51,.19-.91,.39-.89,.45Z"/>
            <path class="cls-12" d="M117.38,426.69c0,.07,.39,.09,.86,.06,.47-.04,.84-.12,.83-.18,0-.07-.39-.09-.86-.06-.47,.04-.84,.12-.83,.18Z"/>
            <path class="cls-12" d="M117.68,424.55c-.04,.05,.3,.39,.77,.75,.46,.36,.88,.61,.92,.56s-.3-.39-.77-.75c-.47-.36-.88-.61-.92-.56Z"/>
            <path class="cls-12" d="M118.2,423.28c-.05,.03,.22,.53,.74,.99,.52,.46,1.05,.67,1.07,.61,.03-.06-.42-.36-.91-.79-.5-.43-.85-.84-.9-.8Z"/>
            <path class="cls-12" d="M119.78,427.39s.35,.37,1.05,.78c.35,.21,.79,.42,1.29,.6,.26,.08,.51,.19,.83,.22,.15,.01,.34,0,.5-.12,.16-.12,.21-.36,.15-.53-.62-1.26-2.03-1.47-2.79-1.24-.4,.1-.68,.29-.86,.43-.17,.14-.25,.25-.24,.26,.03,.04,.38-.35,1.14-.51,.37-.08,.85-.08,1.32,.11,.45,.17,1,.54,1.18,1.02,.07,.25-.13,.39-.4,.36-.25-.02-.53-.12-.77-.2-.5-.17-.93-.36-1.28-.54-.71-.37-1.11-.67-1.13-.63Z"/>
            <path class="cls-12" d="M120.01,427.65s.36-.12,.66-.62c.15-.24,.26-.58,.28-.96-.01-.37-.01-.86-.48-1.18-.26-.15-.59,.03-.68,.23-.12,.19-.15,.41-.17,.59-.04,.37-.02,.71,.03,.99,.09,.56,.26,.88,.29,.87,.04-.01-.07-.34-.11-.88-.02-.27-.02-.59,.03-.95,.02-.33,.22-.79,.51-.64,.28,.17,.36,.63,.36,.95,0,.35-.09,.65-.21,.89-.24,.48-.53,.67-.5,.7Z"/>
            <path class="cls-12" d="M103.21,413.26s.5,.31,1.17,.95c.67,.63,1.46,1.69,1.82,3.04,.36,1.35,.19,2.65-.08,3.51-.27,.87-.59,1.35-.55,1.37,.01,0,.11-.1,.24-.32,.14-.22,.31-.55,.47-.99,.32-.87,.52-2.21,.15-3.62-.38-1.41-1.23-2.49-1.94-3.11-.36-.31-.68-.53-.91-.65-.23-.13-.37-.19-.37-.17Z"/>
            <path class="cls-12" d="M108.76,422.24s.89,1.02,2.2,2.03c1.31,1.01,2.49,1.67,2.52,1.61,.04-.06-1.07-.8-2.37-1.8-1.3-1-2.3-1.89-2.35-1.84Z"/>
            <path class="cls-12" d="M105.57,419.82c-.07,0-.08,.29-.15,.61-.07,.32-.17,.58-.11,.62,.05,.04,.27-.19,.35-.56,.08-.37-.02-.67-.09-.66Z"/>
            <path class="cls-12" d="M105.48,417.45c-.07,0-.09,.25-.05,.55s.13,.53,.2,.52c.07,0,.09-.25,.05-.55-.04-.29-.13-.53-.2-.52Z"/>
            <path class="cls-12" d="M104.26,415.48c-.03,.06,.19,.22,.36,.49,.18,.26,.25,.52,.32,.51,.07,0,.1-.33-.12-.65-.22-.32-.55-.41-.57-.35Z"/>
            <path class="cls-12" d="M103.28,414.24c-.06,.04-.03,.19,.07,.34,.1,.15,.22,.25,.28,.21s.03-.19-.07-.34c-.1-.15-.22-.25-.28-.21Z"/>
          </g>
          <g class="cls-14">
            <polygon points="103.7 412.27 120.65 423.96 121.15 423.31 104.66 410.91 103.7 412.27"/>
          </g>
        </g>
        <g>
          <g>
            <g>
              <path class="cls-13" d="M200.34,445.69l-1.57-7.16-19.5,4.46,2.28,11.2,1.23-.16c5.45-.74,27.68-4.13,31.08-5.9,3.79-1.97-13.53-2.45-13.53-2.45Z"/>
              <g class="cls-16">
                <path class="cls-4" d="M188.62,452.69c-.59-1.55-1.67-3.01-3.17-3.75-1.5-.75-2.82-1.08-5.04-.37l1.11,5.36,7.1-1.23Z"/>
              </g>
            </g>
            <g class="cls-16">
              <path class="cls-4" d="M208.86,446.21s6.14,.53,5.59,1.61c-.55,1.08-22.88,5.34-32.9,6.37l-.05-.43,26.1-4.75s.13-2.54,1.26-2.8Z"/>
            </g>
            <path class="cls-12" d="M181.19,453.81s.12,0,.34-.03c.29-.04,.62-.08,.98-.13,.97-.14,2.17-.32,3.58-.53,3.02-.47,7.19-1.17,11.78-2.04,4.59-.87,8.72-1.75,11.71-2.42,1.39-.32,2.57-.6,3.53-.82,.35-.09,.67-.17,.96-.24,.22-.06,.33-.09,.33-.1s-.12,.01-.34,.05c-.29,.06-.61,.12-.96,.2-.96,.2-2.15,.45-3.54,.75-2.99,.63-7.13,1.48-11.71,2.36-4.58,.87-8.74,1.6-11.76,2.1-1.41,.24-2.6,.44-3.57,.6-.36,.06-.68,.12-.97,.17-.22,.04-.34,.07-.33,.07Z"/>
            <path class="cls-12" d="M207.65,449.31c.07,0-.03-.85,.35-1.79,.36-.95,1.01-1.51,.96-1.57-.02-.05-.79,.47-1.18,1.48-.4,1.01-.18,1.9-.12,1.87Z"/>
            <path class="cls-12" d="M201.33,447.54c.06,.02,.27-.36,.48-.85s.32-.92,.25-.94-.27,.36-.48,.85c-.2,.49-.32,.92-.25,.94Z"/>
            <path class="cls-12" d="M199.59,447.02c.05,.04,.32-.22,.6-.58,.28-.36,.46-.69,.41-.73s-.32,.22-.6,.58c-.28,.36-.46,.68-.41,.73Z"/>
            <path class="cls-12" d="M198.24,445.41c.01,.07,.48,.03,1.04-.07,.57-.1,1.01-.24,1-.3s-.48-.03-1.04,.07c-.57,.1-1.02,.24-1,.3Z"/>
            <path class="cls-12" d="M197.66,444.2c-.01,.06,.53,.19,1.2,.11,.67-.08,1.17-.32,1.15-.38-.02-.06-.53,.07-1.17,.14-.64,.08-1.17,.06-1.18,.13Z"/>
            <path class="cls-12" d="M201.68,445.74s.5,0,1.26-.25c.38-.12,.82-.3,1.28-.54,.23-.13,.47-.24,.71-.46,.11-.11,.23-.25,.24-.44,.02-.19-.12-.38-.28-.46-1.32-.38-2.4,.51-2.73,1.2-.19,.36-.24,.68-.25,.9,0,.22,.02,.34,.03,.34,.05,0,0-.5,.37-1.16,.19-.32,.5-.66,.94-.89,.42-.21,1.04-.37,1.52-.19,.23,.11,.19,.35,0,.52-.18,.17-.43,.3-.65,.43-.45,.25-.87,.44-1.23,.58-.73,.27-1.21,.37-1.2,.4Z"/>
            <path class="cls-12" d="M202.01,445.74s.15-.34-.02-.88c-.08-.27-.25-.57-.51-.83-.27-.23-.63-.55-1.17-.43-.28,.09-.37,.44-.28,.64,.06,.21,.2,.38,.32,.51,.25,.27,.51,.48,.74,.63,.47,.3,.8,.39,.81,.36,.02-.03-.29-.17-.71-.5-.21-.16-.44-.37-.67-.64-.22-.23-.43-.67-.12-.79,.31-.09,.69,.16,.93,.36,.25,.23,.41,.49,.51,.73,.19,.48,.14,.83,.18,.83Z"/>
            <path class="cls-12" d="M180.59,448.49s.55-.16,1.45-.23c.89-.07,2.18,.05,3.4,.67,1.22,.63,2.04,1.59,2.49,2.35,.46,.77,.59,1.31,.63,1.3,.01,0,0-.14-.07-.39-.07-.24-.2-.59-.41-.99-.42-.8-1.26-1.83-2.53-2.48-1.27-.65-2.61-.75-3.52-.63-.46,.06-.83,.15-1.07,.23-.24,.08-.37,.15-.37,.16Z"/>
            <path class="cls-12" d="M190.72,450.35c0,.06,1.32,.02,2.91-.27,1.59-.29,2.84-.71,2.82-.77-.02-.07-1.28,.25-2.86,.54-1.58,.29-2.87,.43-2.87,.5Z"/>
            <path class="cls-12" d="M186.89,451.08c-.04,.06,.15,.24,.34,.51,.19,.26,.3,.5,.37,.49,.06-.01,.04-.32-.17-.62-.21-.3-.51-.43-.54-.37Z"/>
            <path class="cls-12" d="M185.11,449.59c-.04,.05,.13,.23,.37,.39,.24,.16,.47,.25,.51,.2,.04-.05-.13-.23-.37-.39-.24-.16-.47-.25-.51-.2Z"/>
            <path class="cls-12" d="M182.89,449.18c.03,.06,.29,.01,.59,.05,.31,.04,.54,.15,.59,.1,.05-.05-.17-.29-.55-.34-.38-.05-.66,.12-.63,.18Z"/>
            <path class="cls-12" d="M181.34,449.08c-.01,.06,.12,.14,.29,.17s.32,0,.34-.06c.01-.06-.12-.14-.29-.17-.17-.03-.33,0-.34,.06Z"/>
          </g>
          <g class="cls-14">
            <polygon points="180.19 447.49 199.76 442.86 199.61 442.08 179.84 445.9 180.19 447.49"/>
          </g>
        </g>
        <path class="cls-9" d="M149.59,272.06c0-.36,3.35-3.54,3.9-3.72s10.33-4.26,10.51-3.81c.18,.45,1.36,2.68-.63,3.74l-1.54,.52,5.62,.45s6.26,4.62,6.16,5.62-.91,1.63-1.45,1.18c-.54-.45,1.45,3.17,1.45,3.17,0,0,0,1.54-.82,1.27-.82-.27-2.09-1.72-2.09-1.72,0,0,1.18,1.9,.82,2.27s-2.18,.45-2.36,0-.45-1.27-.45-1.27l-1.09,.09v1.48l-16.59,.51-1.45-9.79Z"/>
        <g>
          <polygon class="cls-10" points="85.29 226.28 90.36 232.28 110.62 267.74 150.13 271.64 150.99 283.08 105.48 287.38 80.08 241.4 85.29 226.28"/>
          <path class="cls-1" d="M89.29,243.58l-3.92-14.79-.08-4.82-21.99-9.99-4.23,5.26,.51,.27c-1.73,1.82-14.53,15.65-13.77,25.85,.69,9.2,20.06,67.13,20.06,67.13l44.13-12.9-20.71-56.01Z"/>
          <path class="cls-13" d="M84.89,228.98l-1.24,6.06,3.23,6.07v4.49l23.12,54,6.84,2.3,1.16-4.63s-19.25-32.85-22.58-42.11-8.25-22.58-8.25-22.58l-2.28-3.59Z"/>
          <path class="cls-1" d="M49.79,256.2c0,.58,39.86,39.09,39.86,39.09l53.85-10.54-1.73-11.5-36.76,1c-4.02,.16-7.21-1.18-9.67-4.37-7.89-10.24-24.98-32.45-25.42-33.04-.57-.77-20.12,19.35-20.12,19.35Z"/>
          <path class="cls-11" d="M141.77,273.25s.05,.24,.13,.72c.08,.51,.2,1.23,.35,2.18,.31,1.96,.76,4.84,1.35,8.58l.02,.1-.1,.02c-9.37,1.81-24.36,4.71-42.99,8.31-1.17,.22-2.35,.45-3.54,.68-1.2,.24-2.46,.38-3.71,.33-2.52-.08-5.08-.82-7.33-2.2-1.12-.69-2.16-1.53-3.08-2.51-.91-.98-1.75-2-2.64-3.01-1.76-2.03-3.56-4.09-5.38-6.18-7.28-8.38-15.01-17.27-23.01-26.47l-.03-.03v-.04c-.06-.13-.12-.27-.18-.42-.78-1.98-1.28-4.08-1.29-6.2-.03-2.11,.45-4.26,1.54-6.06,1.07-1.83,2.69-3.22,4.43-4.29,1.77-1.04,3.74-1.74,5.76-1.91,2.02-.2,4.08,.17,5.87,1.04,1.8,.88,3.29,2.21,4.58,3.64,1.29,1.44,2.39,2.99,3.47,4.51,1.09,1.52,2.16,3.02,3.22,4.5,4.28,5.9,8.53,11.38,12.63,16.41,1.03,1.25,2.05,2.48,3.04,3.68,1.02,1.18,1.94,2.43,3.06,3.39,1.11,.98,2.53,1.43,3.93,1.61,1.41,.17,2.82,.14,4.21,.11,11.04-.17,19.98-.3,26.18-.4,3.06-.04,5.45-.07,7.09-.09,.79,0,1.4-.01,1.83-.01,.41,0,.61,0,.61,0,0,0-.23,.02-.65,.03-.44,.01-1.06,.03-1.86,.06-1.65,.04-4.04,.1-7.12,.18-6.18,.14-15.08,.34-26.08,.59-1.37,.03-2.8,.07-4.25-.1-1.44-.17-2.97-.65-4.14-1.68-1.18-1.01-2.09-2.25-3.12-3.43-1-1.2-2.02-2.43-3.06-3.68-4.12-5.02-8.38-10.49-12.68-16.4-1.06-1.48-2.14-2.98-3.23-4.5-1.08-1.52-2.17-3.06-3.44-4.46-1.26-1.4-2.71-2.68-4.43-3.52-1.71-.83-3.67-1.18-5.6-.99-3.85,.37-7.69,2.55-9.79,5.96-1.03,1.72-1.5,3.76-1.46,5.79,.01,2.04,.5,4.08,1.26,6.02,.05,.14,.11,.28,.16,.41l-.04-.07c8,9.21,15.72,18.11,23,26.49,1.82,2.1,3.61,4.16,5.37,6.19,.88,1.01,1.75,2.04,2.63,3,.89,.95,1.89,1.77,2.98,2.43,2.17,1.34,4.65,2.06,7.1,2.14,1.23,.05,2.43-.08,3.61-.31,1.19-.23,2.38-.45,3.54-.67,18.65-3.51,33.64-6.33,43.03-8.09l-.09,.12c-.53-3.72-.94-6.58-1.22-8.54-.13-.96-.23-1.7-.3-2.21-.07-.5-.09-.77-.09-.77Z"/>
          <path class="cls-11" d="M85.29,223.97c.05,.01-.15,.99-.35,2.71-.23,1.72-.33,4.2-.95,7.13l-.06,.3-.27-.16c-2.32-1.34-5.01-2.88-7.87-4.53-4.53-2.63-8.62-5.04-11.57-6.8-1.4-.85-2.57-1.57-3.48-2.11-.81-.51-1.26-.8-1.24-.84s.49,.21,1.34,.66c.92,.51,2.12,1.17,3.56,1.97,2.99,1.68,7.12,4.04,11.65,6.67,2.84,1.66,5.52,3.23,7.83,4.58l-.34,.15c.65-2.86,.82-5.35,1.12-7.06,.14-.86,.28-1.53,.39-1.99,.12-.45,.2-.69,.22-.68Z"/>
        </g>
        <path class="cls-8" d="M164.87,273.27l-9.61-2.63-7.98,3.99h-4.53l-.73,.3,1.29,8.6,1.14,.16s1.28,.91,3.82,1.45c2.54,.54,6.26-1.09,6.26-1.09l5.08-2.81,3.63-1.03,2.72,1.58s.27,1.09,.27,1.45,1,.82,1.54,.82,.73-1.27,.73-1.27l-.63-2.71,1.27,1.17h3.17v-1.99l-7.44-5.98Z"/>
        <g>
          <polygon class="cls-12" points="143.5 336.38 102.09 410.1 124.22 425.11 160.82 360.16 154.65 336.38 143.5 336.38"/>
          <path class="cls-12" d="M65.87,312.49s-4.75,20.03,8.15,24.1c12.9,4.07,80,6.2,80,6.2l24.94,103.01,21.35-3.03-18.42-110.4c-1.36-7.73-7.39-13.78-15.12-15.16-19.9-3.55-55.95-10.09-56.44-10.82-.68-1.02-3.39-6.79-3.39-6.79l-41.07,12.9Z"/>
          <path class="cls-11" d="M162.04,374.27s-.09-.18-.21-.53c-.13-.35-.3-.88-.49-1.56-.4-1.37-.88-3.37-1.41-5.86-.51-2.51-1.12-5.47-1.79-8.74-.73-3.26-1.46-6.92-3.1-10.38-.84-1.68-1.96-3.31-3.67-3.85-1.69-.59-3.44-.86-5.09-1.11-3.32-.46-6.33-.68-8.86-.83-2.53-.15-4.59-.23-6-.29-.66-.03-1.2-.05-1.63-.07-.37-.02-.57-.04-.57-.05s.2-.04,.57-.05c.37-.02,.93-.03,1.64-.03,1.42,0,3.48,.02,6.02,.13,2.54,.11,5.57,.29,8.91,.73,1.67,.24,3.43,.5,5.2,1.11,.43,.19,.88,.36,1.29,.65,.4,.29,.76,.62,1.08,.99,.64,.74,1.15,1.58,1.59,2.46,1.69,3.56,2.4,7.23,3.11,10.51,.67,3.3,1.2,6.27,1.68,8.76,.48,2.49,.91,4.5,1.25,5.88,.32,1.38,.56,2.13,.51,2.15Z"/>
        </g>
      </g>
    </g>
  </g>
  <g id="Desk">
    <polygon class="cls-11" points="405.76 287.94 139.26 286.99 139.23 294.9 155.05 294.96 154.49 449.08 160.08 449.1 160.63 294.98 380.84 295.77 380.29 449.89 385.88 449.91 386.43 295.79 405.73 295.86 405.76 287.94"/>
    <g>
      <polygon class="cls-10" points="314.22 244.22 329.01 287.42 395.94 287.42 395.45 285.19 368.38 284.36 355.91 244.2 314.22 244.22"/>
      <path class="cls-4" d="M343.89,264.51c.44,1.77-.32,3.5-1.69,3.87-1.38,.37-2.85-.77-3.29-2.54-.44-1.77,.32-3.5,1.69-3.87,1.38-.37,2.85,.77,3.29,2.54Z"/>
    </g>
    <g>
      <polygon class="cls-10" points="248.36 243.01 233.57 286.21 166.64 286.21 167.13 283.98 194.2 283.14 206.67 242.98 248.36 243.01"/>
      <path class="cls-4" d="M218.69,263.3c-.44,1.77,.32,3.5,1.69,3.87,1.38,.37,2.85-.77,3.29-2.54s-.32-3.5-1.69-3.87c-1.38-.37-2.85,.77-3.29,2.54Z"/>
    </g>
    <g>
      <circle class="cls-11" cx="275.51" cy="271.1" r="8.19"/>
      <rect class="cls-10" x="248.76" y="267.85" width="53.52" height="19.56"/>
      <path class="cls-12" d="M269.33,273.25c0,.14-3.91,.26-8.73,.26s-8.73-.12-8.73-.26,3.91-.26,8.73-.26c4.82,0,8.73,.12,8.73,.26Z"/>
      <path class="cls-12" d="M269.33,276.06c0,.14-3.91,.26-8.73,.26s-8.73-.12-8.73-.26,3.91-.26,8.73-.26,8.73,.12,8.73,.26Z"/>
      <path class="cls-12" d="M269.33,278.87c0,.14-3.91,.26-8.73,.26s-8.73-.12-8.73-.26,3.91-.26,8.73-.26c4.82,0,8.73,.12,8.73,.26Z"/>
      <path class="cls-12" d="M269.33,281.68c0,.14-3.91,.26-8.73,.26s-8.73-.12-8.73-.26,3.91-.26,8.73-.26,8.73,.12,8.73,.26Z"/>
      <path class="cls-12" d="M279.1,286.96c-.14,0-.26-4.21-.26-9.4s.12-9.4,.26-9.4,.26,4.21,.26,9.4c0,5.19-.12,9.4-.26,9.4Z"/>
    </g>
  </g>
</svg>