<svg width="36" height="36" viewBox="0 0 36 36" fill="none" xmlns="http://www.w3.org/2000/svg">
<path d="M3 10.0125V6.75C3 6.175 3.225 5.65625 3.675 5.19375C4.125 4.73125 4.65 4.5 5.25 4.5H30.75C31.325 4.5 31.8438 4.73125 32.3063 5.19375C32.7688 5.65625 33 6.175 33 6.75V10.0125H30.75V6.75H5.25V10.0125H3ZM12.375 31.5V28.5H5.25C4.65 28.5 4.125 28.2688 3.675 27.8063C3.225 27.3438 3 26.825 3 26.25V22.7625H5.25V26.25H30.75V22.7625H33V26.25C33 26.825 32.7688 27.3438 32.3063 27.8063C31.8438 28.2688 31.325 28.5 30.75 28.5H23.625V31.5H12.375ZM6.15 16.5L10.575 12.075L9 10.5L3 16.5L9 22.5L10.575 20.925L6.15 16.5ZM29.85 16.5L25.425 20.925L27 22.5L33 16.5L27 10.5L25.425 12.075L29.85 16.5Z" fill="black"/>
</svg>
