<?xml version="1.0" encoding="UTF-8"?>
<svg xmlns="http://www.w3.org/2000/svg" xmlns:xlink="http://www.w3.org/1999/xlink" viewBox="0 0 500 500">
  <defs>
    <style>
      .cls-1 {
        letter-spacing: -.01em;
      }

      .cls-2 {
        fill: url(#linear-gradient);
      }

      .cls-3 {
        fill: #f3fff3;
      }

      .cls-4 {
        fill: #f7b1b3;
      }

      .cls-5, .cls-6, .cls-7, .cls-8 {
        fill: #fff;
      }

      .cls-9 {
        fill: #c3666d;
      }

      .cls-10 {
        fill: #b07f67;
      }

      .cls-11 {
        fill: #d7ae98;
      }

      .cls-12 {
        fill: #237c23;
      }

      .cls-13 {
        fill: #141414;
      }

      .cls-14 {
        fill: #0f1824;
      }

      .cls-15 {
        fill: #1a2123;
      }

      .cls-16 {
        fill: #263238;
      }

      .cls-17 {
        fill: #339135;
      }

      .cls-18 {
        fill: #487b74;
      }

      .cls-19, .cls-20 {
        fill: #5cbb61;
      }

      .cls-21 {
        stroke: #141414;
        stroke-width: 1.35px;
      }

      .cls-21, .cls-22, .cls-23, .cls-24 {
        fill: none;
        stroke-linecap: round;
      }

      .cls-21, .cls-23, .cls-24 {
        stroke-miterlimit: 10;
      }

      .cls-25 {
        fill: url(#linear-gradient-2);
      }

      .cls-25, .cls-26, .cls-27 {
        mix-blend-mode: multiply;
      }

      .cls-28 {
        letter-spacing: -.01em;
      }

      .cls-29, .cls-6 {
        mix-blend-mode: color-dodge;
      }

      .cls-30 {
        mix-blend-mode: overlay;
      }

      .cls-26 {
        fill: url(#linear-gradient-5);
      }

      .cls-26, .cls-31, .cls-20 {
        opacity: .3;
      }

      .cls-27 {
        fill: url(#linear-gradient-4);
        opacity: .2;
      }

      .cls-7 {
        mix-blend-mode: screen;
      }

      .cls-32 {
        fill: url(#linear-gradient-3);
        mix-blend-mode: color-burn;
        opacity: .33;
      }

      .cls-33 {
        fill: url(#linear-gradient-8);
      }

      .cls-34 {
        fill: url(#linear-gradient-9);
      }

      .cls-35 {
        fill: url(#linear-gradient-6);
      }

      .cls-36 {
        fill: url(#linear-gradient-7);
      }

      .cls-8, .cls-37 {
        font-family: Montserrat-ExtraBoldItalic, Montserrat;
        font-size: 8.32px;
        font-style: italic;
        font-weight: 700;
      }

      .cls-22 {
        stroke-linejoin: round;
        stroke-width: .9px;
      }

      .cls-22, .cls-24 {
        stroke: #fff;
      }

      .cls-37 {
        fill: #2b2868;
      }

      .cls-23 {
        stroke: #0a0a0a;
      }

      .cls-23, .cls-24 {
        stroke-width: .91px;
      }

      .cls-38 {
        isolation: isolate;
      }
    </style>
    <linearGradient id="linear-gradient" x1="198.46" y1="388.15" x2="233.31" y2="388.15" gradientUnits="userSpaceOnUse">
      <stop offset="0" stop-color="#71c9c1"/>
      <stop offset="1" stop-color="#37ade3"/>
    </linearGradient>
    <linearGradient id="linear-gradient-2" x1="410.1" y1="456.12" x2="456.81" y2="456.12" gradientUnits="userSpaceOnUse">
      <stop offset="0" stop-color="#323d97"/>
      <stop offset="1" stop-color="#4653a3"/>
    </linearGradient>
    <linearGradient id="linear-gradient-3" x1="106.45" y1="486.72" x2="106.45" y2="499.4" gradientUnits="userSpaceOnUse">
      <stop offset="0" stop-color="#ed4d9a"/>
      <stop offset="1" stop-color="#911940"/>
    </linearGradient>
    <linearGradient id="linear-gradient-4" x1="99.98" y1="426.05" x2="99.98" y2="517.6" gradientUnits="userSpaceOnUse">
      <stop offset="0" stop-color="#ed1d43"/>
      <stop offset="1" stop-color="#5d0d3e"/>
    </linearGradient>
    <linearGradient id="linear-gradient-5" x1="59.19" y1="489.89" x2="59.19" y2="498.45" gradientUnits="userSpaceOnUse">
      <stop offset="0" stop-color="#56aade"/>
      <stop offset="1" stop-color="#6469af"/>
    </linearGradient>
    <linearGradient id="linear-gradient-6" x1="418.66" y1="155.42" x2="434.87" y2="155.42" gradientUnits="userSpaceOnUse">
      <stop offset="0" stop-color="#2c2b79"/>
      <stop offset="1" stop-color="#6469af"/>
    </linearGradient>
    <linearGradient id="linear-gradient-7" x1="437.67" y1="113.75" x2="425.77" y2="193.99" xlink:href="#linear-gradient-5"/>
    <linearGradient id="linear-gradient-8" x1="413.38" y1="219.71" x2="423.09" y2="219.71" xlink:href="#linear-gradient-6"/>
    <linearGradient id="linear-gradient-9" x1="424.65" y1="204.3" x2="420.25" y2="233.95" xlink:href="#linear-gradient-5"/>
  </defs>
  <g class="cls-38">
    <g id="Layer_1" data-name="Layer 1">
      <g>
        <g class="cls-29">
          <path class="cls-19" d="M189.54,403.95c7.14-18.25,4.93-38.82,.17-57.83-1.14-4.57-2.5-9.25-5.51-12.87-1.54-1.85-3.75-3.46-6.15-3.2-3.51,.39-5.34,4.37-6.04,7.83-4.46,21.87,8.26,43.43,9.96,65.69"/>
          <path class="cls-2" d="M205.89,395.95c1.57-5.47,3.56-10.87,6.65-15.64,3.09-4.77,7.38-8.9,12.63-11.09,2.33-.97,5.36-1.41,7.09,.43,1.9,2.02,.93,5.34-.52,7.71-7.91,12.96-25.55,17.49-33.28,30.56"/>
          <path class="cls-19" d="M197,406.3c4.96-7.53,9.78-15.24,12.9-23.69,3.12-8.45,4.47-17.79,2.32-26.54-.66-2.7-2.64-5.9-5.34-5.23-1,.25-1.78,.99-2.47,1.75-5.46,5.98-8.07,14.01-9.68,21.94-1.61,7.93-2.37,16.06-4.84,23.77-.37,1.15-.81,2.34-1.71,3.14-.9,.8-2.41,1.04-3.29,.21-.49-.46-.69-1.15-.84-1.82-.8-3.61-14.91-41.27-30.43-45.23-1.25-.32-2.55-.58-3.84-.48-20.04,1.49,20.7,46.78,20.48,52.96-14.84-15.25-18.02-18.11-25.23-20.09-5.55-1.53-15.85,2.59-13.23,9.78,1.81,4.98,7.2,7.62,12.28,9.12,5.55,1.64,11.32,2.53,16.72,4.6s10.58,5.6,12.94,10.88"/>
        </g>
        <path class="cls-19" d="M479.51,485.39c-9.75-7.34-46.28,.94-46.28,.94,0,0,7.55-3.02,7.51-6.93-.03-3.9-2.99-7.33-6.55-8.95-3.55-1.62-7.6-1.74-11.5-1.51-7.93,.45-15.79,2.21-23.15,5.18,3.13-1.92,4.08-6.64,1.95-9.62-2.13-2.99-6.9-3.61-9.73-1.28,4.98-6.74,12.68-36.62-10.98-49.79-29.65-16.51-52.17-2.92-56.97,7.01,5.36-18.45,4.61-48.29-21.89-51.94-68.34-9.39-80.22,42.18-82.65,51.94-4.8-9.93-27.32-23.52-56.97-7.01-23.65,13.17-15.96,43.05-10.98,49.79-2.83-2.33-7.6-1.71-9.73,1.28-2.13,2.99-1.18,7.7,1.95,9.62-7.37-2.97-15.22-4.73-23.15-5.18-3.9-.22-7.94-.11-11.5,1.51-3.55,1.62-6.51,5.05-6.55,8.95-.04,3.9,7.51,6.93,7.51,6.93,0,0-36.53-8.28-46.28-.94-9.19,6.92-1.37,11.75,.86,11.76,56.85,.22,139.7,.06,207.12,.04,67.41,.03,150.27,.19,207.12-.04,2.23,0,10.05-4.84,.86-11.76Z"/>
        <g>
          <g>
            <path class="cls-19" d="M426,428.81s-66.13-89.34-45.38-108.42c20.75-19.08,51.08,48.13,45.38,108.42Z"/>
            <path class="cls-5" d="M386.87,330.94c23.15,35.15,36.39,75.78,41.5,117.4,1.02,8.29,1.57,16.61,2.32,24.93,.04,.45,.72,.47,.71,0-.08-16.22-2.43-32.66-5.55-48.54-3.98-20.31-10.04-40.27-18.57-59.14-5.53-12.25-12.07-24.01-19.71-35.07-.3-.43-1.01-.03-.71,.42h0Z"/>
            <path class="cls-5" d="M385.13,343.16c5.67,3.91,10.91,8.39,16.55,12.3,.3,.21,.59-.23,.37-.48-4.33-4.97-10.69-9.5-16.56-12.43-.41-.2-.73,.35-.36,.61h0Z"/>
            <path class="cls-5" d="M387.18,348.51c5.67,3.91,10.91,8.39,16.55,12.3,.3,.21,.59-.23,.37-.48-4.33-4.97-10.69-9.5-16.56-12.43-.41-.2-.73,.35-.36,.61h0Z"/>
          </g>
          <g>
            <path class="cls-19" d="M442.97,410.27s63.76-91.05,42.51-109.57c-21.25-18.53-49.8,49.46-42.51,109.57Z"/>
            <path class="cls-5" d="M478.79,311c-23,35.22-34.89,76.71-38.83,118.34-.8,8.45-1.41,17.02-1.23,25.51,.01,.46,.69,.46,.71,0,1.04-16.33,2.04-32.51,4.84-48.66,3.49-20.16,8.98-40.01,16.79-58.93,5.13-12.44,11.33-24.42,18.44-35.84,.28-.45-.42-.86-.71-.42h0Z"/>
            <path class="cls-18" d="M444.88,366.67c-.14,4.02,.1,8.07,.36,12.08,.12,1.83,.28,3.65,.44,5.48,.08,.88,.14,1.77,.26,2.66,.1,.8,.15,1.69,.42,2.45,.09,.25,.54,.33,.59,0,.12-.8,.02-1.64-.02-2.45-.04-.89-.13-1.77-.2-2.66-.13-1.83-.24-3.65-.36-5.48-.27-4.03-.41-8.07-.78-12.08-.04-.45-.69-.46-.71,0h0Z"/>
          </g>
          <g>
            <path class="cls-19" d="M436.53,386.3s-64.17-90.76-43.01-109.38c21.16-18.62,50.02,49.23,43.01,109.38Z"/>
            <path class="cls-5" d="M399.55,287.61c22.35,35.61,34.7,76.45,38.91,118.12,.85,8.37,1.22,16.75,1.79,25.13,.03,.45,.71,.46,.71,0,.27-16.05-1.69-32.36-4.4-48.15-3.55-20.66-9.24-41-17.47-60.29-5.24-12.28-11.48-24.09-18.83-35.23-.29-.44-1-.04-.71,.42h0Z"/>
          </g>
          <g>
            <path class="cls-19" d="M430.57,412.77s39.49-54.27,26.87-65.69c-12.63-11.42-30.6,29.31-26.87,65.69Z"/>
            <path class="cls-5" d="M453.14,353.15c-9.83,14.29-16.52,30.56-20.66,47.37-3.09,12.54-5.5,26.16-5.1,39.13,.01,.47,.66,.45,.71,0,1.44-13.08,2.47-25.94,5.66-38.78,4.16-16.77,10.84-32.7,20.1-47.3,.29-.45-.41-.85-.71-.42h0Z"/>
          </g>
          <g>
            <polygon class="cls-16" points="457.09 452.24 456.81 454.12 456.22 458.11 450.5 496.47 416.41 496.47 410.7 458.11 410.1 454.12 409.82 452.24 457.09 452.24"/>
            <polygon class="cls-25" points="456.81 454.12 456.22 458.11 410.7 458.11 410.1 454.12 456.81 454.12"/>
            <path class="cls-16" d="M457.76,455.84h-48.6c-1.56,0-2.82-1.26-2.82-2.82h0c0-1.56,1.26-2.82,2.82-2.82h48.6c1.56,0,2.82,1.26,2.82,2.82h0c0,1.56-1.26,2.82-2.82,2.82Z"/>
          </g>
        </g>
        <g>
          <path class="cls-21" d="M97.39,422.89v-27.46c0-9.01-7.31-16.32-16.32-16.32h0c-9.01,0-16.32,7.31-16.32,16.32v27.46"/>
          <polygon class="cls-19" points="93.51 496.47 119.4 496.47 110.88 419.52 102.03 419.52 93.51 496.47"/>
          <polygon class="cls-19" points="93.51 496.47 33.83 496.47 42.35 419.52 102.03 419.52 93.51 496.47"/>
          <polygon class="cls-32" points="119.4 496.47 106.45 485.81 93.51 496.47 119.4 496.47"/>
          <polygon class="cls-27" points="106.45 485.81 93.51 496.47 102.03 419.52 106.45 419.52 106.45 485.81"/>
          <path class="cls-21" d="M88.72,422.89v-27.46c0-9.01-7.31-16.32-16.32-16.32h0c-9.01,0-16.32,7.31-16.32,16.32v27.46"/>
        </g>
        <g>
          <path class="cls-23" d="M53.08,446.82v-18.53c0-6.08-4.93-11.01-11.01-11.01h0c-6.08,0-11.01,4.93-11.01,11.01v18.53"/>
          <polygon class="cls-16" points="50.46 496.47 67.93 496.47 62.18 444.54 56.21 444.54 50.46 496.47"/>
          <polygon class="cls-16" points="50.46 496.47 10.18 496.47 15.93 444.54 56.21 444.54 50.46 496.47"/>
          <polygon class="cls-26" points="67.93 496.47 59.19 489.28 50.46 496.47 67.93 496.47"/>
          <polygon class="cls-15" points="59.19 489.28 50.46 496.47 56.21 444.54 59.19 444.54 59.19 489.28"/>
          <path class="cls-23" d="M47.23,446.82v-18.53c0-6.08-4.93-11.01-11.01-11.01h0c-6.08,0-11.01,4.93-11.01,11.01v18.53"/>
        </g>
        <g>
          <path class="cls-13" d="M431.53,73.86h.04s-.42-.2-.42-.2c-.59-.3-1.2-.58-1.83-.83l-9.21-4.21,.55,4.61h-141.48c-14.95,0-27.61,11.02-29.67,25.82l-46.28,331.99c-.37,2.63-.18,5.2,.42,7.61-3.02,1.58-7.97,4.41-7.97,4.41l17.22,8.02h0c2.97,1.75,6.45,2.78,10.19,2.78l142.13-1.95c15.89,0,29.34-11.71,31.54-27.45l45.83-328.81c1.28-9.22-3.49-17.7-11.06-21.79Z"/>
          <path class="cls-16" d="M352.28,445.77H205.79c-12.17,0-21.54-10.76-19.86-22.82L232.21,90.97c2.06-14.8,14.72-25.82,29.67-25.82h146.56c13,0,23,11.49,21.21,24.37l-45.83,328.81c-2.19,15.74-15.65,27.45-31.54,27.45Z"/>
          <path class="cls-3" d="M413.96,94.35c-3.36-5.35-9.3-8.99-16.2-8.99h-130.99c-13.36,0-24.68,9.85-26.52,23.08l-39.71,284.53c-1.5,10.78,6.87,20.39,17.75,20.39h130.93c14.2,0,26.23-10.47,28.19-24.53l39.32-281.69,2.64-17.95-5.39,5.16Z"/>
          <path class="cls-7" d="M304.31,421.97l-1.83,13.07c-.38,2.75-2.74,4.8-5.52,4.8h-29.03c-2.89,0-5.11-2.55-4.71-5.42l1.64-11.71c.36-2.61,2.59-4.55,5.23-4.55h30.92c2.03,0,3.59,1.79,3.31,3.8Z"/>
          <path class="cls-7" d="M368.47,76.8h0c-.34,2.44-2.42,4.25-4.88,4.25h-61.34c-2.77,0-4.9-2.45-4.52-5.19l.11-.77c.38-2.75,2.73-4.79,5.5-4.79h59.47c3.47,0,6.14,3.07,5.66,6.5Z"/>
          <g>
            <path class="cls-35" d="M434.87,111h-3.35c-.06,0-.11,.02-.17,.03-.44-.06-.87,.22-.93,.68l-11.74,84.23c-.1,.74,.3,1.45,.98,1.75l4.79,2.1c.11,.05,.22,.06,.33,.05h0s3.59,0,3.59,0l-5.36-2.91,11.86-85.94Z"/>
            <path class="cls-36" d="M428.03,199.79l-4.79-2.1c-.68-.3-1.08-1.01-.98-1.75l11.74-84.23c.08-.54,.65-.86,1.15-.64l4.59,2.01c.68,.3,1.08,1.01,.98,1.75l-11.77,84.44c-.06,.44-.52,.69-.93,.52Z"/>
          </g>
          <g>
            <path class="cls-33" d="M421.9,203.03h-3.35c-.06,0-.11,.02-.17,.03-.44-.06-.87,.22-.93,.68l-4.05,28.73c-.1,.74,.3,1.45,.98,1.75l4.79,2.1c.11,.05,.22,.06,.33,.05h0s3.59,0,3.59,0l-5.36-2.91,4.17-30.44Z"/>
            <path class="cls-34" d="M422.75,236.33l-4.79-2.1c-.68-.3-1.08-1.02-.98-1.75l4.05-28.73c.08-.54,.65-.86,1.15-.64l4.59,2.01c.68,.3,1.08,1.02,.98,1.75l-4.08,28.94c-.06,.44-.52,.69-.93,.52Z"/>
          </g>
          <path class="cls-16" d="M338.01,380.46l-1.55,11.08c-.33,2.33-2.32,4.07-4.68,4.07h-89.03c-2.45,0-4.33-2.17-3.99-4.59l1.39-9.93c.31-2.21,2.2-3.86,4.43-3.86h90.63c1.72,0,3.04,1.52,2.8,3.22Z"/>
          <path class="cls-19" d="M256.34,382.16l-1.1,7.91c-.23,1.67-1.66,2.91-3.34,2.91h-7.14c-1.75,0-3.09-1.55-2.85-3.28l.99-7.09c.22-1.58,1.57-2.75,3.16-2.75h8.28c1.23,0,2.17,1.09,2,2.3Z"/>
          <polygon class="cls-5" points="252.9 385.68 252.68 387.19 249.84 387.19 249.42 390.16 247.75 390.16 248.17 387.19 245.33 387.19 245.55 385.68 248.38 385.68 248.79 382.75 250.46 382.75 250.05 385.68 252.9 385.68"/>
        </g>
        <g>
          <g>
            <path class="cls-11" d="M108.36,496.47h-17.63c-5,0-3.51-3.61-3.31-7.18h.02c0-.25,.02-.48,.02-.72,0-3.79,.27-15.32,.27-15.32l13.03,.89s-3.37,10.76-.18,13.11c1.34,1,3.33,1.57,5.45,2.07l.02,.02c2.87,.66,6.04,1.23,8.38,2.64,4.1,2.46,.1,4.51-6.05,4.51Z"/>
            <path class="cls-5" d="M117.5,496.44s-21.95,.03-27.44,0c-1.98-.01-2.92,.03-4.37,.03,0-.21,0-.45,.01-.71,.04-2.84,.4-8.19,1.72-7.89,7.66,1.79,9.57,.79,13.14-.64,1.82,1.15,5.16,2,7.27,2.49,7.68,.33,9.26,4.41,9.58,6.05,.08,.41,.08,.67,.08,.67Z"/>
            <g>
              <path class="cls-22" d="M102.81,488.08s-.92,.45-1.24,1.59"/>
              <path class="cls-22" d="M105.32,488.87s-.91,.46-1.22,1.61"/>
              <path class="cls-22" d="M107.78,489.6s-.85,.57-1.01,1.75"/>
            </g>
          </g>
          <g>
            <path class="cls-11" d="M173.2,496.47h-17.63c-5,0-3.51-3.61-3.31-7.18h.02c0-.25-.08-.5,.02-.72,1.56-3.68-3.1-14.15-3.1-14.15l13.5-.24s-.46,10.71,2.72,13.06c1.34,1,3.33,1.57,5.45,2.07l.02,.02c2.87,.66,6.04,1.23,8.38,2.64,4.1,2.46,.1,4.51-6.05,4.51Z"/>
            <path class="cls-5" d="M182.35,496.44s-21.95,.03-27.44,0c-1.98-.01-2.92,.03-4.37,.03,0-.21,0-.45,.01-.71,.04-2.84,.4-8.19,1.72-7.89,7.66,1.79,9.57,.79,13.14-.64,1.82,1.15,5.16,2,7.27,2.49,7.68,.33,9.26,4.41,9.58,6.05,.08,.41,.08,.67,.08,.67Z"/>
            <g>
              <path class="cls-22" d="M167.66,488.08s-.92,.45-1.24,1.59"/>
              <path class="cls-22" d="M170.16,488.87s-.91,.46-1.22,1.61"/>
              <path class="cls-22" d="M172.63,489.6s-.84,.57-1.01,1.75"/>
            </g>
          </g>
          <g>
            <g>
              <path class="cls-4" d="M201.01,207.16c-1.03,1.74-1.63,2.13-2.6,2.97-.97,.84-3.89,2.3-4.04,2.08-.15-.22-.71-2.78,.25-4.3,.96-1.52,1.54-3.6,.34-2.85-1.2,.75-7.38,5.65-8.11,13.56,1.76,1.68,3.69,4.5,5.53,6.04,0,0,1.82-2.55,3.64-3.37,2.49-1.13,3.56-3.21,4-5.3,.33-1.58,2.96-8.24,3.32-10.13,.36-1.89-1.29-.44-2.32,1.31Z"/>
              <path class="cls-10" d="M202.59,208.39c-.66,1.28-1.4,2.52-2.18,3.73-.36,.64-1,1.1-1.58,1.49-.6,.4-1.22,.77-1.85,1.12l1.76-1.25c.58-.43,1.16-.83,1.5-1.47,.8-1.19,1.54-2.43,2.35-3.62Z"/>
              <path class="cls-10" d="M200.9,213.2c-.22,.4-.45,.78-.69,1.16-.25,.38-.5,.75-.8,1.1-.67,.63-1.4,1.15-2.16,1.63,.66-.62,1.39-1.16,2.02-1.78,.3-.32,.55-.7,.82-1.05,.27-.36,.54-.72,.82-1.07Z"/>
            </g>
            <path class="cls-4" d="M80.72,282.51l15.71,16.09s-4.72,9.8-4.95,11.16c-.34,2.01,1.25,4.93,1.25,4.93l10.86-16.48-9.71-16.67-13.15,.96Z"/>
            <g>
              <path class="cls-16" d="M138.31,298.6s23.5,78.8,24.78,86.21c1.28,7.41,.7,89.08,.7,97.96-4.3,.78-10.19,.98-12.38,.72-7.99-29.29-15.65-48.87-13.1-84.89,0-9.96-4.85-20.43-12.77-34.99-7.92-14.56-10.47-16.86-10.47-16.86,0,0-22.99-16.86-10.47-36.02"/>
              <path class="cls-16" d="M102.87,298.6s-13.79,10.92-13.41,23.95c.57,8.05,5.17,19.16,5.17,19.16,0,0,4.21,39.27,3.07,45.4-1.15,6.13-10.94,17.05-10.65,55.94-.3,12.05,.33,38.56,.37,40.1,3.63,.77,11.81,0,11.81,0,0,0,20.43-80.76,22.73-92.1,2.3-11.35,5.62-42.25,5.62-42.25l9.77-53.38-34.48,3.19Z"/>
              <g class="cls-30">
                <path class="cls-14" d="M126.05,364.43c-3.54-5.91-6.88-12.1-11.22-17.45-11.47-8.23-19.28-23.03-10.23-36.25-.86,1.51-1.6,3.08-2.18,4.71-4.46,11.93,3.46,24.14,12.89,31.08,4.35,5.49,7.5,11.75,10.75,17.92h0Z"/>
              </g>
            </g>
            <path class="cls-19" d="M138.31,298.6c-3.16,2.68-6.42,1.44-11.4,1.92-4.98,.48-14.65,.09-20.11,0-5.46-.09-7.39-.95-4.69-4.31,2.67-3.36-3.17-16.38-3.17-16.38l-3.16-35.25,7.66-14.5,15.71,1.09h5.1l14.05,29.32s-.09,.52-.34,1.35c-.58,1.93-2.04,5.56-5.38,8.38-.02,.02-.03,.03-.03,.03,2.68,15.33,3.74,21.07,4.69,22.02s4.21,3.65,1.06,6.33Z"/>
            <path class="cls-4" d="M119.02,216.56s.39,13.08,5.25,14.61c-1.92,3.19-6.77,4.52-14.69,1.04-1.53-9.98-1.15-20.2-1.15-20.2l8.35,.64,2.24,3.9Z"/>
            <path class="cls-4" d="M186.85,218.62c-.02,.14-21.08,18.2-27.5,23.5-3.75,0-20.18-5.02-20.18-5.02l-2.68,20.02s20.91,2.84,27.17,.8c6.12-2,23.22-24.98,29.75-34.78-2.6-1.55-4.41-2.93-6.55-4.52Z"/>
            <path class="cls-19" d="M124.27,231.17s14.06,5.15,20.1,6.4c7.65,5.32-3.75,22.72-4.14,24.63-4.79-.57-14.21-2.49-21.07-7.09"/>
            <g class="cls-30">
              <path class="cls-14" d="M140.23,262.2c-7.43-.46-15.07-2.56-21.07-7.09,6.55,3.61,13.79,5.58,21.07,7.09h0Z"/>
            </g>
            <path class="cls-9" d="M119.02,216.56s-3.02-.55-4.41-1.5c1.32,2.44,4.55,3.56,4.55,3.56l-.14-2.06Z"/>
            <path class="cls-16" d="M123.1,188.04c-.06-1.44-.42-2.87-1.16-4.1-1.51-2.49-5.02-5.92-12.74-5.26-11.88,1.02-18.14,9.2-21.07,21.84-2.94,12.64-5.17,21.46-19.54,28.54-14.37,7.09-37.93,43.1,17.43,56.13,18.39,3.83,26.82-10.15,26.44-25.86-.38-15.71-.19-15.52,2.11-20.69,2.3-5.17,8.05-17.82-5.17-29.69,10.13-7.6,14.11-11.61,13.72-20.91Z"/>
            <path class="cls-4" d="M122.99,186.34s11.49,19.92,1.15,29.88c-1.53,.57-10.54,2.11-14.75-7.28-1.72-.19-6.71-5.36-2.87-8.43,1.51-.75,3.68-.8,4.79,.71,.66,.9,1.85,1.24,2.76,.59,3.45-2.48,8.83-9.14,8.93-15.47Z"/>
            <path class="cls-4" d="M187.07,217.1s-.3,1.39-.99,2.22c.04,.98,.78,.94,.78,.94l.21-3.17Z"/>
          </g>
          <path d="M121.62,183.44c1.07,1.68,1.77,3.59,2.05,5.59,.26,1.99,0,4.1-.9,5.93-.93,1.81-2.32,3.35-3.96,4.5-.81,.58-1.72,1.02-2.58,1.53l-2.78,1.1,2.66-1.32c.82-.55,1.69-1.02,2.46-1.62,1.55-1.19,2.88-2.67,3.73-4.41,.89-1.73,1.14-3.72,.98-5.66-.11-.97-.28-1.94-.57-2.88-.26-.95-.62-1.87-1.08-2.75Z"/>
        </g>
        <g>
          <g>
            <path class="cls-19" d="M321.02,246.42h59.03c4.75,0,8.77-3.5,9.43-8.21l12.14-86.97c.48-3.43-2.18-6.49-5.64-6.49h-60.38c-4.05,0-7.48,2.98-8.04,6.99l-12.29,88.06c-.49,3.5,2.23,6.62,5.76,6.62Z"/>
            <polygon class="cls-5" points="395.06 149.51 394.24 155.38 335.54 155.38 336.36 149.51 395.06 149.51"/>
            <polygon class="cls-5" points="382.51 230.15 381.91 234.41 323.23 234.41 323.83 230.15 382.51 230.15"/>
            <polygon class="cls-5" points="338.27 235.75 337.97 237.88 322.47 237.88 322.77 235.75 338.27 235.75"/>
            <g>
              <path class="cls-5" d="M377.22,178.08c-.45-12.32-5.52-16.49-5.52-16.49h-20.39s-6.23,4.16-10.15,16.49c-3.92,12.32,.97,47.54,.97,47.54h7.04l8.79-45.57c.09-.45,.56-.8,1.07-.8h0c.51,0,.88,.35,.84,.8l-4.02,45.57h7.04s14.79-35.21,14.33-47.54Z"/>
              <path class="cls-5" d="M371.38,160.28h-19.43c-.24,0-.47,.2-.5,.44h0c-.03,.24,.14,.44,.38,.44h19.43c.24,0,.47-.2,.5-.44h0c.03-.24-.14-.44-.38-.44Z"/>
            </g>
          </g>
          <g>
            <path class="cls-19" d="M304.63,360.29h59.03c4.75,0,8.77-3.5,9.43-8.21l12.14-86.97c.48-3.43-2.18-6.49-5.64-6.49h-60.38c-4.05,0-7.48,2.98-8.04,6.99l-12.29,88.06c-.49,3.5,2.23,6.62,5.76,6.62Z"/>
            <polygon class="cls-5" points="378.67 263.39 377.85 269.25 319.15 269.25 319.97 263.39 378.67 263.39"/>
            <polygon class="cls-5" points="366.12 344.03 365.52 348.28 306.84 348.28 307.44 344.03 366.12 344.03"/>
            <path class="cls-5" d="M356.71,305.67c-1.12-8.67-5.61-17-3.53-22.34,2.08-5.33,4.76-10.17,4.76-10.17,.89-1.69-.14-3.38-3.88,.72-4.37,4.78-9.39,5.11-9.39,5.11,0,0-4.93-.33-7.95-5.11-2.59-4.1-4.1-2.41-3.68-.72,0,0,1.32,4.83,1.9,10.17,.58,5.33-6.26,13.67-9.81,22.34-3.55,8.67,3.56,35.56,3.56,35.56h14.45s14.67-26.89,13.56-35.56Z"/>
            <g>
              <path class="cls-6" d="M388.79,288.88c-1.17,8.34-8.88,15.1-17.22,15.1s-14.15-6.76-12.98-15.1c1.17-8.34,8.88-15.1,17.22-15.1s14.15,6.76,12.98,15.1Z"/>
              <text class="cls-37" transform="translate(362.68 291.63)"><tspan x="0" y="0">SALE</tspan></text>
            </g>
            <polygon class="cls-5" points="321.88 349.62 321.58 351.75 306.08 351.75 306.38 349.62 321.88 349.62"/>
          </g>
          <g>
            <path class="cls-19" d="M220.11,360.29h59.03c4.75,0,8.77-3.5,9.43-8.21l12.14-86.97c.48-3.43-2.18-6.49-5.64-6.49h-60.38c-4.05,0-7.48,2.98-8.04,6.99l-12.29,88.06c-.49,3.5,2.23,6.62,5.76,6.62Z"/>
            <polygon class="cls-5" points="294.15 263.39 293.33 269.25 234.63 269.25 235.46 263.39 294.15 263.39"/>
            <polygon class="cls-5" points="281.6 344.03 281 348.28 222.32 348.28 222.92 344.03 281.6 344.03"/>
            <g>
              <path class="cls-5" d="M235.07,299.21c1.85-7.43,6.65-13.36,9.1-16.01,.88-.96,2.1-1.51,3.32-1.51h25.65c1.22,0,2.28,.55,2.9,1.51,1.71,2.65,4.85,8.57,4.61,16.01-.33,10.17-13.37,37.29-13.37,37.29h-29.31s-5.42-27.12-2.89-37.29Z"/>
              <path class="cls-5" d="M246.67,279.65h27.88c.47,0,.79,.38,.73,.85h0c-.07,.47-.5,.85-.97,.85h-27.88c-.47,0-.79-.38-.73-.85h0c.07-.47,.5-.85,.97-.85Z"/>
            </g>
            <polygon class="cls-5" points="237.7 349.62 237.39 351.75 221.89 351.75 222.19 349.62 237.7 349.62"/>
          </g>
        </g>
        <g>
          <polygon class="cls-5" points="245.41 85.36 212.27 100.47 388.96 100.47 422.25 85.36 245.41 85.36"/>
          <path class="cls-17" d="M212.27,100.47h19.63v21.42c0,5.41-4.39,9.79-9.79,9.79h-.04c-5.41,0-9.79-4.39-9.79-9.79v-21.42h0Z"/>
          <path class="cls-5" d="M231.9,100.47h19.63v21.42c0,5.41-4.39,9.79-9.79,9.79h-.04c-5.41,0-9.79-4.39-9.79-9.79v-21.42h0Z"/>
          <path class="cls-17" d="M251.53,100.47h19.63v21.42c0,5.41-4.39,9.79-9.79,9.79h-.04c-5.41,0-9.79-4.39-9.79-9.79v-21.42h0Z"/>
          <path class="cls-5" d="M271.16,100.47h19.63v21.42c0,5.41-4.39,9.79-9.79,9.79h-.04c-5.41,0-9.79-4.39-9.79-9.79v-21.42h0Z"/>
          <path class="cls-17" d="M290.78,100.47h19.63v21.42c0,5.41-4.39,9.79-9.79,9.79h-.04c-5.41,0-9.79-4.39-9.79-9.79v-21.42h0Z"/>
          <path class="cls-5" d="M310.41,100.47h19.63v21.42c0,5.41-4.39,9.79-9.79,9.79h-.04c-5.41,0-9.79-4.39-9.79-9.79v-21.42h0Z"/>
          <path class="cls-17" d="M330.04,100.47h19.63v21.42c0,5.41-4.39,9.79-9.79,9.79h-.04c-5.41,0-9.79-4.39-9.79-9.79v-21.42h0Z"/>
          <path class="cls-5" d="M349.67,100.47h19.63v21.42c0,5.41-4.39,9.79-9.79,9.79h-.04c-5.41,0-9.79-4.39-9.79-9.79v-21.42h0Z"/>
          <path class="cls-17" d="M369.29,100.47h19.63v21.42c0,5.41-4.39,9.79-9.79,9.79h-.04c-5.41,0-9.79-4.39-9.79-9.79v-21.42h0Z"/>
          <polygon class="cls-17" points="265.04 85.36 231.9 100.47 212.27 100.47 245.41 85.36 265.04 85.36"/>
          <polygon class="cls-17" points="304.3 85.36 271.16 100.47 251.53 100.47 284.67 85.36 304.3 85.36"/>
          <polygon class="cls-17" points="343.55 85.36 310.41 100.47 290.78 100.47 323.92 85.36 343.55 85.36"/>
          <polygon class="cls-17" points="382.81 85.36 349.67 100.47 330.04 100.47 363.18 85.36 382.81 85.36"/>
          <polygon class="cls-17" points="422.25 85.36 388.92 100.47 369.29 100.47 402.43 85.36 422.25 85.36"/>
          <polyline class="cls-12" points="422.25 85.36 419.22 106.96 388.92 121.89 388.92 100.47"/>
        </g>
        <g>
          <path class="cls-17" d="M215.75,248.36h75.67c6.09,0,11.25-4.49,12.09-10.52l15.56-111.5c.61-4.39-2.8-8.31-7.23-8.31h-77.41c-5.19,0-9.58,3.82-10.3,8.96l-15.76,112.89c-.63,4.48,2.86,8.48,7.38,8.48Z"/>
          <path class="cls-19" d="M213.3,246.42h75.67c6.09,0,11.25-4.49,12.09-10.52l15.56-111.5c.61-4.39-2.8-8.31-7.23-8.31h-77.41c-5.19,0-9.58,3.82-10.3,8.96l-15.76,112.89c-.63,4.48,2.86,8.48,7.38,8.48Z"/>
          <path class="cls-16" d="M184.62,156.42h39.06c1.95,0,3.6-1.44,3.87-3.37l1.89-12.48c.2-1.41-.9-2.66-2.31-2.66h-39.61c-1.66,0-3.07,1.22-3.3,2.87l-1.95,12.92c-.2,1.43,.91,2.71,2.36,2.71Z"/>
          <path class="cls-5" d="M301.03,170.37s-1.78-15.38-2.91-21.35c-1.13-5.97-6.19-8.41-6.19-8.41-16.26,10.84-37.01,10.84-50.22,0,0,0-5.74,2.43-8.55,8.41-2.81,5.97-8.92,21.35-8.92,21.35l13.1,4.1,3.29-5.37-8.32,47.96h47.52l5.16-47.96,1.78,5.37,14.26-4.1Z"/>
          <polygon class="cls-5" points="308.22 122.19 307.17 129.71 231.92 129.71 232.97 122.19 308.22 122.19"/>
          <polygon class="cls-5" points="292.13 225.57 291.36 231.02 216.13 231.02 216.91 225.57 292.13 225.57"/>
          <polygon class="cls-5" points="235.42 232.74 235.03 235.47 215.16 235.47 215.54 232.74 235.42 232.74"/>
          <text class="cls-8" transform="translate(194.26 149.95)"><tspan x="0" y="0">SALE</tspan></text>
          <text class="cls-8" transform="translate(261.86 389.08)"><tspan x="0" y="0">ADD </tspan><tspan class="cls-1" x="22.71" y="0">T</tspan><tspan x="27.91" y="0">O </tspan><tspan class="cls-28" x="37.37" y="0">C</tspan><tspan x="43.41" y="0">A</tspan><tspan class="cls-1" x="49.95" y="0">R</tspan><tspan x="56.03" y="0">T</tspan></text>
        </g>
        <g>
          <path class="cls-19" d="M77.32,157.07H36.63c-2.35,0-4.25,1.9-4.25,4.25v18.59c0,2.35,1.9,4.25,4.25,4.25h30.41c.81,0,1.58,.39,2.05,1.06l6.47,9.06c.21,.3,.68,.15,.68-.22v-8.82c0-.6,.48-1.08,1.08-1.08h0c2.35,0,4.25-1.9,4.25-4.25v-18.59c0-2.35-1.9-4.25-4.25-4.25Z"/>
          <line class="cls-24" x1="37.8" y1="161.1" x2="76.15" y2="161.1"/>
          <line class="cls-24" x1="37.8" y1="165.71" x2="76.15" y2="165.71"/>
          <line class="cls-24" x1="37.8" y1="170.33" x2="76.15" y2="170.33"/>
          <line class="cls-24" x1="37.8" y1="174.94" x2="76.15" y2="174.94"/>
          <line class="cls-24" x1="37.8" y1="179.55" x2="56.97" y2="179.55"/>
        </g>
        <g class="cls-31">
          <path class="cls-19" d="M203.69,61.74c-1.48,10.56-11.24,19.11-21.8,19.11s-17.91-8.56-16.43-19.11c1.48-10.56,11.24-19.11,21.8-19.11s17.91,8.56,16.43,19.11Z"/>
        </g>
        <path class="cls-20" d="M464.11,279.65c-1.48,10.56-11.24,19.11-21.8,19.11s-17.91-8.56-16.43-19.11c1.48-10.56,11.24-19.11,21.8-19.11s17.91,8.56,16.43,19.11Z"/>
      </g>
    </g>
  </g>
</svg>