<svg width="29" height="29" viewBox="0 0 29 29" fill="none" xmlns="http://www.w3.org/2000/svg">
<g id="mail_FILL0_wght400_GRAD0_opsz24 (4)">
<path id="Vector" d="M4.96927 24.0344C4.31385 24.0344 3.75278 23.8011 3.28604 23.3343C2.81931 22.8676 2.58594 22.3065 2.58594 21.6511V7.35111C2.58594 6.69569 2.81931 6.13461 3.28604 5.66788C3.75278 5.20114 4.31385 4.96777 4.96927 4.96777H24.0359C24.6914 4.96777 25.2524 5.20114 25.7192 5.66788C26.1859 6.13461 26.4193 6.69569 26.4193 7.35111V21.6511C26.4193 22.3065 26.1859 22.8676 25.7192 23.3343C25.2524 23.8011 24.6914 24.0344 24.0359 24.0344H4.96927ZM14.5026 15.6928L4.96927 9.73444V21.6511H24.0359V9.73444L14.5026 15.6928ZM14.5026 13.3094L24.0359 7.35111H4.96927L14.5026 13.3094ZM4.96927 9.73444V7.35111V21.6511V9.73444Z" fill="white"/>
</g>
</svg>
