<svg xmlns="http://www.w3.org/2000/svg" width="512.000000pt" height="512.000000pt" viewBox="0 0 512.000000 512.000000" preserveAspectRatio="xMidYMid meet"><g transform="translate(0.000000,512.000000) scale(0.050000,-0.050000)" fill="#1fc07d" stroke="none"><path d="M7437 9763 c-282 -249 -722 -637 -978 -863 -257 -225 -563 -498 -682 -604 l-215 -195 74 -18 c41 -10 241 -56 444 -103 641 -147 631 -143 623 -200 -6 -46 -299 -1235 -413 -1680 -27 -104 -184 -739 -350 -1410 -166 -671 -328 -1323 -360 -1450 -32 -126 -130 -518 -217 -869 -86 -352 -166 -642 -177 -646 -10 -3 -35 82 -54 190 -20 107 -66 353 -104 545 -37 193 -81 431 -99 530 -17 99 -107 482 -200 850 -92 369 -183 729 -200 800 -18 72 -62 247 -98 390 -37 143 -87 343 -113 445 -25 101 -51 194 -58 205 -8 14 -287 21 -811 21 l-799 1 -24 -96 c-14 -53 -98 -402 -187 -776 -248 -1044 -276 -1162 -339 -1420 -32 -132 -95 -433 -140 -670 -196 -1017 -205 -1060 -226 -990 -6 22 -39 270 -73 550 -105 867 -185 1490 -193 1498 -4 4 -73 -11 -153 -34 -80 -23 -262 -74 -405 -114 -143 -40 -363 -103 -490 -140 -126 -37 -269 -78 -317 -90 -52 -14 -83 -32 -77 -46 8 -23 166 -519 337 -1064 45 -143 103 -323 128 -400 25 -77 83 -259 129 -405 l83 -265 1008 0 1007 0 20 75 c22 83 311 1257 391 1585 28 116 60 278 71 360 11 83 46 299 78 480 32 182 83 479 112 660 30 182 62 339 72 349 11 12 18 12 18 0 0 -10 14 -95 31 -189 37 -202 176 -1011 231 -1350 22 -132 62 -325 88 -430 27 -104 85 -343 130 -530 44 -187 119 -491 165 -675 l83 -335 993 0 993 0 35 155 c19 85 66 272 103 415 37 143 109 431 160 640 50 209 113 461 139 560 27 99 292 1161 590 2360 298 1199 550 2188 560 2198 10 10 102 -4 223 -34 188 -48 400 -98 821 -194 85 -20 155 -30 155 -23 0 7 -50 153 -111 323 -61 171 -141 396 -178 500 -103 294 -318 902 -421 1190 -51 143 -118 332 -149 420 -31 88 -80 227 -109 308 -28 82 -54 150 -57 153 -3 2 -236 -199 -518 -448z"></path></g></svg>