<svg width="49" height="42" viewBox="0 0 49 42" fill="none" xmlns="http://www.w3.org/2000/svg">
<path fill-rule="evenodd" clip-rule="evenodd" d="M7.9431 23.9334C7.84393 24.1324 7.66985 24.2838 7.45908 24.3546C7.24831 24.4253 7.01809 24.4095 6.81896 24.3106L1.41809 21.6289C1.21915 21.5297 1.06767 21.3557 0.996863 21.1449C0.926054 20.9342 0.941693 20.704 1.04035 20.5048L7.06085 8.38164C7.10983 8.28292 7.17778 8.19482 7.26082 8.12237C7.34385 8.04992 7.44034 7.99453 7.54479 7.95937C7.64923 7.92422 7.75957 7.90998 7.86952 7.91747C7.97946 7.92496 8.08685 7.95404 8.18556 8.00304L13.5859 10.6856C13.7845 10.7849 13.9359 10.9587 14.0068 11.1692C14.0778 11.3796 14.0625 11.6096 13.9645 11.8089L7.9431 23.9334ZM47.8679 20.5048C47.9666 20.704 47.9822 20.9342 47.9114 21.1449C47.8406 21.3557 47.6891 21.5297 47.4902 21.6289L42.0898 24.3106C41.8906 24.4095 41.6603 24.4254 41.4495 24.3546C41.2386 24.2839 41.0644 24.1324 40.9652 23.9334L34.9438 11.809C34.8457 11.6098 34.8304 11.3798 34.9013 11.1694C34.9721 10.9589 35.1233 10.785 35.3219 10.6857L40.7227 8.00313C40.8214 7.95413 40.9288 7.92506 41.0387 7.91757C41.1487 7.91008 41.259 7.92432 41.3634 7.95948C41.4679 7.99463 41.5644 8.05002 41.6474 8.12247C41.7304 8.19492 41.7984 8.28302 41.8473 8.38173L47.8679 20.5048Z" fill="#45B34A"/>
<path fill-rule="evenodd" clip-rule="evenodd" d="M32.3044 35.3762L34.2893 38.8154C34.3289 38.8806 34.3551 38.9532 34.3663 39.0286C34.3775 39.1041 34.3735 39.1811 34.3546 39.2551C34.3356 39.329 34.3021 39.3984 34.256 39.4592C34.2099 39.52 34.1521 39.571 34.086 39.6092C34.0199 39.6474 33.9468 39.672 33.8711 39.6815C33.7954 39.6911 33.7185 39.6854 33.645 39.6649C33.5715 39.6443 33.5028 39.6093 33.443 39.5619C33.3832 39.5144 33.3335 39.4555 33.2968 39.3886L31.3114 35.9494C31.2738 35.8842 31.2494 35.8122 31.2395 35.7376C31.2297 35.663 31.2347 35.5871 31.2542 35.5144C31.2737 35.4417 31.3073 35.3735 31.3531 35.3138C31.399 35.2541 31.4561 35.204 31.5213 35.1663C31.5865 35.1287 31.6585 35.1043 31.7331 35.0944C31.8078 35.0846 31.8836 35.0896 31.9563 35.1091C32.029 35.1286 32.0972 35.1622 32.1569 35.208C32.2167 35.2539 32.2668 35.311 32.3044 35.3762ZM16.4134 9.04422L13.4293 3.87587C13.3916 3.81068 13.3672 3.7387 13.3574 3.66406C13.3475 3.58942 13.3525 3.51358 13.372 3.44086C13.3915 3.36815 13.4251 3.29998 13.471 3.24026C13.5168 3.18054 13.5739 3.13043 13.6391 3.09279C13.7043 3.05515 13.7763 3.03073 13.851 3.02091C13.9256 3.01109 14.0014 3.01606 14.0742 3.03555C14.1469 3.05504 14.215 3.08866 14.2748 3.1345C14.3345 3.18033 14.3846 3.23748 14.4222 3.30268L17.4058 8.47102C17.4435 8.53613 17.468 8.60803 17.4779 8.68262C17.4878 8.75721 17.4828 8.83301 17.4634 8.90569C17.4439 8.97837 17.4103 9.0465 17.3645 9.10617C17.3187 9.16584 17.2615 9.21588 17.1963 9.25344C17.1094 9.30434 17.0104 9.33109 16.9097 9.33091C16.809 9.33098 16.7101 9.30452 16.6229 9.25421C16.5357 9.2039 16.4633 9.13151 16.4129 9.04431L16.4134 9.04422ZM41.3302 32.0086C41.4619 32.0846 41.5581 32.2098 41.5975 32.3567C41.6369 32.5036 41.6164 32.6602 41.5404 32.7919C41.4643 32.9237 41.3391 33.0199 41.1922 33.0593C41.0453 33.0987 40.8887 33.0781 40.757 33.0021L36.9729 30.8176C36.9077 30.7799 36.8506 30.7298 36.8048 30.6701C36.7589 30.6104 36.7253 30.5422 36.7058 30.4695C36.6863 30.3968 36.6814 30.321 36.6912 30.2463C36.701 30.1717 36.7254 30.0997 36.7631 30.0345C36.8007 29.9693 36.8508 29.9122 36.9105 29.8664C36.9703 29.8205 37.0384 29.7869 37.1111 29.7674C37.1838 29.7479 37.2597 29.743 37.3343 29.7528C37.409 29.7626 37.4809 29.787 37.5461 29.8247L41.3302 32.0089V32.0086ZM12.1483 30.0345C12.2243 30.1662 12.2448 30.3226 12.2054 30.4694C12.1659 30.6162 12.0698 30.7413 11.9382 30.8173L8.15468 33.0018C8.02293 33.0778 7.86637 33.0984 7.71946 33.059C7.57255 33.0196 7.44732 32.9234 7.37131 32.7917C7.29529 32.6599 7.27474 32.5033 7.31415 32.3564C7.35357 32.2095 7.44973 32.0843 7.58148 32.0083L11.3646 29.8241C11.4298 29.7863 11.5018 29.7617 11.5765 29.7518C11.6512 29.7419 11.7272 29.7469 11.8 29.7664C11.8727 29.7859 11.941 29.8197 12.0007 29.8656C12.0604 29.9116 12.1105 29.9689 12.148 30.0343L12.1483 30.0345ZM31.7158 9.25334C31.6506 9.21584 31.5934 9.16583 31.5475 9.10618C31.5016 9.04653 31.4679 8.97842 31.4484 8.90574C31.4289 8.83306 31.4239 8.75724 31.4337 8.68263C31.4435 8.60802 31.468 8.53607 31.5057 8.47092L34.4897 3.30258C34.5657 3.17092 34.6909 3.07484 34.8378 3.03549C34.9846 2.99614 35.1411 3.01673 35.2728 3.09274C35.4044 3.16875 35.5005 3.29395 35.5399 3.4408C35.5792 3.58765 35.5586 3.74412 35.4826 3.87578L32.4981 9.04412C32.4477 9.13131 32.3753 9.20371 32.2881 9.25402C32.2009 9.30433 32.102 9.33079 32.0013 9.33072C31.9008 9.33095 31.8021 9.3042 31.7155 9.25324L31.7158 9.25334ZM17.391 35.1657C17.5225 35.242 17.6185 35.3673 17.6578 35.5141C17.6971 35.661 17.6765 35.8174 17.6006 35.9491L15.6148 39.3883C15.5644 39.4754 15.4919 39.5478 15.4047 39.5981C15.3175 39.6484 15.2187 39.6749 15.118 39.6749C15.0176 39.675 14.9189 39.6482 14.8323 39.5974C14.767 39.5599 14.7098 39.5099 14.6639 39.4503C14.618 39.3906 14.5844 39.3225 14.5648 39.2498C14.5453 39.1772 14.5403 39.1013 14.5501 39.0267C14.56 38.9521 14.5844 38.8802 14.6221 38.815L16.6078 35.3758C16.6454 35.3106 16.6955 35.2533 16.7553 35.2075C16.815 35.1616 16.8832 35.1279 16.956 35.1084C17.0287 35.0889 17.1046 35.0839 17.1793 35.0937C17.254 35.1035 17.326 35.128 17.3912 35.1657L17.391 35.1657ZM23.883 6.70729V0.573199C23.883 0.421177 23.9434 0.275382 24.0509 0.167886C24.1583 0.0603907 24.3041 0 24.4562 0C24.6082 0 24.754 0.0603907 24.8615 0.167886C24.969 0.275382 25.0294 0.421177 25.0294 0.573199V6.70729C25.0294 6.85931 24.969 7.0051 24.8615 7.1126C24.754 7.2201 24.6082 7.28049 24.4562 7.28049C24.3041 7.28049 24.1583 7.2201 24.0509 7.1126C23.9434 7.0051 23.883 6.85931 23.883 6.70729ZM24.4562 37.0266C24.6082 37.0266 24.754 37.087 24.8615 37.1945C24.969 37.302 25.0294 37.4478 25.0294 37.5998V41.4268C25.0294 41.5788 24.969 41.7246 24.8615 41.8321C24.754 41.9396 24.6082 42 24.4562 42C24.3041 42 24.1583 41.9396 24.0509 41.8321C23.9434 41.7246 23.883 41.5788 23.883 41.4268V37.5999C23.8829 37.5246 23.8977 37.4501 23.9264 37.3805C23.9552 37.3109 23.9974 37.2477 24.0507 37.1945C24.1039 37.1412 24.1671 37.099 24.2367 37.0702C24.3063 37.0414 24.3809 37.0267 24.4562 37.0267V37.0266ZM41.1382 23.848C41.1761 23.9242 41.2286 23.9921 41.2928 24.048C41.3569 24.1038 41.4315 24.1465 41.5121 24.1735C41.5928 24.2006 41.678 24.2115 41.7629 24.2056C41.8477 24.1997 41.9306 24.1771 42.0068 24.1392L47.407 21.4575C47.5606 21.3809 47.6776 21.2464 47.7323 21.0837C47.7869 20.921 47.7748 20.7432 47.6986 20.5894L41.6781 8.46624C41.6242 8.35801 41.5412 8.26696 41.4384 8.20333C41.3356 8.1397 41.2171 8.10602 41.0962 8.10608C40.9967 8.10601 40.8986 8.12917 40.8096 8.17372L35.4089 10.8563C35.2556 10.9331 35.139 11.0673 35.0843 11.2297C35.0295 11.3921 35.0413 11.5696 35.1168 11.7234L41.1382 23.8478V23.848ZM37.3437 24.6561L31.477 20.429C31.3672 20.3499 31.2329 20.3122 31.0979 20.3227C29.6893 20.4328 28.2752 20.1962 26.9792 19.6335C25.6832 19.0707 24.5448 18.1991 23.6635 17.0947C23.5718 16.9798 23.4395 16.9046 23.2938 16.8846C23.1482 16.8645 23.0005 16.9012 22.8811 16.9869C19.6256 19.3311 18.8576 19.6758 18.6878 19.7237C16.8079 19.7428 15.9344 19.2852 15.4874 18.0416L22.4076 12.9027C22.6118 12.745 22.8462 12.6308 23.0963 12.5673C23.3464 12.5037 23.6068 12.4921 23.8616 12.5331L33.524 13.892C33.6366 13.9074 33.7512 13.8895 33.8539 13.8406L34.6877 13.4365L39.5647 23.2573L37.3437 24.6561ZM37.6818 27.9454C37.8866 27.6648 37.9721 27.3145 37.9196 26.971C37.8672 26.6276 37.6811 26.3188 37.4019 26.112L30.9743 21.4796C29.5048 21.5629 28.0354 21.3137 26.6755 20.7505C25.3157 20.1873 24.1003 19.3247 23.1199 18.2269C19.4336 20.8585 19.0154 20.8653 18.735 20.8693C17.1219 20.8923 15.1695 20.6277 14.3894 18.3729C14.3135 18.1554 14.3092 17.9192 14.3771 17.699C14.4451 17.4789 14.5817 17.2862 14.767 17.1493L19.9082 13.3317C18.0251 13.037 16.1054 13.0673 14.2325 13.4214L9.13179 23.6903L9.47208 23.9436C15.4358 28.3687 19.3754 31.2919 25.6276 34.7502C26.2163 35.075 27.0606 35.1391 27.5228 34.5094C27.7277 34.2291 27.8132 33.879 27.7608 33.5357C27.7084 33.1924 27.5222 32.8838 27.243 32.6774C27.243 32.676 27.2421 32.676 27.2416 32.676L24.0402 30.3224C23.9778 30.2786 23.9248 30.2227 23.8842 30.1581C23.8437 30.0935 23.8165 30.0214 23.8041 29.9462C23.7918 29.8709 23.7946 29.7939 23.8124 29.7197C23.8302 29.6456 23.8626 29.5757 23.9077 29.5142C23.9529 29.4527 24.0098 29.4009 24.0753 29.3617C24.1407 29.3225 24.2133 29.2968 24.2888 29.286C24.3643 29.2752 24.4412 29.2796 24.515 29.2989C24.5888 29.3183 24.658 29.3521 24.7185 29.3985L29.2733 32.7468C29.5535 32.9528 29.9041 33.0392 30.2479 32.9868C30.5918 32.9344 30.9007 32.7475 31.1068 32.4673C31.3129 32.1871 31.3992 31.8366 31.3468 31.4927C31.2944 31.1489 31.1076 30.8399 30.8274 30.6339L27.494 28.1843C27.3715 28.0942 27.2898 27.9592 27.2668 27.8089C27.2438 27.6585 27.2815 27.5052 27.3716 27.3827C27.4617 27.2602 27.5967 27.1784 27.747 27.1555C27.8974 27.1325 28.0506 27.1702 28.1732 27.2603L31.5057 29.7099H31.5065V29.7108L32.7284 30.6088C33.0087 30.8128 33.3585 30.8975 33.7011 30.8443C34.0437 30.7912 34.3514 30.6045 34.5567 30.3251C34.762 30.0457 34.8484 29.6963 34.7968 29.3535C34.7452 29.0106 34.56 28.7021 34.2816 28.4954L30.615 25.8003C30.4978 25.7084 30.4209 25.5745 30.4006 25.427C30.3804 25.2794 30.4184 25.1298 30.5065 25.0097C30.5947 24.8897 30.7261 24.8087 30.873 24.7839C31.0198 24.759 31.1706 24.7923 31.2933 24.8767L34.9588 27.5708C34.959 27.5708 34.9593 27.5709 34.9595 27.571C34.9596 27.5712 34.9597 27.5715 34.9597 27.5717C34.9606 27.5717 34.9606 27.5726 34.9619 27.5726L35.8494 28.2253C36.1297 28.4306 36.4799 28.5164 36.8234 28.4639C37.1668 28.4115 37.4754 28.225 37.6816 27.9454L37.6818 27.9454ZM6.90587 24.1392C6.98199 24.1771 7.06482 24.1996 7.14965 24.2055C7.23447 24.2114 7.31962 24.2005 7.40023 24.1734C7.48085 24.1464 7.55534 24.1037 7.61947 24.0479C7.6836 23.9921 7.7361 23.9242 7.77398 23.848L13.7952 11.7234C13.8708 11.5696 13.8824 11.392 13.8276 11.2296C13.7728 11.0672 13.656 10.933 13.5027 10.8563L8.10242 8.17372C8.0262 8.13585 7.94326 8.11337 7.85834 8.10758C7.77342 8.10179 7.6882 8.11279 7.60754 8.13996C7.52688 8.16712 7.45236 8.20992 7.38826 8.26591C7.32415 8.3219 7.27171 8.38997 7.23393 8.46624L1.21333 20.5894C1.13717 20.7432 1.1251 20.921 1.17977 21.0837C1.23444 21.2465 1.35139 21.3809 1.505 21.4575L6.90587 24.1392ZM42.5157 25.1664L47.9164 22.4847C48.3423 22.2726 48.6666 21.9002 48.8183 21.4492C48.97 20.9983 48.9366 20.5056 48.7255 20.0793L42.704 7.9561C42.4921 7.53027 42.1199 7.20589 41.6691 7.05414C41.2183 6.90239 40.7258 6.93566 40.2995 7.14664L34.8992 9.82921C34.4733 10.0412 34.149 10.4135 33.9972 10.8643C33.8455 11.3152 33.8788 11.8078 34.0897 12.2342L34.1776 12.4096L33.511 12.7327L24.0214 11.3968C23.6188 11.3347 23.2079 11.3546 22.8132 11.4552C22.4185 11.5559 22.0482 11.7353 21.7246 11.9827L21.1586 12.4031C19.089 11.9444 16.9539 11.8615 14.855 12.1583C15.0413 11.7363 15.0578 11.2587 14.901 10.8249C14.7441 10.3911 14.4261 10.0344 14.0131 9.82902L8.61266 7.14645C8.18633 6.93535 7.69366 6.90202 7.24277 7.05377C6.79189 7.20553 6.41963 7.52998 6.20771 7.9559L0.186258 20.0791C-0.0246079 20.5055 -0.0578572 20.9981 0.0937949 21.4489C0.245447 21.8998 0.569634 22.2722 0.995328 22.4845L6.39563 25.1662C6.6426 25.2894 6.91478 25.3535 7.19075 25.3536C7.45483 25.3534 7.71564 25.2952 7.95473 25.183C8.19382 25.0709 8.40535 24.9076 8.57435 24.7047L8.78892 24.8633C14.7895 29.3163 18.754 32.2585 25.0729 35.7533C25.515 36.0039 26.0134 36.1383 26.5215 36.144C26.8953 36.1498 27.2651 36.0661 27.6001 35.8999C27.935 35.7337 28.2253 35.4899 28.4469 35.1887C28.7295 34.8051 28.8936 34.3471 28.9188 33.8713C29.2854 34.062 29.6942 34.1571 30.1073 34.1477C30.5204 34.1384 30.9244 34.025 31.282 33.8179C31.6396 33.6109 31.9392 33.3169 32.153 32.9633C32.3667 32.6097 32.4878 32.2078 32.5049 31.795C32.8167 31.935 33.1546 32.0077 33.4965 32.0082C33.6234 32.0083 33.7502 31.9983 33.8755 31.9784C34.4598 31.8909 34.9926 31.595 35.3757 31.1454C35.7589 30.6957 35.9664 30.1227 35.9601 29.532C36.4872 29.6796 37.0486 29.6469 37.5551 29.4391C38.0615 29.2314 38.4841 28.8604 38.7558 28.3851C39.0274 27.9098 39.1325 27.3575 39.0545 26.8156C38.9764 26.2738 38.7196 25.7735 38.3249 25.3942L40.0777 24.2896L40.111 24.3586C40.2603 24.6577 40.4901 24.9093 40.7744 25.0852C41.0588 25.261 41.3866 25.3542 41.7209 25.3541C41.9968 25.354 42.2688 25.2897 42.5156 25.1664H42.5157Z" fill="#539040"/>
</svg>
