<svg width="92" height="92" viewBox="0 0 92 92" fill="none" xmlns="http://www.w3.org/2000/svg">
<path d="M87.125 0.46875H4.875C2.44569 0.46875 0.46875 2.44569 0.46875 4.875V69.5C0.46875 71.9293 2.44569 73.9062 4.875 73.9062H44.5312V74.7141C44.5312 76.2915 44.9014 77.8733 45.6034 79.2863L48.9375 85.9999V91.4652L75.375 91.5342V86.1453L77.725 83.0125C79.0558 81.2308 79.7768 79.0676 79.7812 76.8438V73.9062H87.125C89.5543 73.9062 91.5312 71.9293 91.5312 69.5V4.875C91.5312 2.44569 89.5543 0.46875 87.125 0.46875ZM4.875 3.40625H87.125C87.9343 3.40625 88.5938 4.06572 88.5938 4.875V18.0938H3.40625V4.875C3.40625 4.06572 4.06572 3.40625 4.875 3.40625ZM57.75 35.7188C55.3207 35.7188 53.3438 37.6957 53.3438 40.125V41.5938H35.7188V26.9062H82.7188V41.5938H62.1562V40.125C62.1562 37.6957 60.1793 35.7188 57.75 35.7188ZM53.3438 59.5962C52.3259 58.5247 51.0998 57.6725 49.7407 57.0918C48.3817 56.5112 46.9183 56.2144 45.4404 56.2196C44.7853 56.2211 44.1414 56.3896 43.5696 56.7093C42.9978 57.0289 42.5169 57.4891 42.1724 58.0463C41.828 58.6035 41.6313 59.2393 41.6009 59.8937C41.5706 60.5481 41.7077 61.1994 41.9991 61.7861L43.6544 65.0938H35.7188V50.4062H53.3438V59.5962ZM76.8438 76.8438C76.8408 78.4322 76.3257 79.9774 75.375 81.25L72.4375 85.1672V88.5908L51.875 88.535V85.3111L48.234 77.9791C47.7317 76.9639 47.4699 75.8467 47.4688 74.7141V68.6804C47.4669 67.0191 47.0803 65.3807 46.3393 63.8938L44.6282 60.4716C44.5647 60.3453 44.5316 60.2061 44.5312 60.0648C44.5312 59.5639 44.9396 59.1571 45.5799 59.1571C47.6386 59.1594 49.6122 59.9783 51.0677 61.4341C52.5233 62.8899 53.3418 64.8637 53.3438 66.9223V72.3758H56.2812V40.125C56.2812 39.3157 56.9407 38.6562 57.75 38.6562C58.5593 38.6562 59.2188 39.3157 59.2188 40.125V63.625H62.1562V57.75C62.1562 56.9407 62.8157 56.2812 63.625 56.2812C64.4343 56.2812 65.0938 56.9407 65.0938 57.75V63.625H68.0312V57.75C68.0312 56.9407 68.6907 56.2812 69.5 56.2812C70.3093 56.2812 70.9688 56.9407 70.9688 57.75V63.625H73.9062V60.6875C73.9062 59.8782 74.5657 59.2188 75.375 59.2188C76.1843 59.2188 76.8438 59.8782 76.8438 60.6875V76.8438ZM75.375 56.2812C74.7948 56.2812 74.2441 56.4002 73.7359 56.6044C73.4859 55.6711 72.9356 54.8462 72.17 54.2569C71.4044 53.6675 70.4661 53.3467 69.5 53.3438C68.4125 53.3474 67.3653 53.7558 66.5625 54.4894C65.76 53.7553 64.7126 53.3469 63.625 53.3438C63.108 53.3438 62.6174 53.4495 62.1562 53.614V50.4062H82.7188V65.0938H79.7812V60.6875C79.7812 58.2582 77.8043 56.2812 75.375 56.2812ZM87.125 70.9688H79.7812V68.0312H85.6562V47.4688H62.1562V44.5312H85.6562V23.9688H32.7812V44.5312H53.3438V47.4688H32.7812V68.0312H44.4931C44.5122 68.2472 44.5312 68.4645 44.5312 68.6804V70.9688H4.875C4.06572 70.9688 3.40625 70.3093 3.40625 69.5V21.0312H88.5938V69.5C88.5938 70.3093 87.9343 70.9688 87.125 70.9688Z" fill="#45B34A"/>
<path d="M15.1562 6.34375H6.34375V15.1562H15.1562V6.34375ZM12.2188 12.2188H9.28125V9.28125H12.2188V12.2188ZM26.9062 6.34375H18.0938V15.1562H26.9062V6.34375ZM23.9688 12.2188H21.0312V9.28125H23.9688V12.2188ZM38.6562 6.34375H29.8438V15.1562H38.6562V6.34375ZM35.7188 12.2188H32.7812V9.28125H35.7188V12.2188ZM38.6562 29.8438H41.5938V32.7812H38.6562V29.8438ZM44.5312 29.8438H79.7812V32.7812H44.5312V29.8438ZM65.0938 35.7188H79.7812V38.6562H65.0938V35.7188ZM38.6562 35.7188H50.4062V38.6562H38.6562V35.7188ZM9.28125 44.5312H29.8438V23.9688H9.28125V44.5312ZM12.2188 26.9062H26.9062V41.5938H12.2188V26.9062Z" fill="#45B34A"/>
<path d="M18.0938 35.1105L16.1947 33.2114L14.1178 35.2882L18.0938 39.2641L26.4759 30.882L24.3991 28.8052L18.0938 35.1105ZM9.28125 68.0311H29.8438V47.4686H9.28125V68.0311ZM12.2188 50.4061H26.9062V65.0936H12.2188V50.4061Z" fill="#45B34A"/>
<path d="M18.0931 58.6105L16.194 56.7114L14.1172 58.7882L18.0931 62.7641L26.4752 54.382L24.3984 52.3052L18.0931 58.6105Z" fill="#45B34A"/>
</svg>
