<svg height="512" viewBox="0 0 96 96" width="512" xmlns="http://www.w3.org/2000/svg"><g id="Layer_4"><g><path d="m24.464 12.546c.412.412.952.617 1.49.617.54 0 1.078-.206 1.49-.617.823-.823.823-2.156 0-2.979l-4.95-4.95c-.823-.823-2.156-.823-2.979 0s-.823 2.156 0 2.979z"/><path d="m70.044 13.164c.54 0 1.08-.206 1.492-.617l4.95-4.95c.823-.823.823-2.156 0-2.979s-2.156-.823-2.979 0l-4.952 4.95c-.823.823-.823 2.156 0 2.979.411.411.952.617 1.489.617z"/><path d="m47.39 21.445c1.893-.036 3.663.911 4.667 2.506.401.638 1.086.985 1.785.985.386 0 .772-.103 1.122-.324.985-.62 1.281-1.922.661-2.904-1.796-2.853-5.029-4.582-8.351-4.476-1.163.031-2.081 1.001-2.05 2.164.034 1.161 1.009 1.987 2.166 2.049z"/><path d="m84.958 25.327c-5.516-.903-11.168-.943-16.832-.218-.656-4.382-2.637-8.424-5.876-11.577-3.985-3.879-9.243-5.945-14.808-5.783-9.881.262-18.07 7.815-19.562 17.354-5.729-.755-11.656-.683-16.894.232-2.092.399-3.553 2.161-3.553 4.286v56.638c0 .849.417 1.639 1.122 2.115.437.296 1.345.458 1.873.388l2.099-.311c10.697-1.544 21.321-.723 31.589 2.457l3.267 1.001c.2.06.409.091.617.091.224 0 1.32-.327 1.32-.327 10.946-3.789 22.716-4.898 34.053-3.223 0 0 1.307.081 1.729.185.809.201 1.649.211 2.344-.262.579-.391 1.122-1.415 1.122-2.115v-56.638c-.001-2.125-1.462-3.887-3.61-4.293zm-37.403-13.365c.149-.005.298-.005.448-.005 4.252 0 8.253 1.621 11.306 4.595 3.164 3.079 4.906 7.206 4.906 11.62 0 4.517-1.906 8.863-5.233 11.924-1.878 1.731-2.912 4.003-2.912 6.401 0 2.627-2.138 4.764-4.764 4.764h-1.201v-11.078c0-1.163-.944-2.107-2.107-2.107s-2.107.944-2.107 2.107v11.077h-1.201c-2.627 0-4.764-2.138-4.764-4.764 0-2.4-1.034-4.672-2.912-6.401-3.362-3.095-5.269-7.489-5.233-12.058.071-8.635 7.146-15.846 15.774-16.075zm.45 49.481c-2.778 0-5.037-2.261-5.037-5.04v-1.103c.558.109 1.132.174 1.721.174h6.617c.579 0 1.145-.066 1.693-.171v1.1c0 2.779-2.241 5.04-4.994 5.04zm-36.09 22.837-.265.044.095-54.842c4.867-.847 10.53-.904 15.95-.157.304 5.273 2.557 10.279 6.465 13.874 1.001.918 1.551 2.092 1.551 3.298 0 2.667 1.191 5.038 3.041 6.684v3.223c0 4.374 3.059 8.026 7.141 8.988v21.653l-.538-.164c-10.864-3.37-22.111-4.243-33.44-2.601zm72.438.051-.376-.051c-11.265-1.675-22.916-.634-33.87 2.803v-21.692c4.065-.961 7.108-4.613 7.108-8.988v-3.199c1.868-1.646 3.069-4.028 3.069-6.708 0-1.207.553-2.38 1.554-3.301 3.9-3.589 6.166-8.599 6.47-13.866 5.377-.72 10.748-.685 16.045.291z"/><path d="m20.152 47.603h6.776c1.163 0 2.107-.944 2.107-2.107s-.944-2.107-2.107-2.107h-6.776c-1.163 0-2.107.944-2.107 2.107 0 1.162.944 2.107 2.107 2.107z"/><path d="m20.152 60.828h12.042c1.165 0 2.107-.944 2.107-2.107s-.942-2.107-2.107-2.107h-12.042c-1.165 0-2.11.944-2.11 2.107s.945 2.107 2.11 2.107z"/><path d="m35.623 68.988h-15.471c-1.165 0-2.11.944-2.11 2.107s.944 2.107 2.11 2.107h15.471c1.163 0 2.107-.944 2.107-2.107s-.944-2.107-2.107-2.107z"/><path d="m66.968 46.347c0 1.163.944 2.107 2.11 2.107h6.774c1.163 0 2.107-.944 2.107-2.107s-.944-2.107-2.107-2.107h-6.774c-1.166 0-2.11.944-2.11 2.107z"/><path d="m75.848 56.614h-12.042c-1.165 0-2.107.944-2.107 2.107s.942 2.107 2.107 2.107h12.042c1.165 0 2.11-.944 2.11-2.107s-.945-2.107-2.11-2.107z"/><path d="m74.341 68.975h-13.969c-1.163 0-2.107.944-2.107 2.107s.944 2.107 2.107 2.107h13.969c1.163 0 2.107-.944 2.107-2.107s-.945-2.107-2.107-2.107z"/></g></g></svg>