<svg width="39" height="31" viewBox="0 0 39 31" fill="none" xmlns="http://www.w3.org/2000/svg">
<path d="M3.02586 30.0345C2.17507 30.0345 1.45807 29.7429 0.874867 29.1596C0.291622 28.5764 0 27.8594 0 27.0086V3.02586C0 2.17507 0.291622 1.45805 0.874867 0.87481C1.45807 0.291603 2.17507 0 3.02586 0H35.9741C36.8249 0 37.542 0.291603 38.1252 0.87481C38.7084 1.45805 39 2.17507 39 3.02586V27.0086C39 27.8594 38.7084 28.5764 38.1252 29.1596C37.542 29.7429 36.8249 30.0345 35.9741 30.0345H3.02586ZM19.5 14.2888L1.23276 2.01724V27.0086C1.23276 27.5316 1.40086 27.9612 1.73707 28.2974C2.07328 28.6336 2.50287 28.8017 3.02586 28.8017H35.9741C36.4971 28.8017 36.9267 28.6336 37.2629 28.2974C37.5991 27.9612 37.7672 27.5316 37.7672 27.0086V2.01724L19.5 14.2888ZM19.5 12.7198L36.8147 1.23276H2.24138L19.5 12.7198ZM1.23276 2.01724V1.23276V27.0086C1.23276 27.5316 1.40086 27.9612 1.73707 28.2974C2.07328 28.6336 2.50287 28.8017 3.02586 28.8017H1.23276V2.01724Z" fill="white"/>
</svg>
