<svg width="36" height="36" viewBox="0 0 36 36" fill="none" xmlns="http://www.w3.org/2000/svg">
<path d="M8.25 34.5C7.63125 34.5 7.10156 34.2797 6.66094 33.8391C6.22031 33.3984 6 32.8688 6 32.25V3.75C6 3.13125 6.22031 2.60156 6.66094 2.16094C7.10156 1.72031 7.63125 1.5 8.25 1.5H24.75C25.3688 1.5 25.8984 1.72031 26.3391 2.16094C26.7797 2.60156 27 3.13125 27 3.75V9.225H24.75V7.125H8.25V28.875H24.75V26.775H27V32.25C27 32.8688 26.7797 33.3984 26.3391 33.8391C25.8984 34.2797 25.3688 34.5 24.75 34.5H8.25ZM8.25 31.125V32.25H24.75V31.125H8.25ZM22.425 24L16.05 17.625L17.6625 16.05L22.425 20.8125L31.3875 11.85L33 13.425L22.425 24ZM8.25 4.875H24.75V3.75H8.25V4.875Z" fill="black"/>
</svg>
