<svg width="39" height="39" viewBox="0 0 39 39" fill="none" xmlns="http://www.w3.org/2000/svg">
<path d="M15.1984 35.8699C15.1984 36.2063 14.9307 36.482 14.5937 36.482C14.2568 36.482 13.9805 36.2063 13.9805 35.8699V28.2041C13.9805 27.687 14.2049 27.2211 14.5678 26.8851C14.9369 26.5447 15.4217 26.3567 15.9242 26.3592H23.0677C23.5945 26.3592 24.0783 26.5572 24.4235 26.8851C24.7861 27.2214 25.0113 27.687 25.0113 28.2041V35.8699C25.0113 36.2063 24.7433 36.482 24.4064 36.482C24.0694 36.482 23.7932 36.2063 23.7932 35.8699V28.2041C23.7932 28.0404 23.7239 27.8851 23.603 27.7732C23.4551 27.6436 23.2645 27.5729 23.0677 27.5749H20.1045V35.8702C20.1045 36.2066 19.8372 36.4823 19.5002 36.4823C19.3378 36.4817 19.1822 36.417 19.0673 36.3023C18.9525 36.1877 18.8877 36.0324 18.887 35.8702V27.5746H15.9242C15.717 27.5746 15.5353 27.6526 15.3974 27.7729C15.2765 27.8847 15.1987 28.0401 15.1987 28.2038L15.1984 35.8699ZM13.4797 18.1848H17.4702C17.5497 18.1844 17.6285 18.1997 17.7021 18.2298C17.7756 18.26 17.8425 18.3045 17.8987 18.3606C17.9549 18.4167 17.9995 18.4835 18.0297 18.5569C18.0599 18.6303 18.0753 18.709 18.0748 18.7884V22.4964C18.0753 22.5758 18.06 22.6544 18.0298 22.7279C17.9995 22.8013 17.955 22.868 17.8988 22.9241C17.8425 22.9802 17.7757 23.0245 17.7021 23.0546C17.6285 23.0847 17.5497 23.0999 17.4702 23.0994H13.4797C13.4002 23.0999 13.3213 23.0847 13.2477 23.0546C13.1742 23.0245 13.1073 22.9802 13.0511 22.9241C12.9948 22.868 12.9503 22.8013 12.9201 22.7279C12.8898 22.6544 12.8745 22.5758 12.875 22.4964V18.7884C12.8745 18.709 12.8898 18.6303 12.92 18.5568C12.9502 18.4833 12.9947 18.4166 13.0509 18.3604C13.1072 18.3043 13.1741 18.2598 13.2477 18.2297C13.3212 18.1995 13.4001 18.1843 13.4797 18.1848ZM13.4797 10.8124H17.4702C17.5497 10.8119 17.6285 10.8272 17.7021 10.8574C17.7756 10.8876 17.8425 10.932 17.8987 10.9881C17.9549 11.0443 17.9995 11.111 18.0297 11.1844C18.0599 11.2579 18.0753 11.3365 18.0748 11.4159V15.1236C18.0753 15.2031 18.0601 15.2818 18.0299 15.3552C17.9997 15.4287 17.9551 15.4955 17.8989 15.5516C17.8426 15.6078 17.7758 15.6522 17.7022 15.6823C17.6286 15.7125 17.5497 15.7277 17.4702 15.7272H13.4797C13.4001 15.7277 13.3213 15.7124 13.2477 15.6822C13.1742 15.652 13.1074 15.6076 13.0511 15.5514C12.9949 15.4953 12.9504 15.4286 12.9201 15.3551C12.8899 15.2817 12.8746 15.203 12.875 15.1236V11.4162C12.8745 11.3368 12.8898 11.2581 12.92 11.1846C12.9502 11.1111 12.9947 11.0443 13.0509 10.9882C13.1072 10.932 13.174 10.8875 13.2476 10.8573C13.3212 10.8272 13.4001 10.8119 13.4797 10.8124ZM16.857 12.0287H14.0929V14.5115H16.857V12.0287ZM23.5252 14.5115C23.8622 14.5115 24.1295 14.7876 24.1295 15.1239C24.1295 15.4603 23.8618 15.7275 23.5252 15.7275H21.5299C21.193 15.7275 20.9164 15.46 20.9164 15.1239V11.4162C20.9164 11.0799 21.1927 10.8127 21.5299 10.8127C21.6095 10.8122 21.6883 10.8275 21.7619 10.8577C21.8354 10.8879 21.9022 10.9323 21.9585 10.9884C22.0147 11.0446 22.0592 11.1113 22.0895 11.1847C22.1197 11.2582 22.135 11.3368 22.1346 11.4162V14.5115H23.5252ZM21.5299 18.1848H25.5119C25.8489 18.1848 26.1251 18.4523 26.1251 18.7884V22.4964C26.1251 22.8328 25.8489 23.0994 25.5119 23.0994H21.5299C21.193 23.0994 20.9164 22.8325 20.9164 22.4964V18.7884C20.9164 18.4523 21.193 18.1848 21.5299 18.1848ZM24.9075 19.4008H22.1349V21.884H24.9075V19.4008ZM16.857 19.4008H14.0929V21.884H16.857V19.4008ZM29.7615 18.6766C29.5891 18.9611 29.2179 19.0644 28.9325 18.892C28.8413 18.8357 28.7644 18.759 28.7079 18.668L23.4733 9.81238C23.2053 9.35535 22.981 8.76914 22.843 8.25178C22.7037 7.71092 22.634 7.15457 22.6355 6.59613C22.6339 5.7296 22.804 4.87131 23.136 4.07068C23.4681 3.27005 23.9555 2.5429 24.5703 1.9311C25.1834 1.31777 25.9119 0.831428 26.7139 0.500028C27.5159 0.168627 28.3756 -0.00130146 29.2436 7.50502e-06C31.066 7.50502e-06 32.7158 0.74161 33.9165 1.9314C35.1084 3.13034 35.8517 4.77685 35.8517 6.59643C35.8517 7.16558 35.7738 7.71737 35.6359 8.25209C35.4973 8.80418 35.2812 9.32123 35.0138 9.80415L29.7615 18.6766ZM29.2436 17.176L33.9596 9.19996C34.4022 8.4033 34.6341 7.50713 34.6332 6.59613C34.6332 5.11292 34.0292 3.76804 33.0527 2.79366C32.5532 2.29324 31.9595 1.89624 31.3058 1.62545C30.6521 1.35466 29.9513 1.21541 29.2436 1.2157C28.5344 1.21444 27.832 1.35321 27.1768 1.62402C26.5216 1.89484 25.9265 2.29234 25.4258 2.79366C24.458 3.76804 23.8536 5.11292 23.8536 6.59613C23.8536 7.07052 23.9137 7.51841 24.0178 7.94984C24.1298 8.38066 24.3026 8.79473 24.5098 9.18259L29.2436 17.176Z" fill="white"/>
<path d="M29.2454 3.07813C30.213 3.07813 31.0939 3.47513 31.7327 4.11283C32.0621 4.43721 32.3235 4.82388 32.5015 5.25024C32.6796 5.6766 32.7707 6.1341 32.7696 6.59601C32.7696 7.57009 32.3719 8.45002 31.7327 9.08803C31.0936 9.71751 30.213 10.1139 29.2454 10.1139C28.3104 10.1138 27.4132 9.74507 26.749 9.08803C26.1099 8.45002 25.7213 7.5704 25.7213 6.59601C25.7213 5.62163 26.1099 4.74231 26.749 4.11283C27.0763 3.78459 27.4653 3.52419 27.8937 3.34661C28.3222 3.16903 28.7815 3.07779 29.2454 3.07813ZM30.8692 4.96656C30.4372 4.53593 29.8516 4.29406 29.241 4.29406C28.6305 4.29406 28.0449 4.53593 27.6128 4.96656C27.198 5.38916 26.9392 5.95801 26.9392 6.59632C26.9392 7.23433 27.198 7.81201 27.6128 8.22608C28.0449 8.65671 28.6305 8.89857 29.241 8.89857C29.8516 8.89857 30.4372 8.65671 30.8692 8.22608C31.0861 8.01361 31.2582 7.75995 31.3754 7.48005C31.4926 7.20015 31.5524 6.89967 31.5514 6.59632C31.5514 5.95801 31.2923 5.38916 30.8692 4.96656ZM32.0608 29.6183C31.7239 29.6183 31.4568 29.3426 31.4568 29.0062C31.4568 28.6698 31.7242 28.4023 32.0608 28.4023H34.2722C35.0325 28.4023 35.7064 28.8423 36 29.5406L38.8591 36.4905C38.9799 36.7836 39.023 37.077 38.9885 37.3701C38.9281 37.9651 38.5304 38.5166 38.0035 38.7926C37.7338 38.9309 37.4347 39.0019 37.1315 38.9998H1.87237C1.56911 39.002 1.26983 38.9309 1.00004 38.7926C0.464372 38.5166 0.0758221 37.9651 0.00684156 37.3701C-0.0182832 37.0708 0.0260006 36.7698 0.136256 36.4905L3.00414 29.5406C3.29776 28.8423 3.97139 28.4023 4.73171 28.4023H6.92565C7.26262 28.4023 7.5303 28.6701 7.5303 29.0062C7.5303 29.3422 7.26262 29.6183 6.92565 29.6183H4.73171C4.46402 29.6183 4.23053 29.7475 4.12706 30.0062L1.26803 36.9557C1.22593 37.0445 1.20803 37.1427 1.21614 37.2406C1.24208 37.4389 1.38035 37.6199 1.55311 37.715C1.64803 37.7582 1.7515 37.7841 1.87267 37.7841H37.1321C37.253 37.7841 37.3565 37.7582 37.4431 37.715C37.6248 37.6199 37.7627 37.4392 37.7801 37.2406C37.7887 37.1455 37.7801 37.0511 37.7368 36.9557L34.8777 30.0062C34.774 29.7472 34.5408 29.6183 34.2731 29.6183H32.0608Z" fill="white"/>
<path d="M28.6308 21.2886C28.6308 20.9522 28.907 20.6762 29.244 20.6762C29.581 20.6762 29.8487 20.9522 29.8487 21.2886V35.8693C29.8487 36.2057 29.5807 36.4814 29.244 36.4814H9.75699C9.42002 36.4814 9.15234 36.2057 9.15234 35.8693V9.21729C9.15234 8.69994 9.37699 8.23408 9.7399 7.89801C10.107 7.55348 10.5922 7.36216 11.096 7.36329H20.7096C21.0466 7.36329 21.3143 7.63903 21.3143 7.9757C21.3143 8.31207 21.0463 8.58781 20.7096 8.58781H11.096C10.8799 8.58781 10.6986 8.65698 10.5606 8.78616C10.5009 8.84104 10.4531 8.90767 10.4204 8.98187C10.3877 9.05607 10.3707 9.13622 10.3705 9.21729V35.2654H28.6311L28.6308 21.2886Z" fill="white"/>
</svg>
