<svg xmlns="http://www.w3.org/2000/svg" version="1.1" xmlns:xlink="http://www.w3.org/1999/xlink" width="512" height="512" x="0" y="0" viewBox="0 0 42113 42117" style="enable-background:new 0 0 512 512" xml:space="preserve" fill-rule="evenodd" class=""><g><g fill-rule="nonzero"><path fill="#ffffff" d="m2402 13192 1-2h1l1-2c760-763 2347-1154 3550-1212 368-18 705-7 975 34 341 50 615 157 780 320 98 97 162 210 188 340l3171 7988c21 53 32 108 34 162v33c-30 852-2164 2998-2812 3649l-6 6c-170 174 837 1484 2225 3077 644 738 1378 1519 2137 2275 757 755 1535 1481 2266 2113 1516 1309 2738 2242 2895 2087 307-312 988-993 1677-1601 754-666 1542-1242 1994-1225 65 3 126 17 181 42l7958 3163c129 26 242 88 338 185 163 163 270 440 322 786 40 273 51 614 33 986-60 1207-450 2793-1213 3556-10 10-20 19-30 28-3525 3521-9155 2354-14515-1054-2094-1332-4151-3009-6022-4879s-3555-3933-4904-6038C110 22525-1144 16731 2402 13192zm3598-256c-1022 50-2341 353-2916 934l-2 2c-3162 3153-1928 8498 1354 13617 1314 2049 2953 4056 4773 5876 1820 1819 3822 3451 5860 4747 4996 3177 10185 4324 13326 1181 7-8 14-16 21-23 581-581 884-1897 934-2919 16-307 7-584-26-801-14-97-27-169-37-209l-7893-3137c-206 68-726 492-1272 974-662 584-1332 1255-1632 1560l-4 4c-602 598-2303-402-4202-2042-749-647-1544-1390-2315-2158s-1521-1566-2182-2324c-1695-1945-2768-3714-2211-4358 7-9 15-18 24-26v-1l2-1 8-8c565-568 2392-2406 2525-2917l-3140-7908c-40-10-110-22-205-36-215-32-488-42-790-27z" opacity="1" data-original="#00305d"></path><path fill="#ffffff" d="M22772 20945c692 1017 1069 1924 1060 2753-4 475-129 914-386 1319 1055-191 1882-613 2524-1115 883-690 1426-1533 1731-2134 86-170 258-268 436-267 3567-128 6768-1332 9071-3205 2259-1837 3647-4319 3647-7051 0-2815-1472-5370-3851-7226-2414-1883-5757-3048-9455-3048s-7038 1164-9449 3046c-2377 1856-3847 4412-3847 7228 0 2100 817 4050 2216 5672 1463 1694 3561 3032 6033 3815 118 37 211 115 270 213zm93 2745c6-587-283-1277-817-2084-2572-844-4764-2263-6311-4056-1551-1796-2455-3964-2455-6305 0-3129 1613-5953 4223-7990C20081 1243 23632 0 27549 0s7472 1244 10051 3256c2611 2037 4227 4861 4227 7989 0 3038-1526 5784-4008 7802-2402 1954-5708 3226-9387 3410-368 662-962 1501-1866 2208-1029 803-2450 1433-4380 1433v-3c-152 0-301-71-395-204-154-218-102-520 116-674 651-460 952-962 958-1527z" opacity="1" data-original="#0f97ff" class=""></path><path fill="#ffffff" d="M17239 13587c44 126-21 263-147 307-125 45-263-21-307-147-146-412-253-827-322-1241-298-1793 105-3562 1000-5030 895-1466 2280-2632 3946-3223 400-142 816-251 1246-322 131-22 255 67 277 198s-67 255-198 277c-401 67-791 168-1165 301-1559 553-2857 1646-3695 3020-837 1373-1215 3026-936 4700 65 386 164 774 301 1160z" opacity="1" data-original="#0f97ff" class=""></path><path fill="#ffffff" d="M8782 12042c-68-163 10-351 173-419 164-68 352 10 419 173l3353 8058c68 163-10 351-174 419-163 68-351-9-419-173zM22302 30234c-163-68-239-256-171-419 69-163 257-239 420-171l7834 3319c163 69 239 256 171 419-69 163-257 240-419 171z" opacity="1" data-original="#00305d"></path><path fill="#ffffff" d="M21915 8597c707 0 1347 286 1810 750 464 463 750 1103 750 1810s-286 1347-750 1811c-463 463-1103 750-1810 750s-1347-287-1811-750c-463-464-750-1104-750-1811s287-1347 750-1810c464-464 1104-750 1811-750zm1356 1204c-347-347-826-562-1356-562s-1009 215-1356 562-562 826-562 1356 215 1009 562 1356 826 562 1356 562 1009-215 1356-562 562-826 562-1356-215-1009-562-1356zm11076-1204c707 0 1347 286 1811 750 463 463 749 1103 749 1810s-286 1347-749 1811c-464 463-1104 750-1811 750s-1347-287-1810-750c-464-464-750-1104-750-1811s286-1347 750-1810c463-464 1103-750 1810-750zm1356 1204c-347-347-826-562-1356-562s-1009 215-1356 562-562 826-562 1356 215 1009 562 1356 826 562 1356 562 1009-215 1356-562 562-826 562-1356-215-1009-562-1356zm-7572-1204c707 0 1347 286 1810 750 464 463 750 1103 750 1810s-286 1347-750 1811c-463 463-1103 750-1810 750s-1347-287-1811-750c-463-464-750-1104-750-1811s287-1347 750-1810c464-464 1104-750 1811-750zm1356 1204c-347-347-826-562-1356-562s-1009 215-1356 562-562 826-562 1356 215 1009 562 1356 826 562 1356 562 1009-215 1356-562 562-826 562-1356-215-1009-562-1356z" opacity="1" data-original="#0f97ff" class=""></path></g></g></svg>