<svg width="94" height="94" viewBox="0 0 94 94" fill="none" xmlns="http://www.w3.org/2000/svg">
<path d="M86.8407 60.4899C86.0503 59.1702 82.8121 55.2485 74.3284 60.1892L59.595 68.7707C58.9876 69.1243 58.3717 69.3909 57.735 69.5725C57.9483 69.1653 58.1153 68.7354 58.2327 68.291C59.008 65.3968 57.2905 62.3764 54.3227 61.4141C54.2598 61.3937 54.1956 61.3776 54.1305 61.3658C49.9095 60.6045 45.7371 59.0961 42.3847 57.8842C41.2167 57.4619 40.1135 57.0631 39.174 56.7586C35.3419 55.5153 31.8922 57.0455 29.0233 58.7067L18.2028 64.9714L17.2496 63.2872C16.7721 62.4435 15.9926 61.8357 15.0544 61.5757C14.1168 61.3157 13.1351 61.4356 12.2915 61.913L8.15788 64.2525C6.41209 65.2406 5.79577 67.4647 6.78369 69.2104L18.937 90.6847C19.4146 91.5283 20.1941 92.1362 21.1323 92.3961C21.4567 92.4861 21.7862 92.5305 22.1134 92.5305C22.7325 92.5305 23.3433 92.3713 23.8952 92.0591L28.0292 89.7193C29.7749 88.7312 30.3915 86.5072 29.4034 84.7614L28.2291 82.6866L30.5314 81.3576L49.3372 86.3965C50.3927 86.6794 51.4425 86.82 52.4754 86.8198C54.5643 86.8198 56.5826 86.2446 58.4273 85.1089L85.165 68.645C87.6731 67.1006 88.4719 63.2135 86.8407 60.4899ZM26.5821 87.1628L22.4481 89.5025C22.2313 89.6253 22.0222 89.5945 21.9166 89.5655C21.8112 89.5363 21.616 89.4548 21.4934 89.238L9.34004 67.7637C9.15296 67.4333 9.27432 66.9959 9.6046 66.809L13.7384 64.4695C13.8415 64.4108 13.9581 64.3801 14.0768 64.3805C14.1559 64.3805 14.2231 64.3937 14.2699 64.4067C14.3753 64.4359 14.5703 64.5172 14.6931 64.7341L26.8466 86.2081C27.0337 86.5388 26.9124 86.9759 26.5821 87.1628ZM51.7015 72.3363L53.534 72.6343C56.3125 73.0786 58.7785 72.6451 61.0731 71.3091L75.8067 62.7276C79.9614 60.3076 83.1442 60.0352 84.3205 61.9991C85.1259 63.3439 84.7747 65.4354 83.6243 66.1435L56.8868 82.6075C54.8057 83.8886 52.5217 84.2089 50.0973 83.559L30.7036 78.3626C30.3273 78.2621 29.9266 78.3148 29.5892 78.5093L26.782 80.1299L19.6498 67.5278L30.495 61.2485C32.9199 59.8446 35.5398 58.667 38.2676 59.5523C39.1608 59.842 40.1919 60.2147 41.3858 60.6463C44.8144 61.886 49.0745 63.4261 53.5015 64.2369C54.953 64.75 55.7647 66.1508 55.3949 67.5304C54.908 69.3474 53.3836 69.5725 52.1684 69.4339C50.0083 68.989 47.9522 68.4024 45.7768 67.7812C44.7415 67.4856 43.671 67.1797 42.57 66.8847C42.3837 66.8348 42.1893 66.822 41.9981 66.8472C41.8069 66.8724 41.6225 66.935 41.4554 67.0314C41.2884 67.1279 41.142 67.2563 41.0246 67.4093C40.9072 67.5623 40.821 67.737 40.7711 67.9233C40.7212 68.1096 40.7085 68.3039 40.7336 68.4951C40.7588 68.6864 40.8214 68.8708 40.9179 69.0378C41.0143 69.2048 41.1427 69.3512 41.2957 69.4687C41.4487 69.5861 41.6234 69.6722 41.8097 69.7221C42.8874 70.0109 43.9462 70.3133 44.9701 70.6056C47.2222 71.2487 49.3493 71.8562 51.6428 72.3251M14.8585 68.4764C14.8866 68.6682 14.8766 68.8636 14.8291 69.0516C14.7816 69.2395 14.6975 69.4162 14.5817 69.5716C14.4659 69.7271 14.3207 69.8582 14.1542 69.9575C13.9877 70.0567 13.8033 70.1223 13.6115 70.1503C13.4198 70.1783 13.2243 70.1683 13.0364 70.1208C12.8485 70.0733 12.6718 69.9893 12.5163 69.8735C12.3609 69.7577 12.2298 69.6124 12.1305 69.4459C12.0312 69.2795 11.9657 69.0951 11.9377 68.9033C11.8877 68.5191 11.9908 68.1306 12.2248 67.8218C12.4587 67.5129 12.8047 67.3084 13.188 67.2523C13.5714 67.1963 13.9614 67.2933 14.274 67.5223C14.5865 67.7513 14.7964 68.094 14.8585 68.4764ZM36.5222 24.4101C37.2017 25.7353 37.5428 26.4002 37.6403 26.9532C37.7378 27.506 37.6447 28.2475 37.4596 29.7251C37.413 30.0969 37.361 30.5109 37.3054 30.9761C36.9995 33.5349 38.3857 35.9357 40.7546 36.9504C41.1853 37.135 41.5697 37.2969 41.9149 37.4425L42.0976 37.5196L36.6386 49.2446C36.5253 49.488 36.4809 49.7577 36.5101 50.0245C36.5394 50.2913 36.6412 50.545 36.8045 50.758C36.9678 50.9711 37.1863 51.1353 37.4364 51.2328C37.6864 51.3304 37.9584 51.3575 38.2228 51.3113L44.2232 50.263L47.2835 55.5296C47.4184 55.7617 47.6143 55.9524 47.8499 56.081C48.0856 56.2096 48.3519 56.2711 48.6201 56.259C48.8882 56.2468 49.1479 56.1614 49.371 56.012C49.594 55.8626 49.7718 55.6549 49.8851 55.4115L55.3042 43.7719L55.1972 43.7221C56.1251 43.4414 56.6725 43.3002 57.1214 43.3002C57.6828 43.3002 58.397 43.5205 59.8199 43.9597L60.2913 44.1049L64.2023 53.1847C64.3084 53.4313 64.4801 53.6441 64.6987 53.7999C64.9173 53.9557 65.1744 54.0486 65.4421 54.0686C65.7098 54.0885 65.9779 54.0347 66.2171 53.9129C66.4564 53.7912 66.6577 53.6062 66.7992 53.3781L70.011 48.2025L75.9781 49.4247C76.2411 49.4786 76.5138 49.4594 76.7666 49.3691C77.0195 49.2789 77.2427 49.1211 77.4121 48.9129C77.5816 48.7047 77.6907 48.454 77.7277 48.1882C77.7647 47.9223 77.7281 47.6514 77.6219 47.4048L73.1767 37.0839C73.2807 37.0397 73.3846 36.9953 73.4884 36.9508C75.8573 35.9363 77.2435 33.5352 76.9376 30.9765C76.882 30.5113 76.8302 30.0973 76.7836 29.7257C76.5981 28.2481 76.5052 27.5066 76.6027 26.9536C76.7002 26.4008 77.0413 25.7356 77.7206 24.4106C77.8916 24.0772 78.0819 23.706 78.2934 23.2879C79.4561 20.9881 78.9746 18.2578 77.0957 16.4944C76.7892 16.2071 76.4819 15.9207 76.1737 15.6352C75.082 14.6223 74.534 14.1141 74.2533 13.6278C73.9726 13.1416 73.8062 12.413 73.4752 10.9613C73.3919 10.5959 73.2991 10.1891 73.1921 9.73285C72.6044 7.22368 70.4806 5.44172 67.9075 5.2987C67.4398 5.27263 67.0232 5.25206 66.649 5.23334C65.1617 5.15935 64.4152 5.12208 63.8876 4.93004C63.3599 4.738 62.7642 4.28673 61.5774 3.38748C61.2787 3.1613 60.9462 2.90941 60.5711 2.62851C58.5081 1.08412 55.7358 1.08412 53.6728 2.62851C53.2977 2.90941 52.9652 3.1613 52.6665 3.38748C51.4796 4.28673 50.884 4.738 50.3564 4.93004C49.8287 5.12208 49.0824 5.15935 47.5949 5.23334C47.2208 5.25206 46.804 5.27263 46.3364 5.2987C43.7633 5.4419 41.6395 7.22386 41.0518 9.73285C40.945 10.1891 40.8523 10.5957 40.7687 10.9611C40.4375 12.413 40.2714 13.1415 39.9905 13.6278C39.7098 14.1139 39.1617 14.6223 38.0703 15.635C37.762 15.9205 37.4546 16.207 37.1481 16.4942C35.269 18.2578 34.7876 20.9879 35.9501 23.2878C36.1395 23.6625 36.3302 24.0366 36.5222 24.4101ZM48.4097 51.6205L46.2488 47.9018C46.0979 47.6422 45.871 47.435 45.5988 47.3083C45.3265 47.1815 45.0219 47.1413 44.7261 47.193L40.4893 47.9332L44.6772 38.938C45.0239 39.3241 45.4107 39.9226 46.0491 40.9113C46.2523 41.2262 46.4787 41.5766 46.7352 41.969C47.8248 43.6351 49.6271 44.5799 51.5282 44.5799C51.582 44.5799 51.6364 44.5755 51.6903 44.574L48.4097 51.6205ZM69.5973 45.1191C69.3031 45.0588 68.9975 45.0902 68.7217 45.209C68.4459 45.3279 68.2131 45.5283 68.0548 45.7835L65.787 49.4379L63.6592 44.4976C65.1994 44.2391 66.6007 43.3557 67.5075 41.969C67.7372 41.6172 67.9659 41.2648 68.1934 40.9117C69.0012 39.6607 69.4066 39.0328 69.8368 38.6718C70.0046 38.531 70.2128 38.4007 70.4848 38.26L73.8106 45.982L69.5973 45.1191ZM39.1577 18.6359C39.4948 18.3195 39.7964 18.0396 40.0676 17.7882C42.6746 15.3697 42.8411 15.0811 43.6322 11.6141C43.7145 11.2537 43.8059 10.8526 43.9115 10.4024C44.2038 9.15472 45.2196 8.30247 46.4991 8.23124C46.9606 8.20554 47.3715 8.18516 47.7407 8.16661C51.2925 7.98981 51.6055 7.8758 54.44 5.72831C54.7345 5.50505 55.0628 5.25647 55.4329 4.97943C55.9459 4.59535 56.5337 4.40349 57.1218 4.40349C57.7097 4.40349 58.2975 4.59535 58.8107 4.97943C59.1424 5.22789 59.4733 5.47746 59.8034 5.72812C62.6379 7.87562 62.9509 7.98945 66.5027 8.16643C66.8719 8.18479 67.2828 8.20517 67.7443 8.23106C69.024 8.30229 70.0396 9.15453 70.3319 10.4022C70.4373 10.8524 70.5289 11.2537 70.6112 11.6141C71.4021 15.0809 71.5686 15.3695 74.1758 17.788C74.4799 18.0697 74.7831 18.3522 75.0855 18.6357C76.02 19.5127 76.2502 20.8184 75.6719 21.9622C75.4633 22.3748 75.2755 22.741 75.107 23.0698C73.4844 26.2343 73.4266 26.5623 73.869 30.0908C73.9149 30.4575 73.9661 30.8658 74.021 31.3248C74.1732 32.5973 73.5103 33.7454 72.3322 34.25C71.9073 34.4319 71.528 34.5918 71.1873 34.7354C67.9103 36.1164 67.6551 36.3304 65.7259 39.3179C65.5014 39.6662 65.2758 40.0139 65.0492 40.3609C64.3478 41.4333 63.1022 41.8867 61.875 41.5162C61.4326 41.3824 61.0393 41.2612 60.6863 41.1522C57.2885 40.1039 56.9553 40.1037 53.5568 41.1522C53.2037 41.2612 52.8105 41.3824 52.368 41.5162C51.1416 41.8869 49.8952 41.4334 49.1938 40.3609C48.9672 40.0138 48.7415 39.6661 48.5169 39.3177C46.5879 36.3304 46.3327 36.1162 43.0556 34.7354C42.715 34.5918 42.3359 34.4321 41.9109 34.25C40.7327 33.7454 40.0698 32.5973 40.222 31.3246C40.2769 30.8656 40.3281 30.4571 40.3742 30.0905C40.8166 26.562 40.7588 26.2341 39.136 23.0695C38.9675 22.7407 38.7797 22.3746 38.5711 21.962C37.993 20.8186 38.2232 19.5129 39.1577 18.6359ZM57.1212 36.4915C64.5472 36.4915 70.5888 30.4499 70.5888 23.0239C70.5888 15.5979 64.5472 9.5566 57.1212 9.5566C49.6952 9.5566 43.6539 15.5981 43.6539 23.0239C43.6539 30.4499 49.6954 36.4915 57.1212 36.4915ZM57.1212 12.4939C62.9274 12.4939 67.6513 17.2176 67.6513 23.0238C67.6513 28.8299 62.9276 33.5538 57.1212 33.5538C51.3149 33.5538 46.5914 28.8301 46.5914 23.0238C46.5914 17.2174 51.3151 12.4939 57.1212 12.4939ZM53.3823 28.2285L49.6025 24.4484C49.4661 24.3121 49.3579 24.1502 49.2841 23.972C49.2103 23.7938 49.1723 23.6028 49.1723 23.4099C49.1723 23.2171 49.2103 23.0261 49.2841 22.8479C49.3579 22.6697 49.4661 22.5078 49.6025 22.3714C49.7389 22.2351 49.9008 22.1269 50.079 22.0531C50.2572 21.9792 50.4482 21.9412 50.641 21.9412C50.8339 21.9412 51.0249 21.9792 51.2031 22.0531C51.3812 22.1269 51.5431 22.2351 51.6795 22.3714L54.47 25.1621L62.6145 17.7706C62.903 17.5088 63.2837 17.3723 63.6728 17.3912C64.0619 17.4101 64.4275 17.5827 64.6893 17.8712C64.9511 18.1597 65.0876 18.5403 65.0687 18.9294C65.0499 19.3185 64.8772 19.6842 64.5887 19.946L55.4079 28.2777C55.138 28.5232 54.7861 28.6591 54.4211 28.6588C54.2282 28.659 54.0371 28.621 53.8588 28.5472C53.6806 28.4733 53.5187 28.365 53.3823 28.2285Z" fill="white"/>
</svg>
