<svg id="_x33_0" enable-background="new 0 0 62 62" height="512" viewBox="0 0 62 62" width="512" xmlns="http://www.w3.org/2000/svg"><g><path d="m9 18c3.113 0 5.862-1.59 7.478-4h21.522v-2h-20.525c.334-.94.525-1.947.525-3 0-4.963-4.038-9-9-9s-9 4.037-9 9 4.038 9 9 9zm0-16c3.86 0 7 3.141 7 7s-3.14 7-7 7-7-3.141-7-7 3.14-7 7-7z"/><path d="m13.707 6.707-1.414-1.414-5.293 5.293-1.293-1.293-1.414 1.414 2.707 2.707z"/><path d="m56 0v14h-2v-10h-6v10h-2v-6h-6v8h22v-16zm-12 14h-2v-4h2zm6-8h2v8h-2zm10 8h-2v-12h2z"/><path d="m31 28c-1.654 0-3 1.346-3 3s1.346 3 3 3 3-1.346 3-3-1.346-3-3-3zm0 4c-.551 0-1-.448-1-1s.449-1 1-1 1 .448 1 1-.449 1-1 1z"/><path d="m35.243 22.515-1.243 1.243v-1.758h-6v1.758l-1.243-1.243-4.242 4.243 1.242 1.242h-1.757v6h1.757l-1.242 1.242 4.242 4.243 1.243-1.242v1.757h6v-1.758l1.243 1.243 4.243-4.243-1.243-1.242h1.757v-6h-1.757l1.242-1.242zm2.757 9.485h-2.018l-.752 1.815 1.427 1.427-1.415 1.415-1.427-1.428-1.815.753v2.018h-2v-2.018l-1.815-.753-1.428 1.428-1.414-1.415 1.428-1.429-.752-1.813h-2.019v-2h2.018l.752-1.815-1.427-1.427 1.414-1.415 1.427 1.428 1.816-.753v-2.018h2v2.018l1.815.753 1.427-1.428 1.415 1.415-1.427 1.427.752 1.815h2.018z"/><path d="m50 29c0 .552-.449 1-1 1h-7v2h7c1.654 0 3-1.346 3-3v-11h-2z"/><path d="m55.343 44h-.687c-3.67 0-6.656 2.986-6.656 6.657 0 1.777.692 3.448 1.95 4.707l2.05 2.05v1.586c0 1.654 1.346 3 3 3s3-1.346 3-3v-1.586l2.051-2.05c1.257-1.259 1.949-2.929 1.949-4.707 0-3.671-2.986-6.657-6.657-6.657zm-.343 16c-.551 0-1-.448-1-1v-1h2v1c0 .552-.449 1-1 1zm3.636-6.05-2.05 2.05h-.586v-4h2v-2h-6v2h2v4h-.586l-2.05-2.05c-.88-.88-1.364-2.05-1.364-3.293 0-2.568 2.089-4.657 4.657-4.657h.687c2.567 0 4.656 2.089 4.656 4.657 0 1.243-.484 2.413-1.364 3.293z"/><path d="m54 38h2v4h-2z"/><path d="m49.79 38.837h2v4.001h-2z" transform="matrix(.924 -.383 .383 .924 -11.76 22.541)"/><path d="m57.209 39.837h4.001v2h-4.001z" transform="matrix(.383 -.924 .924 .383 -1.175 79.916)"/><path d="m8 55v-1h4c1.103 0 2-.897 2-2v-16c0-1.103-.897-2-2-2h-4v-1c0-.552.449-1 1-1h11v-2h-11c-1.654 0-3 1.346-3 3v1h-4c-1.103 0-2 .897-2 2v16c0 1.103.897 2 2 2h4v1c0 1.654 1.346 3 3 3h39v-2h-39c-.551 0-1-.448-1-1zm-6-19h10l.001 16h-10.001z"/><path d="m4 38h6v2h-6z"/><path d="m4 42h6v2h-6z"/><path d="m4 46h6v2h-6z"/></g></svg>