<svg width="36" height="36" viewBox="0 0 36 36" fill="none" xmlns="http://www.w3.org/2000/svg">
<path d="M7.0125 15.3375L10.9875 17.025C11.4375 16.125 11.9188 15.2375 12.4313 14.3625C12.9438 13.4875 13.4875 12.65 14.0625 11.85L11.1 11.25L7.0125 15.3375ZM12.7875 18.375L17.775 23.3625C19.2 22.7125 20.5375 21.975 21.7875 21.15C23.0375 20.325 24.05 19.525 24.825 18.75C26.85 16.725 28.3375 14.65 29.2875 12.525C30.2375 10.4 30.75 8.00004 30.825 5.32504C28.15 5.40004 25.75 5.91254 23.625 6.86254C21.5 7.81254 19.425 9.30004 17.4 11.325C16.625 12.1 15.825 13.1125 15 14.3625C14.175 15.6125 13.4375 16.95 12.7875 18.375ZM21.375 14.775C20.875 14.275 20.625 13.6563 20.625 12.9188C20.625 12.1813 20.875 11.5625 21.375 11.0625C21.875 10.5625 22.4938 10.3125 23.2313 10.3125C23.9688 10.3125 24.5875 10.5625 25.0875 11.0625C25.5875 11.5625 25.8375 12.1813 25.8375 12.9188C25.8375 13.6563 25.5875 14.275 25.0875 14.775C24.5875 15.275 23.9688 15.525 23.2313 15.525C22.4938 15.525 21.875 15.275 21.375 14.775ZM20.8125 29.1375L24.9 25.05L24.3 22.0875C23.5 22.6625 22.6625 23.2063 21.7875 23.7188C20.9125 24.2313 20.025 24.7125 19.125 25.1625L20.8125 29.1375ZM33.0375 3.11254C33.2625 6.51254 32.8375 9.61254 31.7625 12.4125C30.6875 15.2125 28.9125 17.85 26.4375 20.325L26.3625 20.4L26.2875 20.475L27.1125 24.6C27.1875 24.975 27.1688 25.3375 27.0563 25.6875C26.9438 26.0375 26.75 26.35 26.475 26.625L20.0625 33.075L16.875 25.65L10.5 19.275L3.075 16.0875L9.525 9.67504C9.8 9.40004 10.1125 9.20629 10.4625 9.09379C10.8125 8.98129 11.175 8.96254 11.55 9.03754L15.675 9.86254C15.7 9.83754 15.725 9.81879 15.75 9.80629C15.775 9.79379 15.8 9.77504 15.825 9.75004C18.3 7.27504 20.9375 5.49379 23.7375 4.40629C26.5375 3.31879 29.6375 2.88754 33.0375 3.11254ZM5.5875 23.8125C6.4625 22.9375 7.53125 22.4938 8.79375 22.4813C10.0563 22.4688 11.125 22.9 12 23.775C12.875 24.65 13.3063 25.7188 13.2938 26.9813C13.2812 28.2438 12.8375 29.3125 11.9625 30.1875C11.3125 30.8375 10.3063 31.375 8.94375 31.8C7.58125 32.225 5.5375 32.625 2.8125 33C3.1875 30.275 3.58125 28.225 3.99375 26.85C4.40625 25.475 4.9375 24.4625 5.5875 23.8125ZM7.1625 25.425C6.8125 25.8 6.5 26.3875 6.225 27.1875C5.95 27.9875 5.7125 29.0125 5.5125 30.2625C6.7625 30.0625 7.7875 29.825 8.5875 29.55C9.3875 29.275 9.975 28.9625 10.35 28.6125C10.825 28.1875 11.0688 27.6563 11.0813 27.0188C11.0938 26.3813 10.875 25.825 10.425 25.35C9.95 24.9 9.39375 24.6813 8.75625 24.6938C8.11875 24.7063 7.5875 24.95 7.1625 25.425Z" fill="black"/>
</svg>
