<svg xmlns="http://www.w3.org/2000/svg" version="1.1" xmlns:xlink="http://www.w3.org/1999/xlink" width="512" height="512" x="0" y="0" viewBox="0 0 64 64" style="enable-background:new 0 0 512 512" xml:space="preserve" class=""><g><path d="M11 60c4.96 0 9-4.04 9-9s-4.04-9-9-9-9 4.04-9 9 4.04 9 9 9zm0-16c3.86 0 7 3.14 7 7s-3.14 7-7 7-7-3.14-7-7 3.14-7 7-7zM52.59 40A2.59 2.59 0 0 0 50 42.59v.81c0 .6.22 1.15.56 1.59-.35.44-.56.99-.56 1.59v.81c0 .6.22 1.15.56 1.59-.35.44-.56.99-.56 1.59v.81c0 .6.22 1.15.56 1.59-.35.44-.56.99-.56 1.59v.81c0 .6.22 1.15.56 1.59-.35.44-.56.99-.56 1.59v.81a2.59 2.59 0 0 0 2.59 2.59h6.81a2.59 2.59 0 0 0 2.59-2.59v-.81c0-.6-.22-1.15-.56-1.59.35-.44.56-.99.56-1.59v-.81c0-.6-.22-1.15-.56-1.59.35-.44.56-.99.56-1.59v-.81c0-.6-.22-1.15-.56-1.59.35-.44.56-.99.56-1.59v-.81c0-.6-.22-1.15-.56-1.59.35-.44.56-.99.56-1.59v-.81A2.59 2.59 0 0 0 59.4 40zM60 59.41c0 .33-.27.59-.59.59H52.6c-.33 0-.59-.27-.59-.59v-.81c0-.33.27-.59.59-.59h6.81c.33 0 .59.27.59.59zm0-4c0 .33-.27.59-.59.59H52.6c-.33 0-.59-.27-.59-.59v-.81c0-.33.27-.59.59-.59h6.81c.33 0 .59.27.59.59zm0-4c0 .33-.27.59-.59.59H52.6c-.33 0-.59-.27-.59-.59v-.81c0-.33.27-.59.59-.59h6.81c.33 0 .59.27.59.59zm0-4c0 .33-.27.59-.59.59H52.6c-.33 0-.59-.27-.59-.59v-.81c0-.33.27-.59.59-.59h6.81c.33 0 .59.27.59.59zm0-4.81v.81c0 .33-.27.59-.59.59H52.6c-.33 0-.59-.27-.59-.59v-.81c0-.33.27-.59.59-.59h6.81c.33 0 .59.27.59.59zM48 50.59A2.59 2.59 0 0 0 45.41 48H38.6a2.59 2.59 0 0 0-2.59 2.59v.81c0 .6.22 1.15.56 1.59-.35.44-.56.99-.56 1.59v.81c0 .6.22 1.15.56 1.59-.35.44-.56.99-.56 1.59v.81a2.59 2.59 0 0 0 2.59 2.59h6.81A2.59 2.59 0 0 0 48 59.38v-.81c0-.6-.22-1.15-.56-1.59.35-.44.56-.99.56-1.59v-.81c0-.6-.22-1.15-.56-1.59.35-.44.56-.99.56-1.59zm-2 8.81c0 .33-.27.59-.59.59H38.6c-.33 0-.59-.27-.59-.59v-.81c0-.33.27-.59.59-.59h6.81c.33 0 .59.27.59.59zm0-4c0 .33-.27.59-.59.59H38.6c-.33 0-.59-.27-.59-.59v-.81c0-.33.27-.59.59-.59h6.81c.33 0 .59.27.59.59zm0-4c0 .33-.27.59-.59.59H38.6c-.33 0-.59-.27-.59-.59v-.81c0-.33.27-.59.59-.59h6.81c.33 0 .59.27.59.59zM34 54.59A2.59 2.59 0 0 0 31.41 52H24.6a2.59 2.59 0 0 0-2.59 2.59v.81c0 .6.22 1.15.56 1.59-.35.44-.56.99-.56 1.59v.81a2.59 2.59 0 0 0 2.59 2.59h6.81A2.59 2.59 0 0 0 34 59.39v-.81c0-.6-.22-1.15-.56-1.59.35-.44.56-.99.56-1.59zm-2 4.81c0 .33-.27.59-.59.59H24.6c-.33 0-.59-.27-.59-.59v-.81c0-.33.27-.59.59-.59h6.81c.33 0 .59.27.59.59zm0-4c0 .33-.27.59-.59.59H24.6c-.33 0-.59-.27-.59-.59v-.81c0-.33.27-.59.59-.59h6.81c.33 0 .59.27.59.59zM10 6v33c0 .55.45 1 1 1s1-.45 1-1V6l1.2 1.6 1.6-1.2-3-4c-.12-.16-.28-.28-.48-.35-.41-.13-.86 0-1.12.35l-3 4 1.6 1.2zM22 47h9c6.21 0 11.39-2.37 17.32-7.93C53.84 33.9 57 26.59 57 19.03V18l1.2 1.6 1.6-1.2-3-4c-.4-.53-1.2-.53-1.6 0l-3 4 1.6 1.2L55 18v1.03c0 7.05-2.93 13.79-8.08 18.6-5.51 5.16-10.28 7.36-15.92 7.36h-9c-.55 0-1 .45-1 1s.45 1 1 1z" fill="#ffffff" opacity="1" data-original="#000000"></path><path d="M10 51.97v1.15H8.61c-.34 0-.61.27-.61.61v.77c0 .34.27.61.61.61H10v.88h2v-.9c1.54-.13 2.67-1.02 2.67-2.17v-.72c0-1.16-1.13-2.05-2.67-2.17v-1.15h1.39c.34 0 .61-.27.61-.61v-.77c0-.34-.27-.61-.61-.61H12v-.88h-2v.9c-1.54.13-2.67 1.02-2.67 2.17v.72c0 1.16 1.13 2.05 2.67 2.17zm2 .06c.36.06.58.18.67.26v.55c-.08.07-.31.2-.67.26v-1.06zm-2.67-2.87c.08-.07.31-.2.67-.26v1.06c-.36-.06-.58-.18-.67-.26v-.55z" fill="#ffffff" opacity="1" data-original="#000000"></path></g></svg>