<?xml version="1.0" encoding="UTF-8"?>
<svg xmlns="http://www.w3.org/2000/svg" id="Layer_1" data-name="Layer 1" viewBox="0 0 64 64" width="512" height="512"><path d="M3,42h8v2H8v2h8V44H13V42h8a2,2,0,0,0,2-2V26a2,2,0,0,0-2-2H18.7a1.564,1.564,0,0,0,.25-.512,1.532,1.532,0,0,0-.172-1.2l-.966-1.6a1.613,1.613,0,0,0-2.163-.567l-.146.08a6.062,6.062,0,0,0-.931-.52v-.1A1.591,1.591,0,0,0,12.967,18H11.033a1.591,1.591,0,0,0-1.6,1.576v.1a6.062,6.062,0,0,0-.931.52l-.146-.081a1.61,1.61,0,0,0-2.164.57l-.964,1.6a1.534,1.534,0,0,0-.173,1.206A1.564,1.564,0,0,0,5.3,24H3a2,2,0,0,0-2,2V40A2,2,0,0,0,3,42ZM7.9,25a3.7,3.7,0,0,1,.037-.514,1.562,1.562,0,0,0-.764-1.559l.534-.886.034.019a1.65,1.65,0,0,0,1.76-.125,4.149,4.149,0,0,1,.909-.5A1.591,1.591,0,0,0,11.431,20h1.138a1.593,1.593,0,0,0,1.022,1.431,4.12,4.12,0,0,1,.908.5,1.648,1.648,0,0,0,1.761.124l.033-.018.534.886a1.561,1.561,0,0,0-.765,1.552,3.59,3.59,0,0,1,0,1.035,1.562,1.562,0,0,0,.764,1.559l-.534.886-.034-.019a1.644,1.644,0,0,0-1.76.125,4.149,4.149,0,0,1-.909.5A1.591,1.591,0,0,0,12.569,30H11.431a1.593,1.593,0,0,0-1.022-1.431,4.12,4.12,0,0,1-.908-.5,1.648,1.648,0,0,0-1.761-.124l-.033.018-.534-.886a1.558,1.558,0,0,0,.764-1.552A3.884,3.884,0,0,1,7.9,25ZM3,26H5.3a1.564,1.564,0,0,0-.25.512,1.532,1.532,0,0,0,.172,1.2l.966,1.6a1.612,1.612,0,0,0,2.163.567l.146-.08a6.062,6.062,0,0,0,.931.52v.1A1.591,1.591,0,0,0,11.033,32h1.934a1.591,1.591,0,0,0,1.6-1.576v-.1a6.062,6.062,0,0,0,.931-.52l.146.081a1.613,1.613,0,0,0,2.164-.57l.964-1.6a1.534,1.534,0,0,0,.173-1.206A1.564,1.564,0,0,0,18.7,26H21V36H3ZM3,38H21v2H3Z"/><path d="M12,28a3,3,0,1,0-3-3A3,3,0,0,0,12,28Zm0-4a1,1,0,1,1-1,1A1,1,0,0,1,12,24Z"/><path d="M61,1H45a2,2,0,0,0-2,2V15a2,2,0,0,0,2,2H61a2,2,0,0,0,2-2V3A2,2,0,0,0,61,1ZM45,15V3H61V15Z"/><path d="M32,9V31H26v2h6V55a1,1,0,0,0,1,1h7V54H34V33h6V31H34V10h6V8H33A1,1,0,0,0,32,9Z"/><path d="M51.232,10.268,49.818,8.854,48.4,10.268l2.121,2.121a1,1,0,0,0,1.414,0L57.6,6.732,56.182,5.318Z"/><path d="M61,24H45a2,2,0,0,0-2,2V38a2,2,0,0,0,2,2H61a2,2,0,0,0,2-2V26A2,2,0,0,0,61,24ZM45,38V26H61V38Z"/><path d="M51.232,33.268l-1.414-1.414L48.4,33.268l2.121,2.121a1,1,0,0,0,1.414,0L57.6,29.732l-1.414-1.414Z"/><path d="M61,47H45a2,2,0,0,0-2,2V61a2,2,0,0,0,2,2H61a2,2,0,0,0,2-2V49A2,2,0,0,0,61,47ZM45,61V49H61V61Z"/><path d="M51.232,56.268l-1.414-1.414L48.4,56.268l2.121,2.121a1,1,0,0,0,1.414,0L57.6,52.732l-1.414-1.414Z"/></svg>
