<svg width="36" height="36" viewBox="0 0 36 36" fill="none" xmlns="http://www.w3.org/2000/svg">
<path d="M11.9447 5.31395C12.0896 5.27877 12.2146 5.18749 12.2923 5.06018C12.3699 4.93287 12.3938 4.77994 12.3587 4.63501C12.3416 4.56306 12.3105 4.4952 12.267 4.43536C12.2236 4.37551 12.1687 4.32485 12.1056 4.28631C12.0425 4.24778 11.9724 4.22211 11.8993 4.21081C11.8262 4.1995 11.7516 4.20278 11.6798 4.22045C9.4701 4.75056 7.50382 6.01048 6.09886 7.79648C4.69391 9.58247 3.93242 11.7901 3.93753 14.0625C3.93753 19.6453 8.47971 24.1875 14.0625 24.1875C16.3353 24.1926 18.5433 23.4309 20.3295 22.0255C22.1156 20.6201 23.3755 18.6532 23.9052 16.443C23.9402 16.2979 23.9162 16.1449 23.8384 16.0175C23.7606 15.8901 23.6354 15.7989 23.4903 15.7638C23.3452 15.7287 23.1922 15.7527 23.0648 15.8305C22.9374 15.9083 22.8461 16.0336 22.8111 16.1786C22.3404 18.1432 21.2206 19.8915 19.633 21.1408C18.0454 22.39 16.0827 23.0671 14.0625 23.0625C9.10015 23.0625 5.06253 19.0249 5.06253 14.0625C5.06253 9.89214 7.89246 6.29439 11.9447 5.31395Z" fill="black"/>
<path d="M27.0433 23.5783C27.3302 22.6193 27.108 21.5393 26.3514 20.7833L25.5578 19.9896C26.1411 18.8648 26.5553 17.6601 26.7868 16.4143C26.8002 16.3417 26.7991 16.2671 26.7837 16.1949C26.7682 16.1226 26.7387 16.0542 26.6968 15.9933C26.6549 15.9325 26.6014 15.8805 26.5394 15.8404C26.4774 15.8002 26.4081 15.7727 26.3354 15.7593C26.2628 15.7459 26.1882 15.747 26.116 15.7625C26.0437 15.7779 25.9752 15.8074 25.9144 15.8493C25.8536 15.8913 25.8016 15.9448 25.7614 16.0068C25.7213 16.0688 25.6937 16.1381 25.6804 16.2107C24.651 21.8104 19.7657 25.875 14.0625 25.875C7.54875 25.875 2.25 20.5763 2.25 14.0625C2.25 8.19509 6.62513 3.16521 12.4279 2.36253C12.5757 2.34201 12.7094 2.26361 12.7994 2.14457C12.8894 2.02552 12.9285 1.87559 12.908 1.72775C12.8875 1.5799 12.8091 1.44627 12.69 1.35623C12.571 1.2662 12.421 1.22714 12.2732 1.24765C5.91806 2.1274 1.125 7.63653 1.125 14.0625C1.125 21.1961 6.92888 27 14.0625 27C16.1859 27 18.2003 26.4752 19.9862 25.5544L20.7833 26.352C21.0442 26.6133 21.3542 26.8205 21.6954 26.9616C22.0367 27.1027 22.4024 27.175 22.7717 27.1744C23.0451 27.1744 23.3145 27.1221 23.5783 27.0433L30.6917 34.1573C31.1517 34.6159 31.7749 34.8735 32.4245 34.8735C33.0741 34.8735 33.6972 34.6159 34.1573 34.1573C34.6161 33.6973 34.8737 33.0742 34.8737 32.4245C34.8737 31.7748 34.6161 31.1517 34.1573 30.6917L27.0433 23.5783ZM21.5786 25.5566L20.997 24.975C22.5993 23.958 23.9582 22.6009 24.9773 20.9998L25.5566 21.5792C25.8724 21.896 26.0498 22.325 26.0498 22.7723C26.0498 23.2196 25.8724 23.6486 25.5566 23.9653L23.9653 25.5566C23.6485 25.8726 23.2194 26.0501 22.772 26.0501C22.3246 26.0501 21.8954 25.8726 21.5786 25.5566ZM33.3619 33.3619C33.113 33.6099 32.7759 33.7492 32.4245 33.7492C32.0731 33.7492 31.736 33.6099 31.4871 33.3619L24.6049 26.4791C24.8209 26.3104 26.3104 24.8215 26.4791 24.6049L33.3619 31.4871C33.6101 31.7359 33.7494 32.073 33.7494 32.4245C33.7494 32.7759 33.6101 33.113 33.3619 33.3619Z" fill="black"/>
<path d="M32.0625 1.125H16.3125C14.7617 1.125 13.5 2.38669 13.5 3.9375V11.8125C13.5 13.3633 14.7617 14.625 16.3125 14.625H32.0625C33.6133 14.625 34.875 13.3633 34.875 11.8125V3.9375C34.875 2.38669 33.6133 1.125 32.0625 1.125ZM33.75 11.8125C33.75 12.7429 32.9929 13.5 32.0625 13.5H16.3125C15.3821 13.5 14.625 12.7429 14.625 11.8125V3.9375C14.625 3.00713 15.3821 2.25 16.3125 2.25H32.0625C32.9929 2.25 33.75 3.00713 33.75 3.9375V11.8125Z" fill="black"/>
<path d="M17.5825 5.64746C18.0421 5.64746 18.415 6.02096 18.415 6.47996C18.415 6.62915 18.4743 6.77222 18.5798 6.87771C18.6852 6.9832 18.8283 7.04246 18.9775 7.04246C19.1267 7.04246 19.2698 6.9832 19.3752 6.87771C19.4807 6.77222 19.54 6.62915 19.54 6.47996C19.54 5.40052 18.6625 4.52246 17.5825 4.52246C16.5025 4.52246 15.625 5.40052 15.625 6.47996C15.625 7.5594 16.5031 8.43746 17.5825 8.43746C18.0421 8.43746 18.415 8.81096 18.415 9.26996C18.415 9.72896 18.0421 10.1025 17.5825 10.1025C17.1235 10.1025 16.75 9.72896 16.75 9.26996C16.75 9.12078 16.6907 8.9777 16.5852 8.87221C16.4798 8.76672 16.3367 8.70746 16.1875 8.70746C16.0383 8.70746 15.8952 8.76672 15.7898 8.87221C15.6843 8.9777 15.625 9.12078 15.625 9.26996C15.625 10.3494 16.5031 11.2275 17.5825 11.2275C18.6619 11.2275 19.54 10.3494 19.54 9.26996C19.54 8.19052 18.6625 7.31246 17.5825 7.31246C17.1235 7.31246 16.75 6.93896 16.75 6.47996C16.75 6.02096 17.1235 5.64746 17.5825 5.64746ZM24.7392 5.64746C24.8884 5.64746 25.0314 5.5882 25.1369 5.48271C25.2424 5.37722 25.3017 5.23415 25.3017 5.08496C25.3017 4.93578 25.2424 4.7927 25.1369 4.68721C25.0314 4.58172 24.8884 4.52246 24.7392 4.52246H21.9964C21.8473 4.52246 21.7042 4.58172 21.5987 4.68721C21.4932 4.7927 21.4339 4.93578 21.4339 5.08496V10.665C21.4339 10.8141 21.4932 10.9572 21.5987 11.0627C21.7042 11.1682 21.8473 11.2275 21.9964 11.2275H24.7386C24.8878 11.2275 25.0309 11.1682 25.1364 11.0627C25.2419 10.9572 25.3011 10.8141 25.3011 10.665C25.3011 10.5158 25.2419 10.3727 25.1364 10.2672C25.0309 10.1617 24.8878 10.1025 24.7386 10.1025H22.5589V8.43746H24.7386C24.8878 8.43746 25.0309 8.3782 25.1364 8.27271C25.2419 8.16722 25.3011 8.02415 25.3011 7.87496C25.3011 7.72578 25.2419 7.5827 25.1364 7.47721C25.0309 7.37172 24.8878 7.31246 24.7386 7.31246H22.5589V5.64746H24.7392ZM29.4023 4.52246C27.5534 4.52246 26.0498 6.02602 26.0498 7.87496C26.0498 9.7239 27.5534 11.2275 29.4023 11.2275C31.2512 11.2275 32.7548 9.7239 32.7548 7.87496C32.7548 6.02602 31.2512 4.52246 29.4023 4.52246ZM29.4023 10.1025C28.1744 10.1025 27.1748 9.10346 27.1748 7.87496C27.1748 6.64646 28.1744 5.64746 29.4023 5.64746C30.6302 5.64746 31.6298 6.64646 31.6298 7.87496C31.6298 9.10346 30.6308 10.1025 29.4023 10.1025Z" fill="black"/>
</svg>
