<svg width="270" height="115" viewBox="0 0 270 115" fill="none" xmlns="http://www.w3.org/2000/svg">
<g clip-path="url(#clip0_260_388)">
<path opacity="0.1" d="M135.5 114.5C208.954 114.5 268.5 54.9539 268.5 -18.5C268.5 -91.9539 208.954 -151.5 135.5 -151.5C62.0461 -151.5 2.5 -91.9539 2.5 -18.5C2.5 54.9539 62.0461 114.5 135.5 114.5Z" stroke="#5BBD60"/>
<path opacity="0.1" d="M115.5 114.5C188.954 114.5 248.5 54.9539 248.5 -18.5C248.5 -91.9539 188.954 -151.5 115.5 -151.5C42.0461 -151.5 -17.5 -91.9539 -17.5 -18.5C-17.5 54.9539 42.0461 114.5 115.5 114.5Z" stroke="#5BBD60"/>
<path opacity="0.1" d="M155.5 114.5C228.954 114.5 288.5 54.9539 288.5 -18.5C288.5 -91.9539 228.954 -151.5 155.5 -151.5C82.0461 -151.5 22.5 -91.9539 22.5 -18.5C22.5 54.9539 82.0461 114.5 155.5 114.5Z" stroke="#5BBD60"/>
</g>
<defs>
<clipPath id="clip0_260_388">
<rect width="270" height="115" fill="white"/>
</clipPath>
</defs>
</svg>
