<svg width="41" height="41" viewBox="0 0 41 41" fill="none" xmlns="http://www.w3.org/2000/svg">
<g clip-path="url(#clip0_3037_1694)">
<path d="M24.1548 32.197V24.2759H20.5447V26.763H12.4426C11.5759 26.7705 10.875 27.4715 10.875 28.3382V32.2046C10.875 34.3073 12.5783 36.0106 14.6811 36.0106H20.3563C22.459 36.0031 24.1623 34.2998 24.1548 32.197Z" fill="#35373C"/>
<path d="M20.5517 36.2517C20.4915 34.8122 19.3157 33.6816 17.8762 33.6816H17.1602C15.7207 33.6816 14.5449 34.8197 14.4922 36.2592L20.5517 36.2517Z" fill="#EFCDB1"/>
<path d="M17.5147 33.644C17.266 33.6364 17.07 33.4405 17.0625 33.1918V30.064C17.0625 29.8153 17.266 29.6118 17.5147 29.6118C17.7634 29.6118 17.9669 29.8153 17.9669 30.064V33.1918C17.9744 33.4405 17.7785 33.6364 17.5298 33.644H17.5222H17.5147Z" fill="#414042"/>
<path d="M20.5593 38.317V36.252H14.4922V38.317C14.4847 39.7942 15.683 40.9926 17.1602 41.0001H17.8838C19.361 40.9926 20.5593 39.7942 20.5593 38.317Z" fill="#474341"/>
<path d="M20.546 30.9234C20.2972 30.9234 20.0938 30.7199 20.0938 30.4712V27.1475C20.0938 26.8988 20.2972 26.6953 20.546 26.6953C20.7947 26.6953 20.9982 26.8988 20.9982 27.1475V30.4712C20.9982 30.7199 20.7947 30.9234 20.546 30.9234Z" fill="#2F3033"/>
<path d="M24.1416 24.2759V22.3012C24.1416 21.8113 23.7497 21.4194 23.2598 21.4194H21.4209C20.931 21.4194 20.5391 21.8113 20.5391 22.3012V24.2759H24.1416Z" fill="#EFCDB1"/>
<path d="M33.8709 21.7136L26.4095 19.0381L25.1886 22.4372L27.5325 23.2737L24.7966 30.9085C24.5027 31.7225 24.9248 32.6193 25.7387 32.9133L29.379 34.2171C31.3612 34.9256 33.5393 33.9006 34.2477 31.9184L36.1621 26.5824C36.8705 24.6078 35.8455 22.4296 33.8709 21.7136Z" fill="#89C45E"/>
<path d="M36.4554 26.4842C35.0837 26.047 33.614 26.7706 33.1317 28.1272L32.8905 28.798C32.4082 30.1546 33.0789 31.6469 34.4129 32.1895L36.4554 26.4842Z" fill="#EFCDB1"/>
<path d="M32.5513 28.7527C32.4986 28.7527 32.4458 28.7451 32.4006 28.7225L29.4537 27.6674C29.2201 27.5845 29.0995 27.3207 29.1824 27.087C29.2653 26.8534 29.514 26.7328 29.7477 26.8157H29.7552L32.7021 27.8709C32.9357 27.9462 33.0714 28.2025 32.9885 28.4436C32.9282 28.6321 32.7473 28.7602 32.5513 28.7527Z" fill="#414042"/>
<path d="M38.4085 27.1778L36.562 26.5145L36.4565 26.4844L34.4141 32.1897L34.512 32.2274L36.3585 32.8906C37.7529 33.3881 39.2828 32.6645 39.7802 31.2702L40.0214 30.5994C40.5188 29.2127 39.7953 27.6827 38.4085 27.1778Z" fill="#474341"/>
<path d="M31.0213 24.977L30.8705 24.9544L27.7428 23.8314C27.5092 23.7485 27.3886 23.4847 27.4715 23.2511C27.5544 23.0175 27.8182 22.8969 28.0518 22.9798L31.1796 24.1027C31.4132 24.1856 31.5338 24.4344 31.4509 24.668V24.6755C31.383 24.8564 31.2172 24.977 31.0213 24.977Z" fill="#75AA4D"/>
<path d="M26.4126 19.038L24.551 18.3747C24.0912 18.2089 23.5863 18.4501 23.4205 18.9023V18.9098L22.8025 20.6357C22.6366 21.0955 22.8778 21.6005 23.33 21.7663H23.3376L25.1916 22.437L26.4126 19.038Z" fill="#EFCDB1"/>
<path d="M27.3285 9.59451L22.6406 15.9857L25.5498 18.1186L27.0195 16.1138L33.5539 20.9072C34.2548 21.4197 35.2346 21.269 35.7471 20.568L38.0382 17.4478C39.2818 15.752 38.9125 13.3704 37.2167 12.1269L32.6419 8.773C30.9461 7.53697 28.5721 7.90627 27.3285 9.59451Z" fill="#45B34A"/>
<path d="M32.6323 8.46387C31.8259 9.65468 32.1047 11.2675 33.2654 12.1192L33.8382 12.5413C34.9989 13.3854 36.6193 13.1743 37.5161 12.0514L32.6323 8.46387Z" fill="#EFCDB1"/>
<path d="M31.4119 15.699C31.314 15.699 31.2235 15.6689 31.1482 15.6161C30.9447 15.4654 30.8994 15.1865 31.0502 14.983L32.8967 12.4582C33.0474 12.2547 33.3263 12.2095 33.5298 12.3602C33.7333 12.511 33.7785 12.7898 33.6277 12.9933L31.7737 15.5181C31.6908 15.6312 31.5551 15.699 31.4119 15.699Z" fill="#414042"/>
<path d="M33.8462 6.79807L32.6856 8.38079L32.6328 8.4637L37.5166 12.0512L37.5845 11.9683L38.7451 10.378C39.6194 9.18723 39.3556 7.51407 38.1648 6.6398L37.592 6.21774C36.4012 5.34348 34.728 5.59973 33.8538 6.79054C33.8462 6.79054 33.8462 6.79807 33.8462 6.79807Z" fill="#474341"/>
<path d="M27.2428 16.2567C27.1448 16.2567 27.0544 16.2266 26.9714 16.1738C26.768 16.0231 26.7303 15.7442 26.881 15.5407L28.8406 12.8576C28.9913 12.6541 29.2702 12.6089 29.4737 12.7596C29.6771 12.9104 29.7224 13.1892 29.5716 13.3927L27.6045 16.0758C27.5216 16.1889 27.386 16.2567 27.2428 16.2567Z" fill="#9B9892"/>
<path d="M22.6353 15.9854L21.4671 17.5756C21.1807 17.9675 21.2637 18.5177 21.6556 18.8116L23.1403 19.8969C23.5322 20.1833 24.0824 20.1004 24.3763 19.7085L25.5445 18.1183L22.6353 15.9854Z" fill="#EFCDB1"/>
<path d="M11.7792 25.8439L19.1351 22.8895L17.7935 19.5431L15.4797 20.4702L12.4575 12.9485C12.1409 12.1496 11.2365 11.7501 10.4301 12.0667C10.4301 12.0667 10.4226 12.0667 10.4226 12.0742L6.82752 13.5213C4.88303 14.3051 3.94094 16.5209 4.71723 18.4654L6.83506 23.726C7.61134 25.6781 9.81962 26.6277 11.7716 25.8439H11.7792Z" fill="#539040"/>
<path d="M6.67537 24.0048C7.98676 23.417 8.60478 21.8946 8.06967 20.5605L7.79835 19.8973C7.26324 18.5633 5.77096 17.8925 4.42188 18.3749L6.67537 24.0048Z" fill="#EFCDB1"/>
<path d="M8.38422 20.4999C8.20333 20.4999 8.03753 20.3868 7.96969 20.2135C7.87925 19.9798 7.98477 19.716 8.21841 19.6256L11.1201 18.4574C11.3537 18.367 11.6175 18.48 11.7155 18.7136C11.8059 18.9473 11.6929 19.2111 11.4592 19.3015L8.55756 20.4697C8.5048 20.4923 8.44451 20.4999 8.38422 20.4999Z" fill="#414042"/>
<path d="M4.75953 24.7732L6.58342 24.0422L6.67386 24.0045L4.42037 18.3745L4.31486 18.4122L2.4985 19.1433C1.1268 19.6934 0.46357 21.2536 1.01375 22.6252L1.27754 23.2885C1.82772 24.6602 3.38783 25.3234 4.75953 24.7732Z" fill="#474341"/>
<path d="M12.046 22.3012C11.7973 22.3087 11.5863 22.1128 11.5863 21.864C11.5787 21.6756 11.6993 21.5023 11.8727 21.4269L14.9552 20.1909C15.1888 20.1004 15.4526 20.206 15.5431 20.4396C15.6411 20.6657 15.5355 20.9295 15.3094 21.0199C15.3019 21.0199 15.3019 21.0199 15.2944 21.0275L12.2118 22.271C12.1591 22.2936 12.1063 22.3012 12.046 22.3012Z" fill="#333538"/>
<path d="M19.1306 22.8892L20.962 22.1506C21.4142 21.9697 21.6328 21.4572 21.4519 21.005L20.7661 19.2941C20.5852 18.8419 20.0727 18.6233 19.6205 18.8042L17.7891 19.5428L19.1306 22.8892Z" fill="#EFCDB1"/>
<path d="M13.0803 11.6444L17.4742 18.239L20.4738 16.2418L19.0946 14.1767L25.8476 9.6848C26.5636 9.20244 26.7595 8.2302 26.2772 7.50667L24.1367 4.28847C22.9685 2.53994 20.6095 2.06513 18.861 3.22579L14.143 6.36862C12.3944 7.52928 11.9196 9.89583 13.0803 11.6444Z" fill="#81DD85"/>
<path d="M13.8438 6.27839C14.6879 7.43905 16.2932 7.73299 17.4915 6.93409L18.0869 6.54218C19.2853 5.75082 19.6471 4.14548 18.8934 2.91699L13.8438 6.27839Z" fill="#EFCDB1"/>
<path d="M19.7938 10.2049C19.643 10.2049 19.4998 10.1296 19.4169 10.0014L17.6835 7.39371C17.5327 7.19022 17.578 6.91136 17.7739 6.76062C17.9774 6.60989 18.2563 6.65511 18.407 6.85106C18.4145 6.86614 18.4296 6.88121 18.4372 6.89628L20.1706 9.49647C20.3063 9.7075 20.2535 9.98636 20.0425 10.1296C19.9671 10.1748 19.8842 10.2049 19.7938 10.2049Z" fill="#414042"/>
<path d="M12.693 4.55225L13.7783 6.18773L13.8386 6.27817L18.8882 2.91677L18.8279 2.82633L17.7426 1.19085C16.9211 -0.0376409 15.2555 -0.369259 14.027 0.452249L13.4392 0.84416C12.2107 1.65813 11.8715 3.30868 12.6855 4.54471L12.693 4.55225Z" fill="#474341"/>
<path d="M18.8798 14.3126C18.7291 14.3126 18.5859 14.2373 18.503 14.1091L16.664 11.3431C16.5208 11.1321 16.5811 10.8533 16.7921 10.7176C17.0031 10.5744 17.282 10.6347 17.4177 10.8382L19.2566 13.6042C19.3923 13.8077 19.3395 14.0865 19.1436 14.2222C19.136 14.2222 19.136 14.2297 19.1285 14.2297C19.0531 14.2825 18.9702 14.3126 18.8798 14.3126Z" fill="#726D6D"/>
<path d="M17.4766 18.2389L18.5694 19.882C18.8332 20.2889 19.3758 20.402 19.7753 20.1382C19.7828 20.1382 19.7828 20.1307 19.7903 20.1307L21.3278 19.1132C21.7348 18.8419 21.8403 18.2917 21.569 17.8847L20.4762 16.2417L17.4766 18.2389Z" fill="#EFCDB1"/>
</g>
<defs>
<clipPath id="clip0_3037_1694">
<rect width="41" height="41" fill="white"/>
</clipPath>
</defs>
</svg>
