<svg width="94" height="94" viewBox="0 0 94 94" fill="none" xmlns="http://www.w3.org/2000/svg">
<g clip-path="url(#clip0_889_8252)">
<path d="M77.7443 60.0471C77.7425 58.4274 77.0982 56.8745 75.9529 55.7292C74.8076 54.5839 73.2547 53.9396 71.635 53.9378H53.1471C55.7003 47.7498 55.7096 40.8045 53.173 34.6096C53.1508 34.5553 53.1254 34.5023 53.0968 34.451C52.5754 33.5129 51.8025 32.7388 50.8651 32.216C49.9278 31.6931 48.8631 31.4422 47.7909 31.4915C46.7187 31.5408 45.6815 31.8883 44.7961 32.4949C43.9106 33.1015 43.212 33.9432 42.7788 34.9252C42.7105 35.0803 42.6695 35.246 42.6575 35.4151L42.2211 41.6108C41.5678 45.1715 39.6465 48.3748 36.813 50.6278C35.678 51.0262 33.6001 52.4355 28.1793 57.5935V57.4395C28.1785 56.6274 27.8555 55.8488 27.2812 55.2746C26.7069 54.7003 25.9283 54.3774 25.1162 54.3766H9.69708C8.885 54.3774 8.10642 54.7004 7.5322 55.2746C6.95797 55.8489 6.63501 56.6274 6.63418 57.4395V88.2098C6.63477 89.0221 6.95762 89.8009 7.53187 90.3753C8.10613 90.9497 8.88484 91.2728 9.69708 91.2736H25.1153C25.9274 91.2729 26.706 90.9499 27.2803 90.3757C27.8545 89.8015 28.1775 89.0229 28.1784 88.2107V88.0758C32.4183 89.011 34.6311 90.1225 37.2123 92.5202C38.2271 93.4856 39.5787 94.0166 40.9793 94H64.8786C66.0383 94.0004 67.1742 93.6706 68.1533 93.0491C69.1324 92.4276 69.9143 91.5401 70.4075 90.4904C70.9007 89.4408 71.0848 88.2724 70.9382 87.1219C70.7916 85.9715 70.3205 84.8866 69.5799 83.9941C71.4872 82.8469 72.8442 80.7928 72.8442 78.6104C72.8456 77.2527 72.3924 75.9336 71.557 74.8633C73.4998 73.7127 74.8936 71.5887 74.8936 69.3292C74.8951 68.0554 74.4962 66.8134 73.7533 65.7787C74.9238 65.3445 75.9334 64.5627 76.6468 63.5382C77.3601 62.5137 77.7431 61.2955 77.7443 60.0471ZM25.2409 88.2104C25.2396 88.2433 25.226 88.2745 25.2027 88.2977C25.1794 88.321 25.1482 88.3346 25.1153 88.3358H9.69708C9.6642 88.3346 9.63299 88.321 9.60973 88.2977C9.58646 88.2745 9.57287 88.2433 9.57168 88.2104V57.4401C9.57291 57.4072 9.58652 57.376 9.60977 57.3528C9.63303 57.3295 9.66421 57.3159 9.69708 57.3147H25.1153C25.1482 57.3159 25.1794 57.3295 25.2027 57.3527C25.2259 57.376 25.2396 57.4072 25.2409 57.4401V88.2104ZM71.635 63.2187H66.5302C66.1406 63.2187 65.7671 63.3734 65.4916 63.6489C65.2162 63.9243 65.0614 64.2979 65.0614 64.6874C65.0614 65.077 65.2162 65.4505 65.4916 65.726C65.7671 66.0014 66.1406 66.1562 66.5302 66.1562H68.7843C69.6252 66.1573 70.4313 66.4919 71.0258 67.0865C71.6204 67.681 71.9549 68.4871 71.9561 69.3279C71.9561 70.9803 70.3232 72.6613 68.6474 72.8063C68.0303 72.6028 67.3847 72.4993 66.7349 72.4999C66.3454 72.4999 65.9718 72.6546 65.6963 72.9301C65.4209 73.2055 65.2661 73.5791 65.2661 73.9686C65.2661 74.3582 65.4209 74.7318 65.6963 75.0072C65.9718 75.2827 66.3454 75.4374 66.7349 75.4374C67.1063 75.437 67.4748 75.5021 67.8236 75.6298C67.8623 75.6469 67.9016 75.6623 67.942 75.6759C68.5228 75.9158 69.0194 76.3225 69.3691 76.8446C69.7188 77.3667 69.9058 77.9808 69.9065 78.6092C69.9065 80.2285 68.2086 81.8771 66.4799 81.9939C65.9579 81.8522 65.4193 81.7806 64.8784 81.7809C64.4889 81.7809 64.1153 81.9357 63.8398 82.2111C63.5644 82.4866 63.4096 82.8601 63.4096 83.2497C63.4096 83.6392 63.5644 84.0128 63.8398 84.2882C64.1153 84.5637 64.4889 84.7184 64.8784 84.7184C65.186 84.7182 65.4919 84.7629 65.7866 84.851C65.8213 84.8635 65.8568 84.8748 65.8927 84.8848C66.6057 85.1251 67.21 85.611 67.5978 86.2557C67.9856 86.9004 68.1315 87.662 68.0097 88.4044C67.8878 89.1468 67.506 89.8217 66.9324 90.3087C66.3589 90.7956 65.6309 91.0628 64.8786 91.0625H40.9793C40.6533 91.0698 40.3291 91.0122 40.0256 90.893C39.7221 90.7738 39.4453 90.5954 39.2114 90.3681C36.0922 87.4701 33.3656 86.1508 28.1784 85.0715V61.6719L28.4389 61.4184C35.6479 54.4174 37.4139 53.5084 37.7888 53.3981C38.0065 53.3533 38.2112 53.2597 38.3876 53.1245C41.9376 50.4053 44.3416 46.4561 45.1266 42.0538C45.1358 42.0023 45.1423 41.9503 45.1461 41.8981L45.5684 35.9047C45.8069 35.4652 46.1577 35.0967 46.585 34.8369C47.0122 34.577 47.5007 34.435 48.0007 34.4253C48.5007 34.4156 48.9944 34.5385 49.4314 34.7816C49.8684 35.0247 50.2332 35.3793 50.4887 35.8092C51.7152 38.8415 52.2657 42.1047 52.1018 45.3715C51.9379 48.6383 51.0635 51.8301 49.5397 54.7243C49.4221 54.9482 49.3643 55.1986 49.3719 55.4514C49.3795 55.7041 49.4522 55.9506 49.583 56.167C49.7137 56.3834 49.8982 56.5624 50.1184 56.6866C50.3386 56.8108 50.5872 56.8761 50.8401 56.8761H71.635C72.4721 56.8824 73.2727 57.2194 73.8623 57.8136C74.4519 58.4077 74.7828 59.2108 74.7828 60.0479C74.7828 60.885 74.4519 61.6881 73.8623 62.2823C73.2727 62.8764 72.4721 63.2134 71.635 63.2198V63.2187ZM20.262 62.1391V62.3163C20.262 62.7058 20.1072 63.0794 19.8318 63.3549C19.5564 63.6303 19.1828 63.7851 18.7932 63.7851C18.4037 63.7851 18.0301 63.6303 17.7547 63.3549C17.4792 63.0794 17.3245 62.7058 17.3245 62.3163V62.1391C17.3245 61.7496 17.4792 61.376 17.7547 61.1006C18.0301 60.8251 18.4037 60.6704 18.7932 60.6704C19.1828 60.6704 19.5564 60.8251 19.8318 61.1006C20.1072 61.376 20.262 61.7496 20.262 62.1391ZM64.3337 12.5912C64.2451 12.3186 64.0787 12.0779 63.855 11.8987C63.6312 11.7195 63.36 11.6096 63.0746 11.5828L52.5475 10.5913L48.3505 0.885848C48.2368 0.622749 48.0485 0.398688 47.809 0.24128C47.5694 0.0838728 47.2891 0 47.0024 0C46.7158 0 46.4354 0.0838728 46.1959 0.24128C45.9563 0.398688 45.768 0.622749 45.6543 0.885848L41.4579 10.5912L30.931 11.5826C30.6456 11.6095 30.3744 11.7193 30.1507 11.8985C29.9269 12.0777 29.7605 12.3184 29.672 12.591C29.5834 12.8636 29.5765 13.1561 29.6522 13.4326C29.7279 13.7091 29.8828 13.9573 30.0978 14.1468L38.0315 21.1366L35.7215 31.4546C35.6589 31.7343 35.6795 32.0262 35.7808 32.2943C35.8821 32.5625 36.0596 32.7951 36.2915 32.9636C36.5234 33.1321 36.7995 33.229 37.0858 33.2425C37.3721 33.2559 37.6561 33.1853 37.9028 33.0394L47.0024 27.6544L56.1017 33.0397C56.3484 33.1857 56.6324 33.2563 56.9187 33.2428C57.205 33.2294 57.4811 33.1324 57.713 32.9639C57.9449 32.7955 58.1224 32.5628 58.2237 32.2947C58.325 32.0266 58.3456 31.7346 58.283 31.4549L55.9732 21.137L63.9068 14.1472C64.1221 13.9578 64.2772 13.7096 64.353 13.4331C64.4289 13.1566 64.4221 12.8639 64.3337 12.5912ZM53.3799 19.5074C53.1824 19.6814 53.0354 19.9052 52.954 20.1556C52.8727 20.4059 52.8601 20.6734 52.9176 20.9302L54.6754 28.7816L47.7515 24.6836C47.525 24.5496 47.2666 24.4788 47.0033 24.4788C46.7401 24.4788 46.4817 24.5496 46.2552 24.6836L39.3313 28.7816L41.0881 20.9297C41.1456 20.6729 41.133 20.4053 41.0517 20.155C40.9704 19.9047 40.8233 19.6808 40.6258 19.5068L34.5891 14.1881L42.5993 13.4336C42.8613 13.4089 43.1119 13.3142 43.3248 13.1595C43.5377 13.0048 43.7051 12.7957 43.8095 12.5541L47.0024 5.16982L50.1953 12.5547C50.2997 12.7963 50.4672 13.0053 50.6801 13.16C50.893 13.3147 51.1435 13.4094 51.4055 13.4341L59.4159 14.1887L53.3799 19.5074ZM90.1916 21.1977C90.103 20.9251 89.9366 20.6844 89.7129 20.5052C89.4891 20.326 89.2179 20.2162 88.9325 20.1893L81.514 19.4905L78.5561 12.6511C78.4424 12.388 78.2541 12.1639 78.0146 12.0065C77.775 11.8491 77.4946 11.7652 77.208 11.7652C76.9214 11.7652 76.641 11.8491 76.4014 12.0065C76.1619 12.1639 75.9736 12.388 75.8599 12.6511L72.9029 19.4905L65.4842 20.1893C65.1988 20.2161 64.9275 20.3259 64.7038 20.5051C64.48 20.6843 64.3136 20.9251 64.225 21.1977C64.1365 21.4704 64.1296 21.763 64.2053 22.0394C64.281 22.3159 64.436 22.5642 64.6511 22.7537L70.2421 27.6793L68.6143 34.9507C68.5517 35.2305 68.5724 35.5225 68.6737 35.7906C68.7751 36.0588 68.9527 36.2915 69.1846 36.4599C69.4166 36.6284 69.6928 36.7252 69.9791 36.7386C70.2655 36.752 70.5495 36.6813 70.7962 36.5352L77.2085 32.7401L83.6204 36.5352C83.8671 36.6812 84.1511 36.7518 84.4374 36.7384C84.7238 36.725 84.9999 36.628 85.2318 36.4595C85.4637 36.2911 85.6413 36.0584 85.7426 35.7902C85.8439 35.5221 85.8645 35.2301 85.8018 34.9504L84.1739 27.679L89.7647 22.7533C89.9797 22.5639 90.1346 22.3156 90.2103 22.0392C90.286 21.7628 90.2792 21.4703 90.1906 21.1977H90.1916ZM81.581 26.0499C81.3835 26.2239 81.2365 26.4478 81.1551 26.6981C81.0738 26.9484 81.0612 27.216 81.1187 27.4728L82.1944 32.2774L77.9563 29.7697C77.7298 29.6357 77.4714 29.5649 77.2082 29.5649C76.9449 29.5649 76.6866 29.6357 76.46 29.7697L72.2232 32.2774L73.2987 27.4728C73.3562 27.216 73.3437 26.9484 73.2623 26.6981C73.181 26.4478 73.0339 26.2239 72.8364 26.0499L69.142 22.7954L74.0439 22.3335C74.306 22.3088 74.5566 22.2141 74.7695 22.0594C74.9825 21.9047 75.1499 21.6956 75.2544 21.454L77.2082 16.9349L79.162 21.454C79.2664 21.6956 79.4339 21.9047 79.6468 22.0594C79.8598 22.2141 80.1104 22.3088 80.3724 22.3335L85.2744 22.7954L81.581 26.0499ZM28.5224 20.1893L21.1039 19.4905L18.145 12.6511C18.0312 12.388 17.8429 12.1639 17.6034 12.0065C17.3638 11.8491 17.0835 11.7652 16.7968 11.7652C16.5102 11.7652 16.2298 11.8491 15.9903 12.0065C15.7507 12.1639 15.5625 12.388 15.4487 12.6511L12.4917 19.4905L5.07327 20.1893C4.78787 20.2161 4.51657 20.3259 4.29281 20.5051C4.06906 20.6843 3.90264 20.9251 3.81406 21.1977C3.72548 21.4704 3.71863 21.763 3.79434 22.0394C3.87004 22.3159 4.02501 22.5642 4.24012 22.7537L9.83092 27.6793L8.20299 34.9507C8.14046 35.2305 8.16113 35.5224 8.26245 35.7905C8.36378 36.0586 8.54133 36.2912 8.77323 36.4596C9.00513 36.628 9.28124 36.7249 9.56754 36.7383C9.85384 36.7518 10.1378 36.6811 10.3845 36.5352L16.7968 32.7401L23.2087 36.5352C23.4553 36.6811 23.7393 36.7517 24.0256 36.7383C24.3119 36.7248 24.5881 36.6279 24.82 36.4594C25.0518 36.2909 25.2294 36.0583 25.3306 35.7901C25.4319 35.522 25.4525 35.2301 25.3899 34.9504L23.762 27.679L29.353 22.7533C29.5681 22.5639 29.7231 22.3156 29.7988 22.0391C29.8745 21.7626 29.8676 21.47 29.7791 21.1974C29.6905 20.9247 29.5241 20.684 29.3003 20.5048C29.0766 20.3256 28.8053 20.2158 28.5198 20.1889L28.5224 20.1893ZM21.1706 26.0499C20.9731 26.2239 20.826 26.4478 20.7447 26.6981C20.6634 26.9484 20.6508 27.216 20.7083 27.4728L21.7838 32.2773L17.545 29.7697C17.3185 29.6357 17.0601 29.5649 16.7968 29.5649C16.5336 29.5649 16.2752 29.6357 16.0487 29.7697L11.8117 32.2774L12.8874 27.4728C12.9449 27.216 12.9323 26.9484 12.851 26.6981C12.7697 26.4478 12.6226 26.2239 12.4251 26.0499L8.73082 22.7954L13.6328 22.3335C13.8948 22.3088 14.1454 22.2141 14.3584 22.0594C14.5713 21.9047 14.7388 21.6956 14.8432 21.454L16.7968 16.9351L18.7506 21.454C18.8551 21.6956 19.0225 21.9047 19.2354 22.0594C19.4483 22.2141 19.6989 22.3087 19.9609 22.3335L24.8628 22.7954L21.1706 26.0499Z" fill="#45B34A"/>
</g>
<defs>
<clipPath id="clip0_889_8252">
<rect width="94" height="94" fill="white"/>
</clipPath>
</defs>
</svg>
